<?xml version="1.0" encoding="utf-8"?>
<!-- Generator: Adobe Illustrator 16.0.0, SVG Export Plug-In . SVG Version: 6.00 Build 0)  -->
<!DOCTYPE svg PUBLIC "-//W3C//DTD SVG 1.0//EN" "http://www.w3.org/TR/2001/REC-SVG-20010904/DTD/svg10.dtd">
<svg version="1.0" xmlns="http://www.w3.org/2000/svg" xmlns:xlink="http://www.w3.org/1999/xlink" x="0px" y="0px" width="20px"
	 height="20px" viewBox="0 0 20 20" enable-background="new 0 0 20 20" xml:space="preserve">
<g id="Layer_1">
</g>
<g id="Guides">
</g>
<g id="Layer_21" display="none">
	<path display="inline" d="M5.6,15.107l7.779-7.777l-0.707-0.708L4.894,14.4L5.6,15.107z M1.711,14.047L2.064,14.4l-1.768,5.303
		L5.6,17.936l0.354,0.354L17.268,6.976l-4.242-4.243L1.711,14.047z M13.025,4.147l2.828,2.829l-9.901,9.899l-2.828-2.828
		L13.025,4.147z M2.029,17.972l0.867-2.604l1.736,1.736L2.029,17.972z M19.389,3.439l-2.828-2.829c-0.707-0.707-1.414,0-1.414,0
		l-1.414,1.414l0.707,0.707l1.414-1.415l2.828,2.829l-1.414,1.414l0.707,0.707l1.414-1.414C20.096,4.146,19.389,3.439,19.389,3.439z
		"/>
</g>
<g id="Layer_4">
	<path d="M11,5H9v1h2V5z M13,3h-1v4h1V3z M13,13h-3v-1h3V9H9v1h3v1H9v3h4V13z M8,3H7v4h1V3z M14,5v1h2v10H4V6h2V5H3v12h14V5H14z
		 M8,14V9H6v1h1v4H8z"/>
</g>
<g id="Layer_5">
	<g display="none">
		<path display="inline" fill="#FFCD34" d="M15.601,3.62v1h1.618c-0.121,1.078-0.621,3.577-2.594,5.17V1.663h-9.25v8.12
			C3.411,8.19,2.906,5.697,2.783,4.62h1.616v-1h-2.67l0.013,0.512c0.002,0.08,0.297,7.823,7.758,8.06v5.146H6.501v1h6.998v-1H10.5
			v-5.146c7.461-0.237,7.756-7.98,7.758-8.06l0.013-0.512H15.601z M13.625,10.448c-0.908,0.469-2.041,0.766-3.461,0.766H9.836
			c-1.42,0-2.553-0.299-3.461-0.77V2.663h7.25V10.448z"/>
	</g>
</g>
</svg>
