<?xml version="1.0" encoding="utf-8"?>
<!-- Generator: Adobe Illustrator 22.1.0, SVG Export Plug-In . SVG Version: 6.00 Build 0)  -->
<svg version="1.1" id="Capa_1" xmlns="http://www.w3.org/2000/svg" xmlns:xlink="http://www.w3.org/1999/xlink" x="0px" y="0px"
	 viewBox="0 0 344.3 344.3" style="enable-background:new 0 0 344.3 344.3;" xml:space="preserve">
<style type="text/css">
	.st0{fill:#222221;}
</style>
<path class="st0" d="M307.4,137.9c-14.8-7.3-39.4-21.9-56.6-34c-7.4-4.9-14.8-7.3-17.2-9.7c-17.2-9.7-56.6-24.3-83.6-24.3h-49.2
	c-2.5,0-36.9-2.4-63.9,24.3C12.3,116,0,150.1,0,196.2v17C0,237.5,19.7,257,44.3,257c19.7,0,36.9-14.6,41.8-34h135.3
	c4.9,19.4,22.1,34,41.8,34c19.7,0,36.9-14.6,41.8-34h39.4v-9.7c0-4.9,0-26.7-2.5-36.4C339.4,169.5,334.5,150.1,307.4,137.9z
	 M44.3,237.5c-12.3,0-22.1-9.7-22.1-21.9c0-12.1,9.8-21.9,22.1-21.9c12.3,0,22.1,9.7,22.1,21.9C68.9,225.4,56.6,237.5,44.3,237.5z
	 M265.6,237.5c-12.3,0-22.1-9.7-22.1-21.9c0-12.1,9.8-21.9,22.1-21.9c12.3,0,22.1,9.7,22.1,21.9
	C287.8,225.4,277.9,237.5,265.6,237.5z M309.9,203.5c-4.9-19.4-22.1-34-44.3-34c-22.1,0-39.4,14.6-44.3,34H88.5
	c-4.9-19.4-22.1-34-44.3-34c-7.4,0-14.8,2.4-22.1,4.9c2.5-26.7,12.3-51,27.1-65.6c22.1-19.4,49.2-19.4,49.2-19.4h49.2
	c22.1,0,59,12.1,73.8,21.9c4.9,2.4,9.8,7.3,17.2,9.7c19.7,12.1,44.3,26.7,59,34c17.2,9.7,19.7,19.4,22.1,26.7
	c0,2.4,2.5,12.1,2.5,19.4h-12.3V203.5z"/>
</svg>
