<?xml version="1.0" encoding="utf-8"?>
<!-- Generator: Adobe Illustrator 22.1.0, SVG Export Plug-In . SVG Version: 6.00 Build 0)  -->
<svg version="1.1" id="Layer_5" xmlns="http://www.w3.org/2000/svg" xmlns:xlink="http://www.w3.org/1999/xlink" x="0px" y="0px"
	 viewBox="0 0 20 20" style="enable-background:new 0 0 20 20;" xml:space="preserve">
<style type="text/css">
	.st0{fill:#222221;}
</style>
<path class="st0" d="M12.9,12.9c0-1.1-0.2-2.1-1.3-2.6C9.7,9.7,8.4,7.8,5.2,7.8H3.9c-2.3,0-3.6,1.7-3.8,3.9C0,12.3,0,13.2,0,13.2
	c0,0.9,0.7,1.6,1.6,1.6c0.8,0,1.4-0.6,1.5-1.3h5.2c0.1,0.7,0.8,1.3,1.5,1.3s1.4-0.6,1.5-1.3h0.8h0.6V12.9z M1.6,14.2
	c-0.5,0-1-0.5-1-1c0-0.5,0.5-1,1-1s1,0.5,1,1C2.6,13.8,2.1,14.2,1.6,14.2z M10,14.2c-0.5,0-1-0.5-1-1c0-0.5,0.5-1,1-1
	c0.5,0,1,0.5,1,1C11,13.8,10.5,14.2,10,14.2z M11.6,12.9c-0.1-0.7-0.8-1.3-1.5-1.3c-0.8,0-1.4,0.6-1.5,1.3H3.2
	c-0.2-0.7-0.8-1.3-1.6-1.3c-0.3,0-0.6,0.1-1,0.3l0.1-0.8C1,10,1.7,8.4,3.9,8.4h1.3c1.9,0,3.1,0.7,4.2,1.5c0.6,0.4,1.3,0.7,2,1
	c0.5,0.2,0.8,0.6,0.9,2H11.6z"/>
<path class="st0" d="M9.2,10.5H5.1c-1.7,0-2.1-1-2.1-1C2.9,9.2,2.7,9.2,2.5,9.2C2.4,9.3,2.3,9.5,2.4,9.7c0,0.1,0.6,1.4,2.7,1.4h4.1
	c0.2,0,0.3-0.1,0.3-0.3S9.4,10.5,9.2,10.5z"/>
<path class="st0" d="M19,6.7c-0.1-0.3-0.5-0.6-0.9-0.6h-2.8c-0.5,0-1,0.4-1,0.9v2.7c0,0.5,0.4,0.9,1,0.9H18c0.5,0,1-0.4,1-0.9V8.3
	l-0.6,0.6v0.9c0,0.2-0.2,0.4-0.4,0.4h-2.8c-0.2,0-0.4-0.2-0.4-0.4V7.1c0-0.2,0.2-0.4,0.4-0.4H18c0.2,0,0.4,0.2,0.4,0.4v0.2l-1.5,1.4
	l-1.1-1.1L15.3,8L16.5,9c0.1,0.1,0.3,0.2,0.4,0.2c0.1,0,0.3-0.1,0.4-0.2l1.1-1v0L19,7.5v0l1-0.9l-0.4-0.4L19,6.7z"/>
</svg>
