<?xml version="1.0" encoding="utf-8"?>
<!-- Generator: Adobe Illustrator 21.0.2, SVG Export Plug-In . SVG Version: 6.00 Build 0)  -->
<svg version="1.1" id="Layer_1" xmlns="http://www.w3.org/2000/svg" xmlns:xlink="http://www.w3.org/1999/xlink" x="0px" y="0px"
	 viewBox="0 0 20 20" style="enable-background:new 0 0 20 20;" xml:space="preserve">
<style type="text/css">
	.st0{display:none;}
	.st1{display:inline;}
	.st2{fill:#FFCC33;}
	.st3{display:inline;fill:#FFCD34;}
</style>
<g id="Layer_1_1_">
</g>
<g id="Guides">
</g>
<g id="Layer_21" class="st0">
	<path class="st1" d="M5.6,15.1l7.8-7.8l-0.7-0.7l-7.8,7.8L5.6,15.1z M1.7,14l0.4,0.4l-1.8,5.3l5.3-1.8L6,18.3L17.3,7L13,2.7L1.7,14
		z M13,4.1L15.9,7L6,16.9L3.1,14L13,4.1z M2,18l0.9-2.6l1.7,1.7L2,18z M19.4,3.4l-2.8-2.8c-0.7-0.7-1.4,0-1.4,0L13.7,2l0.7,0.7
		l1.4-1.4l2.8,2.8l-1.4,1.4L18,6.3l1.4-1.4C20.1,4.1,19.4,3.4,19.4,3.4z"/>
</g>
<g id="Layer_4">
	<path class="st2" d="M11,5H9v1h2V5z M13,3h-1v4h1V3z M13,13h-3v-1h3V9H9v1h3v1H9v3h4V13z M8,3H7v4h1V3z M14,5v1h2v10H4V6h2V5H3v12
		h14V5H14z M8,14V9H6v1h1v4H8z"/>
</g>
<g id="Layer_5">
	<g class="st0">
		<path class="st3" d="M15.6,3.6v1h1.6c-0.1,1.1-0.6,3.6-2.6,5.2V1.7H5.4v8.1c-2-1.6-2.5-4.1-2.6-5.2h1.6v-1H1.7l0,0.5
			c0,0.1,0.3,7.8,7.8,8.1v5.1h-3v1h7v-1h-3v-5.1c7.5-0.2,7.8-8,7.8-8.1l0-0.5C18.3,3.6,15.6,3.6,15.6,3.6z M13.6,10.4
			c-0.9,0.5-2,0.8-3.5,0.8H9.8c-1.4,0-2.6-0.3-3.5-0.8V2.7h7.2V10.4z"/>
	</g>
</g>
</svg>
