<?xml version="1.0" encoding="utf-8"?>
<!-- Generator: Adobe Illustrator 22.1.0, SVG Export Plug-In . SVG Version: 6.00 Build 0)  -->
<svg version="1.1" id="Layer_5" xmlns="http://www.w3.org/2000/svg" xmlns:xlink="http://www.w3.org/1999/xlink" x="0px" y="0px"
	 viewBox="0 0 20 20" style="enable-background:new 0 0 20 20;" xml:space="preserve">
<style type="text/css">
	.st0{fill:#222221;}
</style>
<path class="st0" d="M13.1,3.8c-1.3,0-2.4,1.1-2.4,2.5s1.1,2.5,2.4,2.5v5c0,0.8-0.5,1.3-1.2,1.3h-1.2v1.3h1.2c1.3,0,2.4-1.1,2.4-2.5
	V8.4C15,8,15.5,7.1,15.5,6.3C15.5,4.9,14.4,3.8,13.1,3.8z M13.1,7.5c-0.7,0-1.2-0.5-1.2-1.3S12.3,5,13.1,5c0.7,0,1.2,0.5,1.2,1.3
	S13.8,7.5,13.1,7.5z M14.3,0H5.7C3.6,0,2.1,1.6,2.1,3.8v8.8h2.4v5c0,1.4,1.1,2.5,2.4,2.5h4.9v-1.3H6.9c-0.7,0-1.2-0.5-1.2-1.3v-1.3
	c2.1,0,3.7-1.6,3.7-3.8H8.2c0,1.4-1.1,2.5-2.4,2.5v-3.8H3.3V3.8c0-1.4,1.1-2.5,2.4-2.5h8.6c1.3,0,2.4,1.1,2.4,2.5V20h1.2V3.8
	C17.9,1.6,16.4,0,14.3,0z M5.7,7.5h1.2V5H5.7V7.5z"/>
</svg>
