<?xml version="1.0" encoding="utf-8"?>
<!-- Generator: Adobe Illustrator 22.1.0, SVG Export Plug-In . SVG Version: 6.00 Build 0)  -->
<svg version="1.1" id="Layer_1" xmlns="http://www.w3.org/2000/svg" xmlns:xlink="http://www.w3.org/1999/xlink" x="0px" y="0px"
	 viewBox="0 0 27 34" style="enable-background:new 0 0 27 34;" xml:space="preserve">
<style type="text/css">
	.st0{fill:#FFCC33;}
</style>
<path class="st0" d="M18.7,6.4c-2.3,0-4.2,1.9-4.2,4.3s1.9,4.3,4.2,4.3v8.5c0,1.3-0.8,2.1-2.1,2.1h-2.1v2.1h2.1
	c2.3,0,4.2-1.9,4.2-4.3v-9.1c1.2-0.6,2.1-2.1,2.1-3.6C22.8,8.3,21,6.4,18.7,6.4z M18.7,12.8c-1.2,0-2.1-0.9-2.1-2.1s0.8-2.1,2.1-2.1
	c1.2,0,2.1,0.9,2.1,2.1S19.9,12.8,18.7,12.8z M20.8,0H6.2C2.7,0,0,2.8,0,6.4v14.9h4.2v8.5C4.2,32.1,6,34,8.3,34h8.3v-2.1H8.3
	c-1.2,0-2.1-0.9-2.1-2.1v-2.1c3.5,0,6.2-2.8,6.2-6.4h-2.1c0,2.3-1.9,4.3-4.2,4.3v-6.4H2.1V6.4c0-2.3,1.9-4.3,4.2-4.3h14.5
	c2.3,0,4.2,1.9,4.2,4.3V34H27V6.4C27,2.8,24.3,0,20.8,0z M6.2,12.8h2.1V8.5H6.2V12.8z"/>
</svg>
