<?xml version="1.0" encoding="utf-8"?>
<!-- Generator: Adobe Illustrator 16.0.0, SVG Export Plug-In . SVG Version: 6.00 Build 0)  -->
<!DOCTYPE svg PUBLIC "-//W3C//DTD SVG 1.0//EN" "http://www.w3.org/TR/2001/REC-SVG-20010904/DTD/svg10.dtd">
<svg version="1.0" id="Layer_5" xmlns="http://www.w3.org/2000/svg" xmlns:xlink="http://www.w3.org/1999/xlink" x="0px" y="0px"
	 width="20px" height="20px" viewBox="0 0 20 20" enable-background="new 0 0 20 20" xml:space="preserve">
<g>
	<path d="M19.991,12.5c-0.046-1.65-0.32-3.207-1.986-4.039c-3-1-5-3.961-10-3.961h-2c-3.654,0-5.635,2.563-5.949,6.006
		C-0.035,11.572,0.005,13,0.005,13c0,1.381,1.119,2.5,2.5,2.5c1.209,0,2.218-0.857,2.449-2h8.102c0.231,1.143,1.24,2,2.449,2
		s2.218-0.857,2.449-2h1.051h1v-1H19.991z M2.505,14.5c-0.827,0-1.5-0.672-1.5-1.5c0-0.826,0.673-1.5,1.5-1.5s1.5,0.674,1.5,1.5
		C4.005,13.828,3.332,14.5,2.505,14.5z M15.505,14.5c-0.827,0-1.5-0.672-1.5-1.5c0-0.826,0.673-1.5,1.5-1.5s1.5,0.674,1.5,1.5
		C17.005,13.828,16.332,14.5,15.505,14.5z M17.954,12.5c-0.231-1.141-1.24-2-2.449-2s-2.218,0.859-2.449,2H4.954
		c-0.231-1.141-1.24-2-2.449-2c-0.548,0-1.05,0.182-1.462,0.48l0.132-1.215C1.534,7.902,2.647,5.5,6.005,5.5h2
		c2.971,0,4.779,1.148,6.527,2.256c0.961,0.609,1.957,1.115,3.084,1.629c0.766,0.348,1.257,0.947,1.365,3.115H17.954z"/>
	<path d="M14.318,8.684H7.877c-2.607,0-3.26-1.539-3.297-1.622C4.472,6.81,4.18,6.692,3.925,6.801
		C3.671,6.908,3.553,7.203,3.661,7.457c0.042,0.1,0.919,2.227,4.216,2.227h6.441c0.277,0,0.5-0.224,0.5-0.5
		S14.596,8.684,14.318,8.684z"/>
</g>
</svg>
