<?xml version="1.0" encoding="utf-8"?>
<!-- Generator: Adobe Illustrator 16.0.0, SVG Export Plug-In . SVG Version: 6.00 Build 0)  -->
<!DOCTYPE svg PUBLIC "-//W3C//DTD SVG 1.0//EN" "http://www.w3.org/TR/2001/REC-SVG-20010904/DTD/svg10.dtd">
<svg version="1.0" xmlns="http://www.w3.org/2000/svg" xmlns:xlink="http://www.w3.org/1999/xlink" x="0px" y="0px" width="20px"
	 height="20px" viewBox="0 0 20 20" enable-background="new 0 0 20 20" xml:space="preserve">
<g id="Layer_1">
</g>
<g id="Guides">
</g>
<g id="Layer_8" display="none">
	<rect x="-10" display="inline" fill="#FFCD34" width="8" height="5"/>
	<rect x="-10" y="8" display="inline" fill="#8B8B8B" width="8" height="5"/>
	<rect x="-10" y="15" display="inline" width="8" height="5"/>
</g>
<g id="Layer_5" display="none">
	<g display="inline">
		<path d="M19.991,12.5c-0.046-1.65-0.32-3.207-1.986-4.039c-3-1-5-3.961-10-3.961h-2c-3.654,0-5.635,2.563-5.949,6.006
			C-0.035,11.572,0.005,13,0.005,13c0,1.381,1.119,2.5,2.5,2.5c1.209,0,2.218-0.857,2.449-2h8.102c0.231,1.143,1.24,2,2.449,2
			s2.218-0.857,2.449-2h1.051h1v-1H19.991z M2.505,14.5c-0.827,0-1.5-0.672-1.5-1.5c0-0.826,0.673-1.5,1.5-1.5s1.5,0.674,1.5,1.5
			C4.005,13.828,3.332,14.5,2.505,14.5z M15.505,14.5c-0.827,0-1.5-0.672-1.5-1.5c0-0.826,0.673-1.5,1.5-1.5s1.5,0.674,1.5,1.5
			C17.005,13.828,16.332,14.5,15.505,14.5z M17.954,12.5c-0.231-1.141-1.24-2-2.449-2s-2.218,0.859-2.449,2H4.954
			c-0.231-1.141-1.24-2-2.449-2c-0.548,0-1.05,0.182-1.462,0.48l0.132-1.215C1.534,7.902,2.647,5.5,6.005,5.5h2
			c2.971,0,4.779,1.148,6.527,2.256c0.961,0.609,1.957,1.115,3.084,1.629c0.766,0.348,1.257,0.947,1.365,3.115H17.954z"/>
		<path d="M14.318,8.684H7.877c-2.607,0-3.26-1.539-3.297-1.622C4.472,6.81,4.18,6.692,3.925,6.801
			C3.671,6.908,3.553,7.203,3.661,7.457c0.042,0.1,0.919,2.227,4.216,2.227h6.441c0.277,0,0.5-0.224,0.5-0.5
			S14.596,8.684,14.318,8.684z"/>
	</g>
</g>
<g id="Layer_6" display="none">
	<g display="inline">
		<path fill="#FFCD34" d="M19.991,12.5c-0.046-1.65-0.32-3.207-1.986-4.039c-3-1-5-3.961-10-3.961h-2
			c-3.654,0-5.635,2.563-5.949,6.006C-0.035,11.572,0.005,13,0.005,13c0,1.381,1.119,2.5,2.5,2.5c1.209,0,2.218-0.857,2.449-2h8.102
			c0.231,1.143,1.24,2,2.449,2s2.218-0.857,2.449-2h1.051h1v-1H19.991z M2.505,14.5c-0.827,0-1.5-0.672-1.5-1.5
			c0-0.826,0.673-1.5,1.5-1.5s1.5,0.674,1.5,1.5C4.005,13.828,3.332,14.5,2.505,14.5z M15.505,14.5c-0.827,0-1.5-0.672-1.5-1.5
			c0-0.826,0.673-1.5,1.5-1.5s1.5,0.674,1.5,1.5C17.005,13.828,16.332,14.5,15.505,14.5z M17.954,12.5c-0.231-1.141-1.24-2-2.449-2
			s-2.218,0.859-2.449,2H4.954c-0.231-1.141-1.24-2-2.449-2c-0.548,0-1.05,0.182-1.462,0.48l0.132-1.215
			C1.534,7.902,2.647,5.5,6.005,5.5h2c2.971,0,4.779,1.148,6.527,2.256c0.961,0.609,1.957,1.115,3.084,1.629
			c0.766,0.348,1.257,0.947,1.365,3.115H17.954z"/>
		<path fill="#FFCD34" d="M14.318,8.684H7.877c-2.607,0-3.26-1.539-3.297-1.622C4.472,6.81,4.18,6.692,3.925,6.801
			C3.671,6.908,3.553,7.203,3.661,7.457c0.042,0.1,0.919,2.227,4.216,2.227h6.441c0.277,0,0.5-0.224,0.5-0.5
			S14.596,8.684,14.318,8.684z"/>
	</g>
</g>
<g id="Layer_7" display="none">
	<path display="inline" d="M16.868,2.748h2.148v-0.99h-3.988v4h0.99V3.33c1.826,1.647,2.982,4.022,2.982,6.67c0,4.963-4.037,9-9,9
		s-9-4.037-9-9s4.037-9,9-9V0c-5.523,0-10,4.478-10,10s4.477,10,10,10s10-4.478,10-10C20.001,7.142,18.792,4.57,16.868,2.748z
		 M7.226,6.202c-0.055-0.003-1.449-0.066-2.59,1.015c-0.945,0.896-1.424,2.28-1.424,4.115v0.65c0,1.002,0.814,1.817,1.814,1.817
		c0.822,0,1.51-0.553,1.734-1.304h5.127c0.223,0.751,0.91,1.304,1.732,1.304s1.51-0.553,1.734-1.304h1.438l-0.002-0.501
		c0-0.176-0.006-1.072-0.131-1.479c-0.107-0.351-0.334-1.08-1.326-1.61C14.776,8.61,13.8,8.018,13.085,7.585l-0.691-0.418
		c-0.668-0.395-2.225-0.966-3.295-0.966L7.226,6.202z M5.026,12.8c-0.449,0-0.814-0.367-0.814-0.817s0.365-0.817,0.814-0.817
		c0.451,0,0.818,0.367,0.818,0.817S5.478,12.8,5.026,12.8z M13.62,12.8c-0.451,0-0.816-0.367-0.816-0.817s0.365-0.817,0.816-0.817
		s0.816,0.367,0.816,0.817S14.071,12.8,13.62,12.8z M12.567,8.44c0.723,0.438,1.715,1.039,2.295,1.348
		c0.629,0.337,0.758,0.751,0.842,1.022c0.035,0.111,0.061,0.388,0.074,0.686h-0.416c-0.215-0.765-0.91-1.331-1.742-1.331
		s-1.527,0.566-1.742,1.331H6.769c-0.215-0.765-0.91-1.331-1.742-1.331c-0.27,0-0.521,0.063-0.75,0.168
		c0.129-1.039,0.473-1.84,1.035-2.379C6.132,7.165,7.163,7.2,7.198,7.201h1.9c0.848,0,2.215,0.489,2.785,0.827L12.567,8.44z"/>
</g>
<g id="Layer_9" display="none">
	<path display="inline" fill="#FFCD34" d="M16.868,2.748h2.148v-0.99h-3.988v4h0.99V3.33c1.826,1.647,2.982,4.022,2.982,6.67
		c0,4.963-4.037,9-9,9s-9-4.037-9-9s4.037-9,9-9V0c-5.523,0-10,4.478-10,10s4.477,10,10,10s10-4.478,10-10
		C20.001,7.142,18.792,4.57,16.868,2.748z M7.226,6.202c-0.055-0.003-1.449-0.066-2.59,1.015c-0.945,0.896-1.424,2.28-1.424,4.115
		v0.65c0,1.002,0.814,1.817,1.814,1.817c0.822,0,1.51-0.553,1.734-1.304h5.127c0.223,0.751,0.91,1.304,1.732,1.304
		s1.51-0.553,1.734-1.304h1.438l-0.002-0.501c0-0.176-0.006-1.072-0.131-1.479c-0.107-0.351-0.334-1.08-1.326-1.61
		C14.776,8.61,13.8,8.018,13.085,7.585l-0.691-0.418c-0.668-0.395-2.225-0.966-3.295-0.966L7.226,6.202z M5.026,12.8
		c-0.449,0-0.814-0.367-0.814-0.817s0.365-0.817,0.814-0.817c0.451,0,0.818,0.367,0.818,0.817S5.478,12.8,5.026,12.8z M13.62,12.8
		c-0.451,0-0.816-0.367-0.816-0.817s0.365-0.817,0.816-0.817s0.816,0.367,0.816,0.817S14.071,12.8,13.62,12.8z M12.567,8.44
		c0.723,0.438,1.715,1.039,2.295,1.348c0.629,0.337,0.758,0.751,0.842,1.022c0.035,0.111,0.061,0.388,0.074,0.686h-0.416
		c-0.215-0.765-0.91-1.331-1.742-1.331s-1.527,0.566-1.742,1.331H6.769c-0.215-0.765-0.91-1.331-1.742-1.331
		c-0.27,0-0.521,0.063-0.75,0.168c0.129-1.039,0.473-1.84,1.035-2.379C6.132,7.165,7.163,7.2,7.198,7.201h1.9
		c0.848,0,2.215,0.489,2.785,0.827L12.567,8.44z"/>
</g>
<g id="Layer_10" display="none">
	<path display="inline" d="M12.5,5c-1.103,0-2,0.896-2,2s0.897,2,2,2v4c0,0.552-0.449,1-1,1h-1v1h1c1.104,0,2-0.896,2-2V8.722
		c0.595-0.347,1-0.984,1-1.722C14.5,5.896,13.603,5,12.5,5z M12.5,8c-0.552,0-1-0.449-1-1s0.448-1,1-1s1,0.449,1,1S13.052,8,12.5,8z
		 M13.5,2h-7c-1.657,0-3,1.344-3,3v7h2v4c0,1.104,0.896,2,2,2h4v-1h-4c-0.552,0-1-0.449-1-1v-1c1.657,0,3-1.344,3-3h-1
		c0,1.102-0.897,2-2,2v-3h-2V5c0-1.102,0.897-2,2-2h7c1.102,0,2,0.897,2,2v13h1V5C16.5,3.343,15.156,2,13.5,2z M6.5,8h1V6h-1V8z"/>
</g>
<g id="Layer_11" display="none">
	<path display="inline" d="M8.375,7.834H6.209v1.083h2.166V7.834z M8.375,4.585H6.209v1.083h2.166V4.585z M10.541,1.336H2.96v17.328
		h14.079V7.834L10.541,1.336z M11.625,3.95l2.8,2.801h-2.8V3.95z M15.957,17.581H4.043V2.419h6.498v5.415h5.416V17.581z
		 M6.209,15.415h7.582v-1.083H6.209V15.415z M6.209,12.166h7.582v-1.083H6.209V12.166z"/>
</g>
<g id="Layer_12" display="none">
	<path display="inline" fill="#FFCD34" d="M8.375,7.834H6.209v1.083h2.166V7.834z M8.375,4.585H6.209v1.083h2.166V4.585z
		 M10.541,1.336H2.96v17.328h14.079V7.834L10.541,1.336z M11.625,3.95l2.8,2.801h-2.8V3.95z M15.957,17.581H4.043V2.419h6.498v5.415
		h5.416V17.581z M6.209,15.415h7.582v-1.083H6.209V15.415z M6.209,12.166h7.582v-1.083H6.209V12.166z"/>
</g>
<g id="Layer_13" display="none">
	<g display="inline">
		<rect y="3.622" width="20" height="2.394"/>
	</g>
	<g display="inline">
		<rect y="8.804" width="20" height="2.394"/>
	</g>
	<g display="inline">
		<rect y="13.986" width="20" height="2.393"/>
	</g>
</g>
<g id="Layer_14" display="none">
	<g display="inline">
		<path d="M6,4h4.495c2.603,0,3.495,1.799,3.495,3.597c0,2.488-1.623,3.613-4.049,3.613H8.568v4.791H6V4z M8.568,9.43h1.143
			c1.016,0,1.958-0.571,1.958-1.798c0-1.176-0.747-1.849-2.03-1.849h-1.07V9.43z"/>
	</g>
	<polygon display="inline" points="5,0 1,0 0,0 0,1 0,5 1,5 1,1 5,1 	"/>
	<polygon display="inline" points="0,15 0,19 0,20 1,20 5,20 5,19 1,19 1,15 	"/>
	<polygon display="inline" points="15,20 19,20 20,20 20,19 20,15 19,15 19,19 15,19 	"/>
	<polygon display="inline" points="20,5 20,1 20,0 19,0 15,0 15,1 19,1 19,5 	"/>
</g>
<g id="Layer_15" display="none">
	<g display="inline">
		<path fill="#FFCD34" d="M6,4h4.495c2.603,0,3.495,1.799,3.495,3.597c0,2.488-1.623,3.613-4.049,3.613H8.568v4.791H6V4z
			 M8.568,9.43h1.143c1.016,0,1.958-0.571,1.958-1.798c0-1.176-0.747-1.849-2.03-1.849h-1.07V9.43z"/>
	</g>
	<polygon display="inline" fill="#FFCD34" points="5,0 1,0 0,0 0,1 0,5 1,5 1,1 5,1 	"/>
	<polygon display="inline" fill="#FFCD34" points="0,15 0,19 0,20 1,20 5,20 5,19 1,19 1,15 	"/>
	<polygon display="inline" fill="#FFCD34" points="15,20 19,20 20,20 20,19 20,15 19,15 19,19 15,19 	"/>
	<polygon display="inline" fill="#FFCD34" points="20,5 20,1 20,0 19,0 15,0 15,1 19,1 19,5 	"/>
</g>
<g id="Layer_16" display="none">
	<path display="inline" d="M3.495,19.251h1.11l1.059-2.199c-0.291-0.172-0.569-0.361-0.836-0.566L3.495,19.251z M14.014,0.751
		c-0.828,0-1.598,0.254-2.237,0.687c0.493,0.104,0.968,0.253,1.426,0.439c0.26-0.074,0.528-0.126,0.812-0.126c1.654,0,3,1.346,3,3
		c0,0.057-0.014,0.11-0.016,0.166c0.281,0.405,0.523,0.838,0.732,1.29c0.178-0.452,0.283-0.941,0.283-1.456
		C18.014,2.545,16.22,0.751,14.014,0.751z M14.326,17.052l1.059,2.199h1.11l-1.333-2.766C14.896,16.69,14.617,16.88,14.326,17.052z
		 M2.995,4.751c0-1.654,1.346-3,3-3c0.283,0,0.552,0.052,0.812,0.126C7.265,1.69,7.74,1.542,8.232,1.438
		C7.594,1.005,6.823,0.751,5.995,0.751c-2.206,0-4,1.794-4,4c0,0.515,0.106,1.004,0.284,1.456c0.208-0.452,0.451-0.885,0.732-1.29
		C3.009,4.861,2.995,4.808,2.995,4.751z M9.495,9.493V14.2c0.167,0.02,0.329,0.051,0.5,0.051s0.333-0.031,0.5-0.051V9.908l3.7-3.7
		c-0.215-0.256-0.452-0.492-0.71-0.704L9.495,9.493z M9.995,2.251c-4.142,0-7.5,3.357-7.5,7.5s3.358,7.5,7.5,7.5s7.5-3.357,7.5-7.5
		S14.137,2.251,9.995,2.251z M9.995,16.251c-3.584,0-6.5-2.916-6.5-6.5s2.916-6.5,6.5-6.5s6.5,2.916,6.5,6.5
		S13.579,16.251,9.995,16.251z"/>
</g>
<g id="Layer_17" display="none">
	<path display="inline" d="M17.4,14.438l-2.346-3.585V7.244c0-3.235-1.779-5.017-5.079-5.017c-3.229,0-5.008,1.782-5.008,5.017
		v3.608L2.62,14.438H17.4z M6.076,11.184v-3.94c0-2.592,1.313-3.906,3.969-3.906c2.587,0,3.9,1.314,3.9,3.906v3.94l1.403,2.143
		H4.673L6.076,11.184z M10.01,16.665c-1.552,0-1.658-0.933-1.664-1.112h-1.11c0,0.771,0.581,2.223,2.773,2.223
		c2.193,0,2.771-1.452,2.771-2.223l-1.108-0.007C11.668,15.732,11.562,16.665,10.01,16.665z"/>
</g>
<g id="Layer_18" display="none">
	<g display="inline">
		<path d="M10.056,5.079c-1.251,0-2.27,1.019-2.27,2.27s1.019,2.27,2.27,2.27s2.27-1.019,2.27-2.27S11.308,5.079,10.056,5.079z
			 M10.056,8.971c-0.894,0-1.621-0.728-1.621-1.622s0.727-1.622,1.621-1.622s1.622,0.728,1.622,1.622S10.95,8.971,10.056,8.971z"/>
		<path d="M14.396,3.009c-1.175-1.175-2.736-1.822-4.397-1.822c-1.662,0-3.223,0.647-4.397,1.822
			C3.428,5.182,3.157,9.272,5.016,11.75l4.983,7.195l4.976-7.186C16.84,9.272,16.57,5.182,14.396,3.009z M14.448,11.381
			l-4.449,6.424l-4.457-6.434C3.857,9.123,4.098,5.43,6.06,3.467c1.052-1.051,2.451-1.631,3.939-1.631
			c1.487,0,2.887,0.58,3.938,1.631C15.9,5.43,16.142,9.123,14.448,11.381z"/>
	</g>
</g>
<g id="Layer_19" display="none">
	<g display="inline">
		<path fill="#FFCD34" d="M10.056,5.079c-1.251,0-2.27,1.019-2.27,2.27s1.019,2.27,2.27,2.27s2.27-1.019,2.27-2.27
			S11.308,5.079,10.056,5.079z M10.056,8.971c-0.894,0-1.621-0.728-1.621-1.622s0.727-1.622,1.621-1.622s1.622,0.728,1.622,1.622
			S10.95,8.971,10.056,8.971z"/>
		<path fill="#FFCD34" d="M14.396,3.009c-1.175-1.175-2.736-1.822-4.397-1.822c-1.662,0-3.223,0.647-4.397,1.822
			C3.428,5.182,3.157,9.272,5.016,11.75l4.983,7.195l4.976-7.186C16.84,9.272,16.57,5.182,14.396,3.009z M14.448,11.381
			l-4.449,6.424l-4.457-6.434C3.857,9.123,4.098,5.43,6.06,3.467c1.052-1.051,2.451-1.631,3.939-1.631
			c1.487,0,2.887,0.58,3.938,1.631C15.9,5.43,16.142,9.123,14.448,11.381z"/>
	</g>
</g>
<g id="Layer_20" display="none">
	<polygon display="inline" fill="#999999" points="18,9 11,9 11,2 10,2 10,9 3,9 3,10 10,10 10,17 11,17 11,10 18,10 	"/>
</g>
<g id="Layer_21" display="none">
	<circle display="inline" cx="10.447" cy="4.818" r="1.197"/>
	<circle display="inline" cx="10.447" cy="9.818" r="1.197"/>
	<circle display="inline" cx="10.447" cy="14.818" r="1.197"/>
</g>
<g id="Layer_22" display="none">
	<g display="inline">
		<path d="M14.178,13.299c0.822,0,1.51-0.553,1.734-1.303h1.438l-0.002-0.501c0-0.176-0.006-1.073-0.131-1.479
			c-0.107-0.351-0.334-1.081-1.326-1.61c-0.557-0.297-1.533-0.889-2.248-1.322l-0.691-0.417c-0.668-0.396-2.225-0.966-3.295-0.966
			H7.783c-0.055-0.002-1.449-0.065-2.59,1.016C4.248,7.612,3.77,8.997,3.77,10.832v0.65c0,1.002,0.814,1.816,1.814,1.816
			c0.822,0,1.51-0.553,1.734-1.303h5.127C12.668,12.746,13.355,13.299,14.178,13.299z M14.178,12.299
			c-0.451,0-0.816-0.366-0.816-0.816c0-0.451,0.365-0.818,0.816-0.818s0.816,0.367,0.816,0.818
			C14.994,11.933,14.629,12.299,14.178,12.299z M5.584,12.299c-0.449,0-0.814-0.366-0.814-0.816c0-0.451,0.365-0.818,0.814-0.818
			c0.451,0,0.818,0.367,0.818,0.818C6.402,11.933,6.035,12.299,5.584,12.299z M7.326,10.996c-0.215-0.766-0.91-1.332-1.742-1.332
			c-0.27,0-0.521,0.063-0.75,0.168c0.129-1.039,0.473-1.84,1.035-2.379C6.689,6.665,7.721,6.7,7.756,6.701h1.9
			c0.848,0,2.215,0.489,2.785,0.826l0.684,0.412c0.723,0.439,1.715,1.039,2.295,1.349c0.629,0.337,0.758,0.751,0.842,1.022
			c0.035,0.111,0.061,0.387,0.074,0.686H15.92c-0.215-0.766-0.91-1.332-1.742-1.332s-1.527,0.566-1.742,1.332H7.326z"/>
		<path d="M4.773,17.294C2.498,15.66,1,13.01,1,10c0-4.963,4.037-9,9-9V0C4.477,0,0,4.477,0,10c0,3.283,1.597,6.178,4.041,8H1.795v1
			h3.979v-3.965h-1V17.294z"/>
		<path d="M15.949,2h2.426V1h-3.979v0.028v1.126v2.811h1V2.809C17.582,4.452,19,7.062,19,10c0,4.963-4.037,9-9,9v1
			c5.523,0,10-4.477,10-10C20,6.713,18.397,3.82,15.949,2z"/>
	</g>
</g>
<g id="Layer_23" display="none">
	<g display="inline">
		<path fill="#FFCD34" d="M14.178,13.299c0.822,0,1.51-0.553,1.734-1.303h1.438l-0.002-0.501c0-0.176-0.006-1.073-0.131-1.479
			c-0.107-0.351-0.334-1.081-1.326-1.61c-0.557-0.297-1.533-0.889-2.248-1.322l-0.691-0.417c-0.668-0.396-2.225-0.966-3.295-0.966
			H7.783c-0.055-0.002-1.449-0.065-2.59,1.016C4.248,7.612,3.77,8.997,3.77,10.832v0.65c0,1.002,0.814,1.816,1.814,1.816
			c0.822,0,1.51-0.553,1.734-1.303h5.127C12.668,12.746,13.355,13.299,14.178,13.299z M14.178,12.299
			c-0.451,0-0.816-0.366-0.816-0.816c0-0.451,0.365-0.818,0.816-0.818s0.816,0.367,0.816,0.818
			C14.994,11.933,14.629,12.299,14.178,12.299z M5.584,12.299c-0.449,0-0.814-0.366-0.814-0.816c0-0.451,0.365-0.818,0.814-0.818
			c0.451,0,0.818,0.367,0.818,0.818C6.402,11.933,6.035,12.299,5.584,12.299z M7.326,10.996c-0.215-0.766-0.91-1.332-1.742-1.332
			c-0.27,0-0.521,0.063-0.75,0.168c0.129-1.039,0.473-1.84,1.035-2.379C6.689,6.665,7.721,6.7,7.756,6.701h1.9
			c0.848,0,2.215,0.489,2.785,0.826l0.684,0.412c0.723,0.439,1.715,1.039,2.295,1.349c0.629,0.337,0.758,0.751,0.842,1.022
			c0.035,0.111,0.061,0.387,0.074,0.686H15.92c-0.215-0.766-0.91-1.332-1.742-1.332s-1.527,0.566-1.742,1.332H7.326z"/>
		<path fill="#FFCD34" d="M4.773,17.294C2.498,15.66,1,13.01,1,10c0-4.963,4.037-9,9-9V0C4.477,0,0,4.477,0,10
			c0,3.283,1.597,6.178,4.041,8H1.795v1h3.979v-3.965h-1V17.294z"/>
		<path fill="#FFCD34" d="M15.949,2h2.426V1h-3.979v0.028v1.126v2.811h1V2.809C17.582,4.452,19,7.062,19,10c0,4.963-4.037,9-9,9v1
			c5.523,0,10-4.477,10-10C20,6.713,18.397,3.82,15.949,2z"/>
	</g>
</g>
<g id="Layer_24" display="none">
	<path display="inline" d="M18.118,11.49H1.882L0,12.555v1.088l2.118-1.152H8v5h1v-5h2v5h1v-5h5.882L20,13.533v-1.115L18.118,11.49z
		 M4.117,11.486c0.974,0,1.787-0.672,2.02-1.574h6.354c0.231,0.902,1.046,1.574,2.02,1.574s1.788-0.672,2.021-1.574h1.711v-0.5
		c0-0.21-0.008-1.283-0.154-1.756c-0.126-0.411-0.389-1.266-1.556-1.889c-0.671-0.357-1.849-1.07-2.708-1.592
		c-0.346-0.21-0.646-0.392-0.852-0.513C12.176,3.193,10.318,2.51,9.041,2.51L6.77,2.511C6.701,2.507,5.062,2.434,3.715,3.71
		C2.593,4.773,2.023,6.42,2.023,8.608v0.787C2.023,10.549,2.963,11.486,4.117,11.486z M14.511,10.487
		c-0.603,0-1.093-0.489-1.093-1.092c0-0.602,0.49-1.092,1.093-1.092s1.093,0.49,1.093,1.092
		C15.604,9.998,15.113,10.487,14.511,10.487z M4.391,4.448C5.418,3.465,6.708,3.513,6.742,3.51h2.299
		c1.043,0,2.724,0.601,3.423,1.015c0.203,0.12,0.499,0.3,0.843,0.507c0.869,0.527,2.06,1.248,2.755,1.619
		c0.804,0.428,0.964,0.952,1.071,1.3c0.051,0.166,0.083,0.574,0.098,0.962h-0.688c-0.22-0.92-1.044-1.609-2.031-1.609
		s-1.812,0.689-2.03,1.609H6.147c-0.22-0.92-1.044-1.609-2.03-1.609c-0.375,0-0.723,0.107-1.027,0.28
		C3.232,6.21,3.658,5.147,4.391,4.448z M4.117,8.303c0.602,0,1.092,0.49,1.092,1.092c0,0.603-0.49,1.092-1.092,1.092
		c-0.604,0-1.094-0.489-1.094-1.092C3.023,8.793,3.514,8.303,4.117,8.303z"/>
</g>
<g id="Layer_25" display="none">
	<path display="inline" fill="#FFCD34" d="M18.118,11.49H1.882L0,12.555v1.088l2.118-1.152H8v5h1v-5h2v5h1v-5h5.882L20,13.533
		v-1.115L18.118,11.49z M4.117,11.486c0.974,0,1.787-0.672,2.02-1.574h6.354c0.231,0.902,1.046,1.574,2.02,1.574
		s1.788-0.672,2.021-1.574h1.711v-0.5c0-0.21-0.008-1.283-0.154-1.756c-0.126-0.411-0.389-1.266-1.556-1.889
		c-0.671-0.357-1.849-1.07-2.708-1.592c-0.346-0.21-0.646-0.392-0.852-0.513C12.176,3.193,10.318,2.51,9.041,2.51L6.77,2.511
		C6.701,2.507,5.062,2.434,3.715,3.71C2.593,4.773,2.023,6.42,2.023,8.608v0.787C2.023,10.549,2.963,11.486,4.117,11.486z
		 M14.511,10.487c-0.603,0-1.093-0.489-1.093-1.092c0-0.602,0.49-1.092,1.093-1.092s1.093,0.49,1.093,1.092
		C15.604,9.998,15.113,10.487,14.511,10.487z M4.391,4.448C5.418,3.465,6.708,3.513,6.742,3.51h2.299
		c1.043,0,2.724,0.601,3.423,1.015c0.203,0.12,0.499,0.3,0.843,0.507c0.869,0.527,2.06,1.248,2.755,1.619
		c0.804,0.428,0.964,0.952,1.071,1.3c0.051,0.166,0.083,0.574,0.098,0.962h-0.688c-0.22-0.92-1.044-1.609-2.031-1.609
		s-1.812,0.689-2.03,1.609H6.147c-0.22-0.92-1.044-1.609-2.03-1.609c-0.375,0-0.723,0.107-1.027,0.28
		C3.232,6.21,3.658,5.147,4.391,4.448z M4.117,8.303c0.602,0,1.092,0.49,1.092,1.092c0,0.603-0.49,1.092-1.092,1.092
		c-0.604,0-1.094-0.489-1.094-1.092C3.023,8.793,3.514,8.303,4.117,8.303z"/>
</g>
<g id="Layer_26" display="none">
	<path display="inline" d="M15.986,19V0H3.99v19h-4v1h20v-1H15.986z M14.99,19H4.986V1H14.99V19z M11.021,10.25l1.938-3.625L11.1,3
		H8.912L6.99,6.625L8.85,10.25H11.021z M9.514,4h0.975l1.342,2.615L10.422,9.25H9.461L8.118,6.633L9.514,4z"/>
</g>
<g id="Layer_27">
	<path fill="#FFCD34" d="M15.986,19V0H3.99v19h-4v1h20v-1H15.986z M14.99,19H4.986V1H14.99V19z M11.021,10.25l1.938-3.625L11.1,3
		H8.912L6.99,6.625L8.85,10.25H11.021z M9.514,4h0.975l1.342,2.615L10.422,9.25H9.461L8.118,6.633L9.514,4z"/>
</g>
<g id="Layer_28" display="none">
	<path display="inline" fill="#8B8B8B" d="M15.033,16.66h-3v-5h-4v5h-3v-6.001h-1v7.001h5v-5h2v5h5v-7.001h-1V16.66z M10.063,2.5
		l-0.014,0.015L10.033,2.5l-8,7.985l0.734,0.733l7.282-7.266l7.25,7.266l0.734-0.733L10.063,2.5z"/>
</g>
<g id="Layer_29" display="none">
	<g display="inline">
		<path fill="#8B8B8B" d="M5.799,7.475c1.327,2.685,3.216,4.792,5.792,6.257c0.268,0.154,0.545,0.295,0.806,0.459
			c0.141,0.09,0.216,0.06,0.325-0.049c0.438-0.449,0.88-0.892,1.327-1.332c0.573-0.562,1.311-0.684,1.952-0.318
			c0.147,0.083,0.281,0.202,0.402,0.323c0.951,0.941,1.897,1.89,2.844,2.839c0.675,0.676,0.718,1.543,0.085,2.259
			c-0.541,0.613-1.152,1.141-1.912,1.479c-0.973,0.434-1.977,0.508-3.02,0.334c-1.86-0.312-3.545-1.06-5.125-2.066
			C7.135,16.3,5.34,14.551,3.683,12.65c-0.936-1.069-1.779-2.205-2.435-3.473c-0.817-1.58-1.194-3.248-0.97-5.026
			C0.383,3.305,0.648,2.504,1.18,1.826c0.315-0.405,0.669-0.788,1.053-1.129c0.632-0.56,1.505-0.53,2.111,0.06
			c1.009,0.985,2.006,1.985,2.992,2.994C7.936,4.363,7.961,5.237,7.396,5.88C6.992,6.338,6.542,6.755,6.11,7.189
			C6.009,7.29,5.899,7.384,5.799,7.475z M4.633,7.278c0.016-0.009,0.09-0.045,0.146-0.101c0.612-0.609,1.226-1.218,1.835-1.832
			c0.302-0.304,0.319-0.658,0.043-0.936C5.673,3.418,4.686,2.431,3.695,1.445C3.447,1.198,3.117,1.17,2.857,1.401
			c-0.5,0.447-0.964,0.925-1.254,1.548C1.099,4.038,1.074,5.177,1.248,6.332c0.184,1.217,0.681,2.319,1.362,3.329
			c1.918,2.849,4.264,5.282,7.146,7.17c1.458,0.951,3.032,1.646,4.763,1.938c0.653,0.11,1.306,0.152,1.965-0.041
			c0.837-0.247,1.495-0.747,2.082-1.369c0.346-0.368,0.353-0.696-0.003-1.05c-0.93-0.933-1.86-1.863-2.794-2.796
			c-0.383-0.384-0.702-0.382-1.092,0.009c-0.597,0.595-1.191,1.191-1.786,1.787c-0.056,0.055-0.113,0.103-0.123,0.115
			C9.037,13.729,6.346,11.027,4.633,7.278z"/>
	</g>
</g>
<g id="Layer_30" display="none">
	<path display="inline" fill="#8B8B8B" d="M9.538,12.608h1v-1h-1V12.608z M18.043,0.113H2.033c-1.102,0-1.995,0.9-1.995,2.007
		v12.042c0,1.107,0.894,2.008,1.995,2.008h5.353v3.943h1.41l2.993-3.943h6.254c1.101,0,1.995-0.9,1.995-2.008V2.12
		C20.038,1.013,19.144,0.113,18.043,0.113z M19.04,14.161c0,0.555-0.446,1.004-0.997,1.004h-6.667l-2.993,3.943v-3.943h-6.35
		c-0.552,0-0.998-0.449-0.998-1.004V2.12c0-0.555,0.446-1.003,0.998-1.003h16.01c0.551,0,0.997,0.448,0.997,1.003V14.161z
		 M10.038,3.608c-1.978,0-2.5,1.635-2.5,2.5v0.497l0.994,0.003l0.006-0.497c0.003-0.251,0.089-1.503,1.5-1.503
		s1.497,1.252,1.5,1.495c-0.001,0.033-0.028,0.826-0.854,1.652c-1.134,1.133-1.146,2.304-1.146,2.354v0.494l0.988,0.005l0.012-0.494
		c0.001-0.033,0.028-0.826,0.854-1.652c1.134-1.133,1.146-2.304,1.146-2.354C12.538,5.244,12.016,3.608,10.038,3.608z"/>
</g>
<g id="Layer_31" display="none">
	<g display="inline">
		<path fill="none" stroke="#8B8B8B" stroke-miterlimit="10" d="M2.148,18.403c-0.247,0.122-0.344,0.022-0.218-0.222L9.937,2.779
			c0.126-0.244,0.334-0.244,0.461,0l8.005,15.402c0.127,0.244,0.027,0.346-0.221,0.228l-7.698-3.693
			c-0.248-0.118-0.652-0.116-0.899,0.006L2.148,18.403z"/>
	</g>
</g>
</svg>
