<?xml version="1.0" encoding="utf-8"?>
<!-- Generator: Adobe Illustrator 16.0.0, SVG Export Plug-In . SVG Version: 6.00 Build 0)  -->
<!DOCTYPE svg PUBLIC "-//W3C//DTD SVG 1.0//EN" "http://www.w3.org/TR/2001/REC-SVG-20010904/DTD/svg10.dtd">
<svg version="1.0" xmlns="http://www.w3.org/2000/svg" xmlns:xlink="http://www.w3.org/1999/xlink" x="0px" y="0px" width="20px"
	 height="20px" viewBox="0 0 20 20" enable-background="new 0 0 20 20" xml:space="preserve">
<g id="Layer_1">
</g>
<g id="Guides">
</g>
<g id="Layer_8" display="none">
	<rect x="-10" display="inline" fill="#FFCD34" width="8" height="5"/>
	<rect x="-10" y="8" display="inline" fill="#999999" width="8" height="5"/>
	<rect x="-10" y="15" display="inline" width="8" height="5"/>
</g>
<g id="Layer_5" display="none">
	<g display="inline">
		<path d="M19.991,12.5c-0.046-1.65-0.32-3.207-1.986-4.039c-3-1-5-3.961-10-3.961h-2c-3.654,0-5.635,2.563-5.949,6.006
			C-0.035,11.572,0.005,13,0.005,13c0,1.381,1.119,2.5,2.5,2.5c1.209,0,2.218-0.857,2.449-2h8.102c0.231,1.143,1.24,2,2.449,2
			s2.218-0.857,2.449-2h1.051h1v-1H19.991z M2.505,14.5c-0.827,0-1.5-0.672-1.5-1.5c0-0.826,0.673-1.5,1.5-1.5s1.5,0.674,1.5,1.5
			C4.005,13.828,3.332,14.5,2.505,14.5z M15.505,14.5c-0.827,0-1.5-0.672-1.5-1.5c0-0.826,0.673-1.5,1.5-1.5s1.5,0.674,1.5,1.5
			C17.005,13.828,16.332,14.5,15.505,14.5z M17.954,12.5c-0.231-1.141-1.24-2-2.449-2s-2.218,0.859-2.449,2H4.954
			c-0.231-1.141-1.24-2-2.449-2c-0.548,0-1.05,0.182-1.462,0.48l0.132-1.215C1.534,7.902,2.647,5.5,6.005,5.5h2
			c2.971,0,4.779,1.148,6.527,2.256c0.961,0.609,1.957,1.115,3.084,1.629c0.766,0.348,1.257,0.947,1.365,3.115H17.954z"/>
		<path d="M14.318,8.684H7.877c-2.607,0-3.26-1.539-3.297-1.622C4.472,6.81,4.18,6.692,3.925,6.801
			C3.671,6.908,3.553,7.203,3.661,7.457c0.042,0.1,0.919,2.227,4.216,2.227h6.441c0.277,0,0.5-0.224,0.5-0.5
			S14.596,8.684,14.318,8.684z"/>
	</g>
</g>
<g id="Layer_6" display="none">
	<g display="inline">
		<path fill="#FFCD34" d="M19.991,12.5c-0.046-1.65-0.32-3.207-1.986-4.039c-3-1-5-3.961-10-3.961h-2
			c-3.654,0-5.635,2.563-5.949,6.006C-0.035,11.572,0.005,13,0.005,13c0,1.381,1.119,2.5,2.5,2.5c1.209,0,2.218-0.857,2.449-2h8.102
			c0.231,1.143,1.24,2,2.449,2s2.218-0.857,2.449-2h1.051h1v-1H19.991z M2.505,14.5c-0.827,0-1.5-0.672-1.5-1.5
			c0-0.826,0.673-1.5,1.5-1.5s1.5,0.674,1.5,1.5C4.005,13.828,3.332,14.5,2.505,14.5z M15.505,14.5c-0.827,0-1.5-0.672-1.5-1.5
			c0-0.826,0.673-1.5,1.5-1.5s1.5,0.674,1.5,1.5C17.005,13.828,16.332,14.5,15.505,14.5z M17.954,12.5c-0.231-1.141-1.24-2-2.449-2
			s-2.218,0.859-2.449,2H4.954c-0.231-1.141-1.24-2-2.449-2c-0.548,0-1.05,0.182-1.462,0.48l0.132-1.215
			C1.534,7.902,2.647,5.5,6.005,5.5h2c2.971,0,4.779,1.148,6.527,2.256c0.961,0.609,1.957,1.115,3.084,1.629
			c0.766,0.348,1.257,0.947,1.365,3.115H17.954z"/>
		<path fill="#FFCD34" d="M14.318,8.684H7.877c-2.607,0-3.26-1.539-3.297-1.622C4.472,6.81,4.18,6.692,3.925,6.801
			C3.671,6.908,3.553,7.203,3.661,7.457c0.042,0.1,0.919,2.227,4.216,2.227h6.441c0.277,0,0.5-0.224,0.5-0.5
			S14.596,8.684,14.318,8.684z"/>
	</g>
</g>
<g id="Layer_7" display="none">
	<path display="inline" d="M16.868,2.748h2.148v-0.99h-3.988v4h0.99V3.33c1.826,1.647,2.982,4.022,2.982,6.67c0,4.963-4.037,9-9,9
		s-9-4.037-9-9s4.037-9,9-9V0c-5.523,0-10,4.478-10,10s4.477,10,10,10s10-4.478,10-10C20.001,7.142,18.792,4.57,16.868,2.748z
		 M7.226,6.202c-0.055-0.003-1.449-0.066-2.59,1.015c-0.945,0.896-1.424,2.28-1.424,4.115v0.65c0,1.002,0.814,1.817,1.814,1.817
		c0.822,0,1.51-0.553,1.734-1.304h5.127c0.223,0.751,0.91,1.304,1.732,1.304s1.51-0.553,1.734-1.304h1.438l-0.002-0.501
		c0-0.176-0.006-1.072-0.131-1.479c-0.107-0.351-0.334-1.08-1.326-1.61C14.776,8.61,13.8,8.018,13.085,7.585l-0.691-0.418
		c-0.668-0.395-2.225-0.966-3.295-0.966L7.226,6.202z M5.026,12.8c-0.449,0-0.814-0.367-0.814-0.817s0.365-0.817,0.814-0.817
		c0.451,0,0.818,0.367,0.818,0.817S5.478,12.8,5.026,12.8z M13.62,12.8c-0.451,0-0.816-0.367-0.816-0.817s0.365-0.817,0.816-0.817
		s0.816,0.367,0.816,0.817S14.071,12.8,13.62,12.8z M12.567,8.44c0.723,0.438,1.715,1.039,2.295,1.348
		c0.629,0.337,0.758,0.751,0.842,1.022c0.035,0.111,0.061,0.388,0.074,0.686h-0.416c-0.215-0.765-0.91-1.331-1.742-1.331
		s-1.527,0.566-1.742,1.331H6.769c-0.215-0.765-0.91-1.331-1.742-1.331c-0.27,0-0.521,0.063-0.75,0.168
		c0.129-1.039,0.473-1.84,1.035-2.379C6.132,7.165,7.163,7.2,7.198,7.201h1.9c0.848,0,2.215,0.489,2.785,0.827L12.567,8.44z"/>
</g>
<g id="Layer_9" display="none">
	<path display="inline" fill="#FFCD34" d="M16.868,2.748h2.148v-0.99h-3.988v4h0.99V3.33c1.826,1.647,2.982,4.022,2.982,6.67
		c0,4.963-4.037,9-9,9s-9-4.037-9-9s4.037-9,9-9V0c-5.523,0-10,4.478-10,10s4.477,10,10,10s10-4.478,10-10
		C20.001,7.142,18.792,4.57,16.868,2.748z M7.226,6.202c-0.055-0.003-1.449-0.066-2.59,1.015c-0.945,0.896-1.424,2.28-1.424,4.115
		v0.65c0,1.002,0.814,1.817,1.814,1.817c0.822,0,1.51-0.553,1.734-1.304h5.127c0.223,0.751,0.91,1.304,1.732,1.304
		s1.51-0.553,1.734-1.304h1.438l-0.002-0.501c0-0.176-0.006-1.072-0.131-1.479c-0.107-0.351-0.334-1.08-1.326-1.61
		C14.776,8.61,13.8,8.018,13.085,7.585l-0.691-0.418c-0.668-0.395-2.225-0.966-3.295-0.966L7.226,6.202z M5.026,12.8
		c-0.449,0-0.814-0.367-0.814-0.817s0.365-0.817,0.814-0.817c0.451,0,0.818,0.367,0.818,0.817S5.478,12.8,5.026,12.8z M13.62,12.8
		c-0.451,0-0.816-0.367-0.816-0.817s0.365-0.817,0.816-0.817s0.816,0.367,0.816,0.817S14.071,12.8,13.62,12.8z M12.567,8.44
		c0.723,0.438,1.715,1.039,2.295,1.348c0.629,0.337,0.758,0.751,0.842,1.022c0.035,0.111,0.061,0.388,0.074,0.686h-0.416
		c-0.215-0.765-0.91-1.331-1.742-1.331s-1.527,0.566-1.742,1.331H6.769c-0.215-0.765-0.91-1.331-1.742-1.331
		c-0.27,0-0.521,0.063-0.75,0.168c0.129-1.039,0.473-1.84,1.035-2.379C6.132,7.165,7.163,7.2,7.198,7.201h1.9
		c0.848,0,2.215,0.489,2.785,0.827L12.567,8.44z"/>
</g>
<g id="Layer_10" display="none">
	<path display="inline" d="M12.5,5c-1.103,0-2,0.896-2,2s0.897,2,2,2v4c0,0.552-0.449,1-1,1h-1v1h1c1.104,0,2-0.896,2-2V8.722
		c0.595-0.347,1-0.984,1-1.722C14.5,5.896,13.603,5,12.5,5z M12.5,8c-0.552,0-1-0.449-1-1s0.448-1,1-1s1,0.449,1,1S13.052,8,12.5,8z
		 M13.5,2h-7c-1.657,0-3,1.344-3,3v7h2v4c0,1.104,0.896,2,2,2h4v-1h-4c-0.552,0-1-0.449-1-1v-1c1.657,0,3-1.344,3-3h-1
		c0,1.102-0.897,2-2,2v-3h-2V5c0-1.102,0.897-2,2-2h7c1.102,0,2,0.897,2,2v13h1V5C16.5,3.343,15.156,2,13.5,2z M6.5,8h1V6h-1V8z"/>
</g>
<g id="Layer_11" display="none">
	<path display="inline" d="M8.375,7.834H6.209v1.083h2.166V7.834z M8.375,4.585H6.209v1.083h2.166V4.585z M10.541,1.336H2.96v17.328
		h14.079V7.834L10.541,1.336z M11.625,3.95l2.8,2.801h-2.8V3.95z M15.957,17.581H4.043V2.419h6.498v5.415h5.416V17.581z
		 M6.209,15.415h7.582v-1.083H6.209V15.415z M6.209,12.166h7.582v-1.083H6.209V12.166z"/>
</g>
<g id="Layer_12" display="none">
	<path display="inline" fill="#FFCD34" d="M8.375,7.834H6.209v1.083h2.166V7.834z M8.375,4.585H6.209v1.083h2.166V4.585z
		 M10.541,1.336H2.96v17.328h14.079V7.834L10.541,1.336z M11.625,3.95l2.8,2.801h-2.8V3.95z M15.957,17.581H4.043V2.419h6.498v5.415
		h5.416V17.581z M6.209,15.415h7.582v-1.083H6.209V15.415z M6.209,12.166h7.582v-1.083H6.209V12.166z"/>
</g>
<g id="Layer_13" display="none">
	<g display="inline">
		<rect y="3.622" width="20" height="2.394"/>
	</g>
	<g display="inline">
		<rect y="8.804" width="20" height="2.394"/>
	</g>
	<g display="inline">
		<rect y="13.986" width="20" height="2.393"/>
	</g>
</g>
<g id="Layer_14" display="none">
	<g display="inline">
		<path d="M6,4h4.495c2.603,0,3.495,1.799,3.495,3.597c0,2.488-1.623,3.613-4.049,3.613H8.568v4.791H6V4z M8.568,9.43h1.143
			c1.016,0,1.958-0.571,1.958-1.798c0-1.176-0.747-1.849-2.03-1.849h-1.07V9.43z"/>
	</g>
	<polygon display="inline" points="5,0 1,0 0,0 0,1 0,5 1,5 1,1 5,1 	"/>
	<polygon display="inline" points="0,15 0,19 0,20 1,20 5,20 5,19 1,19 1,15 	"/>
	<polygon display="inline" points="15,20 19,20 20,20 20,19 20,15 19,15 19,19 15,19 	"/>
	<polygon display="inline" points="20,5 20,1 20,0 19,0 15,0 15,1 19,1 19,5 	"/>
</g>
<g id="Layer_15" display="none">
	<g display="inline">
		<path fill="#FFCD34" d="M6,4h4.495c2.603,0,3.495,1.799,3.495,3.597c0,2.488-1.623,3.613-4.049,3.613H8.568v4.791H6V4z
			 M8.568,9.43h1.143c1.016,0,1.958-0.571,1.958-1.798c0-1.176-0.747-1.849-2.03-1.849h-1.07V9.43z"/>
	</g>
	<polygon display="inline" fill="#FFCD34" points="5,0 1,0 0,0 0,1 0,5 1,5 1,1 5,1 	"/>
	<polygon display="inline" fill="#FFCD34" points="0,15 0,19 0,20 1,20 5,20 5,19 1,19 1,15 	"/>
	<polygon display="inline" fill="#FFCD34" points="15,20 19,20 20,20 20,19 20,15 19,15 19,19 15,19 	"/>
	<polygon display="inline" fill="#FFCD34" points="20,5 20,1 20,0 19,0 15,0 15,1 19,1 19,5 	"/>
</g>
<g id="Layer_16" display="none">
	<path display="inline" d="M3.495,19.251h1.11l1.059-2.199c-0.291-0.172-0.569-0.361-0.836-0.566L3.495,19.251z M14.014,0.751
		c-0.828,0-1.598,0.254-2.237,0.687c0.493,0.104,0.968,0.253,1.426,0.439c0.26-0.074,0.528-0.126,0.812-0.126c1.654,0,3,1.346,3,3
		c0,0.057-0.014,0.11-0.016,0.166c0.281,0.405,0.523,0.838,0.732,1.29c0.178-0.452,0.283-0.941,0.283-1.456
		C18.014,2.545,16.22,0.751,14.014,0.751z M14.326,17.052l1.059,2.199h1.11l-1.333-2.766C14.896,16.69,14.617,16.88,14.326,17.052z
		 M2.995,4.751c0-1.654,1.346-3,3-3c0.283,0,0.552,0.052,0.812,0.126C7.265,1.69,7.74,1.542,8.232,1.438
		C7.594,1.005,6.823,0.751,5.995,0.751c-2.206,0-4,1.794-4,4c0,0.515,0.106,1.004,0.284,1.456c0.208-0.452,0.451-0.885,0.732-1.29
		C3.009,4.861,2.995,4.808,2.995,4.751z M9.495,9.493V14.2c0.167,0.02,0.329,0.051,0.5,0.051s0.333-0.031,0.5-0.051V9.908l3.7-3.7
		c-0.215-0.256-0.452-0.492-0.71-0.704L9.495,9.493z M9.995,2.251c-4.142,0-7.5,3.357-7.5,7.5s3.358,7.5,7.5,7.5s7.5-3.357,7.5-7.5
		S14.137,2.251,9.995,2.251z M9.995,16.251c-3.584,0-6.5-2.916-6.5-6.5s2.916-6.5,6.5-6.5s6.5,2.916,6.5,6.5
		S13.579,16.251,9.995,16.251z"/>
</g>
<g id="Layer_17" display="none">
	<path display="inline" d="M17.4,14.438l-2.346-3.585V7.244c0-3.235-1.779-5.017-5.079-5.017c-3.229,0-5.008,1.782-5.008,5.017
		v3.608L2.62,14.438H17.4z M6.076,11.184v-3.94c0-2.592,1.313-3.906,3.969-3.906c2.587,0,3.9,1.314,3.9,3.906v3.94l1.403,2.143
		H4.673L6.076,11.184z M10.01,16.665c-1.552,0-1.658-0.933-1.664-1.112h-1.11c0,0.771,0.581,2.223,2.773,2.223
		c2.193,0,2.771-1.452,2.771-2.223l-1.108-0.007C11.668,15.732,11.562,16.665,10.01,16.665z"/>
</g>
<g id="Layer_18" display="none">
	<g display="inline">
		<path d="M10.056,5.079c-1.251,0-2.27,1.019-2.27,2.27s1.019,2.27,2.27,2.27s2.27-1.019,2.27-2.27S11.308,5.079,10.056,5.079z
			 M10.056,8.971c-0.894,0-1.621-0.728-1.621-1.622s0.727-1.622,1.621-1.622s1.622,0.728,1.622,1.622S10.95,8.971,10.056,8.971z"/>
		<path d="M14.396,3.009c-1.175-1.175-2.736-1.822-4.397-1.822c-1.662,0-3.223,0.647-4.397,1.822
			C3.428,5.182,3.157,9.272,5.016,11.75l4.983,7.195l4.976-7.186C16.84,9.272,16.57,5.182,14.396,3.009z M14.448,11.381
			l-4.449,6.424l-4.457-6.434C3.857,9.123,4.098,5.43,6.06,3.467c1.052-1.051,2.451-1.631,3.939-1.631
			c1.487,0,2.887,0.58,3.938,1.631C15.9,5.43,16.142,9.123,14.448,11.381z"/>
	</g>
</g>
<g id="Layer_19" display="none">
	<g display="inline">
		<path fill="#FFCD34" d="M10.056,5.079c-1.251,0-2.27,1.019-2.27,2.27s1.019,2.27,2.27,2.27s2.27-1.019,2.27-2.27
			S11.308,5.079,10.056,5.079z M10.056,8.971c-0.894,0-1.621-0.728-1.621-1.622s0.727-1.622,1.621-1.622s1.622,0.728,1.622,1.622
			S10.95,8.971,10.056,8.971z"/>
		<path fill="#FFCD34" d="M14.396,3.009c-1.175-1.175-2.736-1.822-4.397-1.822c-1.662,0-3.223,0.647-4.397,1.822
			C3.428,5.182,3.157,9.272,5.016,11.75l4.983,7.195l4.976-7.186C16.84,9.272,16.57,5.182,14.396,3.009z M14.448,11.381
			l-4.449,6.424l-4.457-6.434C3.857,9.123,4.098,5.43,6.06,3.467c1.052-1.051,2.451-1.631,3.939-1.631
			c1.487,0,2.887,0.58,3.938,1.631C15.9,5.43,16.142,9.123,14.448,11.381z"/>
	</g>
</g>
<g id="Layer_20" display="none">
	<polygon display="inline" fill="#999999" points="18,9 11,9 11,2 10,2 10,9 3,9 3,10 10,10 10,17 11,17 11,10 18,10 	"/>
</g>
<g id="Layer_21" display="none">
	<path display="inline" d="M20.043,13.379c-0.015-0.535-0.061-1.057-0.162-1.549c-0.214-1.031-0.697-1.928-1.825-2.492
		c-0.762-0.254-1.461-0.638-2.16-1.063c0.418-0.728,0.808-1.476,1.186-2.308c0.247-0.543,0.631-0.943,1.596-1.172l-0.029-1.041
		c-1.029,0.213-1.927,0.697-2.49,1.824c-0.258,0.772-0.646,1.479-1.078,2.186c-1.806-1.146-3.782-2.385-7.018-2.385H6.063
		c-3.652,0-5.633,2.561-5.947,6.004c-0.091,1.068-0.051,2.496-0.051,2.496c0,1.381,1.118,2.5,2.5,2.5c1.209,0,2.216-0.859,2.447-2
		h8.099c0.231,1.141,1.239,2,2.447,2s2.217-0.859,2.447-2h2.052v-1H20.043z M2.564,15.379c-0.826,0-1.501-0.674-1.501-1.5
		c0-0.828,0.675-1.5,1.501-1.5c0.827,0,1.5,0.672,1.5,1.5C4.064,14.705,3.392,15.379,2.564,15.379z M15.558,15.379
		c-0.826,0-1.499-0.674-1.499-1.5c0-0.828,0.673-1.5,1.499-1.5s1.499,0.672,1.499,1.5C17.057,14.705,16.384,15.379,15.558,15.379z
		 M18.005,13.379c-0.23-1.143-1.239-2-2.447-2s-2.216,0.857-2.447,2H5.012c-0.231-1.143-1.238-2-2.447-2
		c-0.547,0-1.049,0.182-1.462,0.479l0.131-1.213c0.361-1.863,1.474-4.266,4.829-4.266h1.999c2.97,0,4.777,1.146,6.524,2.256
		c0.05,0.031,0.104,0.057,0.154,0.088c0.914,0.568,1.859,1.053,2.928,1.539c0.541,0.248,0.94,0.631,1.169,1.598
		c0.098,0.398,0.166,0.885,0.197,1.52H18.005z"/>
</g>
<g id="Layer_22">
	<path fill="#FFCD34" d="M20.043,13.379c-0.015-0.535-0.061-1.057-0.162-1.549c-0.214-1.031-0.697-1.928-1.825-2.492
		c-0.762-0.254-1.461-0.638-2.16-1.063c0.418-0.728,0.808-1.476,1.186-2.308c0.247-0.543,0.631-0.943,1.596-1.172l-0.029-1.041
		c-1.029,0.213-1.927,0.697-2.49,1.824c-0.258,0.772-0.646,1.479-1.078,2.186c-1.806-1.146-3.782-2.385-7.018-2.385H6.063
		c-3.652,0-5.633,2.561-5.947,6.004c-0.091,1.068-0.051,2.496-0.051,2.496c0,1.381,1.118,2.5,2.5,2.5c1.209,0,2.216-0.859,2.447-2
		h8.099c0.231,1.141,1.239,2,2.447,2s2.217-0.859,2.447-2h2.052v-1H20.043z M2.564,15.379c-0.826,0-1.501-0.674-1.501-1.5
		c0-0.828,0.675-1.5,1.501-1.5c0.827,0,1.5,0.672,1.5,1.5C4.064,14.705,3.392,15.379,2.564,15.379z M15.558,15.379
		c-0.826,0-1.499-0.674-1.499-1.5c0-0.828,0.673-1.5,1.499-1.5s1.499,0.672,1.499,1.5C17.057,14.705,16.384,15.379,15.558,15.379z
		 M18.005,13.379c-0.23-1.143-1.239-2-2.447-2s-2.216,0.857-2.447,2H5.012c-0.231-1.143-1.238-2-2.447-2
		c-0.547,0-1.049,0.182-1.462,0.479l0.131-1.213c0.361-1.863,1.474-4.266,4.829-4.266h1.999c2.97,0,4.777,1.146,6.524,2.256
		c0.05,0.031,0.104,0.057,0.154,0.088c0.914,0.568,1.859,1.053,2.928,1.539c0.541,0.248,0.94,0.631,1.169,1.598
		c0.098,0.398,0.166,0.885,0.197,1.52H18.005z"/>
</g>
</svg>
