<?xml version="1.0" encoding="utf-8"?>
<!-- Generator: Adobe Illustrator 16.0.0, SVG Export Plug-In . SVG Version: 6.00 Build 0)  -->
<!DOCTYPE svg PUBLIC "-//W3C//DTD SVG 1.1//EN" "http://www.w3.org/Graphics/SVG/1.1/DTD/svg11.dtd">
<svg version="1.1" id="Layer_5" xmlns="http://www.w3.org/2000/svg" xmlns:xlink="http://www.w3.org/1999/xlink" x="0px" y="0px"
	 width="595.279px" height="841.89px" viewBox="0 0 595.279 841.89" enable-background="new 0 0 595.279 841.89"
	 xml:space="preserve">
<path fill="#FFCC33" d="M595.28,545.955V295.936c0-26.788-23.811-53.575-56.551-53.575H56.552C29.764,242.361,0,269.148,0,295.936
	v252.995c0,29.764,29.764,53.574,56.552,53.574h482.177C571.469,599.529,595.28,578.695,595.28,545.955z M41.669,554.882
	c0-2.977,0-2.977,0-8.928V295.936l142.868,130.962L41.669,554.882z M77.386,278.078h446.46l-220.253,199.42
	c-5.953,2.975-8.93,2.975-14.882,0L77.386,278.078z M86.316,563.812l122.032-113.104l59.528,53.576
	c8.929,8.93,17.858,11.904,32.74,11.904c8.929,0,23.812-2.975,32.74-11.904l56.552-53.576l125.009,113.104H86.316z M413.72,423.921
	L556.587,292.96v252.995c0,2.977,0,2.977,0,8.928L413.72,423.921z"/>
</svg>
