<?xml version="1.0" encoding="utf-8"?>
<!-- Generator: Adobe Illustrator 22.1.0, SVG Export Plug-In . SVG Version: 6.00 Build 0)  -->
<svg version="1.1" id="Layer_5" xmlns="http://www.w3.org/2000/svg" xmlns:xlink="http://www.w3.org/1999/xlink" x="0px" y="0px"
	 viewBox="0 0 20 20" style="enable-background:new 0 0 20 20;" xml:space="preserve">
<style type="text/css">
	.st0{fill:#999999;}
</style>
<path class="st0" d="M20,14.2V5.8C20,4.9,19.2,4,18.1,4H1.9C1,4,0,4.9,0,5.8v8.5c0,1,1,1.8,1.9,1.8h16.2C19.2,16,20,15.3,20,14.2z
	 M1.4,14.5c0-0.1,0-0.1,0-0.3V5.8l4.8,4.4L1.4,14.5z M2.6,5.2h15l-7.4,6.7c-0.2,0.1-0.3,0.1-0.5,0L2.6,5.2z M2.9,14.8L7,11L9,12.8
	c0.3,0.3,0.6,0.4,1.1,0.4c0.3,0,0.8-0.1,1.1-0.4l1.9-1.8l4.2,3.8H2.9z M13.9,10.1l4.8-4.4v8.5c0,0.1,0,0.1,0,0.3L13.9,10.1z"/>
</svg>
