<?xml version="1.0" encoding="utf-8"?>
<!-- Generator: Adobe Illustrator 22.1.0, SVG Export Plug-In . SVG Version: 6.00 Build 0)  -->
<svg version="1.1" id="Capa_1" xmlns="http://www.w3.org/2000/svg" xmlns:xlink="http://www.w3.org/1999/xlink" x="0px" y="0px"
	 viewBox="0 0 344.3 344.3" style="enable-background:new 0 0 344.3 344.3;" xml:space="preserve">
<style type="text/css">
	.st0{fill:#FFCC33;}
</style>
<path class="st0" d="M232.3,189.2l-15.5-6.9c-1.7,5.2-3.4,10.3-6.9,15.5c-8.6,12.1-22.4,20.7-37.9,20.7s-29.3-8.6-37.9-20.7
	c-3.4-5.2-5.2-10.3-6.9-15.5l-15.5,6.9l-53.4,20.7l-15.5,6.9c1.7,5.2,3.4,10.3,6.9,15.5c22.4,46.5,68.9,77.5,124.1,77.5
	s101.7-31,124.1-77.5c1.7-5.2,5.2-10.3,6.9-15.5l-15.5-6.9L232.3,189.2z M172,292.6c-46.5,0-87.9-27.6-108.5-67.2l53.4-20.7
	c10.3,19,31,31,53.4,31s43.1-12.1,53.4-31l53.4,20.7C259.9,265,218.5,292.6,172,292.6z M172,34.2c-75.8,0-137.8,62-137.8,137.8
	c0,3.4,0,6.9,0,10.3c0,5.2,1.7,12.1,1.7,17.2l17.2-6.9l55.1-22.4l17.2-6.9c1.7-8.6,5.2-17.2,12.1-24.1c10.3-8.6,20.7-13.8,34.5-13.8
	s24.1,5.2,32.7,13.8c6.9,6.9,10.3,13.8,12.1,24.1l17.2,6.9l55.1,22.4l17.2,6.9c1.7-5.2,1.7-12.1,1.7-17.2c0-3.4,0-6.9,0-10.3
	C309.8,96.2,247.8,34.2,172,34.2z M292.6,175.4l-60.3-24.1c-8.6-24.1-32.7-41.4-58.6-41.4s-50,17.2-58.6,41.4l-63.8,24.1
	c0-1.7,0-1.7,0-3.4c0-67.2,53.4-120.6,120.6-120.6S292.6,104.8,292.6,172C292.6,173.7,292.6,173.7,292.6,175.4z M172-0.3
	C77.2-0.3-0.3,77.2-0.3,172S77.2,344.3,172,344.3S344.3,266.8,344.3,172S266.8-0.3,172-0.3z M172,327.1
	c-86.1,0-155.1-68.9-155.1-155.1S85.9,16.9,172,16.9S327.1,85.8,327.1,172S258.1,327.1,172,327.1z"/>
</svg>
