<?xml version="1.0" encoding="utf-8"?>
<!-- Generator: Adobe Illustrator 20.0.0, SVG Export Plug-In . SVG Version: 6.00 Build 0)  -->
<svg version="1.1" id="Layer_1" xmlns="http://www.w3.org/2000/svg" xmlns:xlink="http://www.w3.org/1999/xlink" x="0px" y="0px"
	 viewBox="0 0 20 20" style="enable-background:new 0 0 20 20;" xml:space="preserve">
<style type="text/css">
	.st0{display:none;}
	.st1{display:inline;}
	.st2{fill:#999999;}
	.st3{fill:#FFCD34;}
	.st4{display:inline;fill:#999999;}
	.st5{display:inline;fill:#FFCD34;}
	.st6{display:inline;fill:#989898;}
</style>
<g id="Layer_1_1_" class="st0">
</g>
<g id="Guides" class="st0">
</g>
<g id="Layer_8" class="st0">
</g>
<g id="Layer_10" class="st0">
	<g class="st1">
		<path class="st2" d="M16.2,12.9V7.1c0-0.7-0.6-1.2-1.2-1.2H4.9c-0.7,0-1.2,0.6-1.2,1.2v5.7c0,0.7,0.6,1.2,1.2,1.2H15
			C15.7,14.1,16.2,13.5,16.2,12.9z M4.6,13c0-0.1,0-0.1,0-0.2V7.1l0,0l3,3L4.6,13L4.6,13z M5.3,6.7h9.4l-4.6,4.6
			c-0.1,0.1-0.2,0.1-0.3,0L5.3,6.7z M5.5,13.3l2.6-2.6l1.2,1.2c0.2,0.2,0.4,0.3,0.7,0.3s0.5-0.1,0.7-0.3l1.2-1.2l2.6,2.6
			C14.5,13.3,5.5,13.3,5.5,13.3z M12.4,10.1l3-3l0,0v5.7c0,0.1,0,0.1,0,0.2L12.4,10.1z"/>
	</g>
</g>
<g id="Layer_7" class="st0">
	<g class="st1">
		<path class="st3" d="M16.2,12.9V7.1c0-0.7-0.6-1.2-1.2-1.2H4.9c-0.7,0-1.2,0.6-1.2,1.2v5.7c0,0.7,0.6,1.2,1.2,1.2H15
			C15.7,14.1,16.2,13.5,16.2,12.9z M4.6,13c0-0.1,0-0.1,0-0.2V7.1l0,0l3,3L4.6,13L4.6,13z M5.3,6.7h9.4l-4.6,4.6
			c-0.1,0.1-0.2,0.1-0.3,0L5.3,6.7z M5.5,13.3l2.6-2.6l1.2,1.2c0.2,0.2,0.4,0.3,0.7,0.3s0.5-0.1,0.7-0.3l1.2-1.2l2.6,2.6
			C14.5,13.3,5.5,13.3,5.5,13.3z M12.4,10.1l3-3l0,0v5.7c0,0.1,0,0.1,0,0.2L12.4,10.1z"/>
	</g>
</g>
<g id="Layer_4" class="st0">
	<path class="st4" d="M19.8,15.3c-0.2-0.5-0.5-1.5-1.9-2.3c-0.8-0.4-2.3-1.3-3.4-2c-0.4-0.3-0.8-0.5-1.1-0.6C12.5,9.8,10.2,9,8.6,9
		H5.8c-0.1,0-2.1-0.1-3.7,1.5c-1.4,1.3-2.1,3.3-2.1,6v1C0,18.9,1.1,20,2.5,20c1.2,0,2.2-0.8,2.4-2H13c0.2,1.1,1.2,2,2.4,2
		s2.2-0.8,2.4-2H20v-0.5C20,17.3,20,15.9,19.8,15.3z M2.5,18.9c-0.8,0-1.5-0.7-1.5-1.5S1.7,16,2.5,16S4,16.6,4,17.4
		S3.3,18.9,2.5,18.9z M15.5,18.9c-0.8,0-1.5-0.7-1.5-1.5s0.7-1.5,1.5-1.5c0.8,0,1.5,0.7,1.5,1.5S16.3,18.9,15.5,18.9z M17.9,17
		c-0.2-1.1-1.2-2-2.4-2s-2.2,0.9-2.4,2H4.9c-0.2-1.1-1.2-2-2.4-2c-0.5,0-1,0.2-1.4,0.5c0.1-1.9,0.7-3.3,1.7-4.3c1.3-1.3,3-1.2,3-1.2
		h2.9c1.3,0,3.5,0.8,4.3,1.3c0.3,0.1,0.6,0.4,1,0.6c1.1,0.7,2.6,1.6,3.4,2c1,0.6,1.3,1.3,1.4,1.7c0.1,0.2,0.1,0.8,0.1,1.4H17.9
		L17.9,17z M16.6,6.9c2,0,3.3-1.8,3.3-3.5l0,0c0-1.7-1.2-3.5-3.3-3.5c-2,0-3.1,1.6-3.2,1.7c-0.1,0.1-0.1,0.2-0.1,0.3v3
		c0,0.1,0,0.2,0.1,0.3C13.5,5.3,14.6,6.9,16.6,6.9z M14.3,2.1c0.3-0.3,1.1-1.2,2.3-1.2c1.4,0,2.3,1.3,2.3,2.5l0,0
		c0,1.2-0.9,2.5-2.3,2.5c-1.2,0-2-0.9-2.3-1.2C14.3,4.8,14.3,2.1,14.3,2.1z M8.5,5h3.7V4H9L8.2,3.2H7.4V2.9h4.9v-1H6.4v2.3h1.3
		L8.5,5z"/>
</g>
<g id="Layer_9" class="st0">
	<path class="st5" d="M19.8,15.3c-0.2-0.5-0.5-1.5-1.9-2.3c-0.8-0.4-2.3-1.3-3.4-2c-0.4-0.3-0.8-0.5-1.1-0.6C12.5,9.8,10.2,9,8.6,9
		H5.8c-0.1,0-2.1-0.1-3.7,1.5c-1.4,1.3-2.1,3.3-2.1,6v1C0,18.9,1.1,20,2.5,20c1.2,0,2.2-0.8,2.4-2H13c0.2,1.1,1.2,2,2.4,2
		s2.2-0.8,2.4-2H20v-0.5C20,17.3,20,15.9,19.8,15.3z M2.5,18.9c-0.8,0-1.5-0.7-1.5-1.5S1.7,16,2.5,16S4,16.6,4,17.4
		S3.3,18.9,2.5,18.9z M15.5,18.9c-0.8,0-1.5-0.7-1.5-1.5s0.7-1.5,1.5-1.5c0.8,0,1.5,0.7,1.5,1.5S16.3,18.9,15.5,18.9z M17.9,17
		c-0.2-1.1-1.2-2-2.4-2s-2.2,0.9-2.4,2H4.9c-0.2-1.1-1.2-2-2.4-2c-0.5,0-1,0.2-1.4,0.5c0.1-1.9,0.7-3.3,1.7-4.3c1.3-1.3,3-1.2,3-1.2
		h2.9c1.3,0,3.5,0.8,4.3,1.3c0.3,0.1,0.6,0.4,1,0.6c1.1,0.7,2.6,1.6,3.4,2c1,0.6,1.3,1.3,1.4,1.7c0.1,0.2,0.1,0.8,0.1,1.4H17.9
		L17.9,17z M16.6,6.9c2,0,3.3-1.8,3.3-3.5l0,0c0-1.7-1.2-3.5-3.3-3.5c-2,0-3.1,1.6-3.2,1.7c-0.1,0.1-0.1,0.2-0.1,0.3v3
		c0,0.1,0,0.2,0.1,0.3C13.5,5.3,14.6,6.9,16.6,6.9z M14.3,2.1c0.3-0.3,1.1-1.2,2.3-1.2c1.4,0,2.3,1.3,2.3,2.5l0,0
		c0,1.2-0.9,2.5-2.3,2.5c-1.2,0-2-0.9-2.3-1.2C14.3,4.8,14.3,2.1,14.3,2.1z M8.5,5h3.7V4H9L8.2,3.2H7.4V2.9h4.9v-1H6.4v2.3h1.3
		L8.5,5z"/>
</g>
<g id="Layer_5" class="st0">
	<g class="st1">
		<path class="st3" d="M18.8,6.7l-5.6-5.6c-0.7-0.7-1.8-0.7-2.4,0L1,10.9c-0.7,0.7-0.7,1.8,0,2.4l5.6,5.6c0.7,0.7,1.8,0.7,2.4,0
			l9.8-9.8C19.5,8.4,19.5,7.4,18.8,6.7z M7.7,18.2c-0.1,0-0.2-0.1-0.2-0.1l-5.6-5.6l0,0h5.8L7.7,18.2L7.7,18.2z M2.2,11.4l9.1-9.1
			v8.8c0,0.1-0.1,0.2-0.2,0.2C11.1,11.4,2.2,11.4,2.2,11.4z M8.8,17.5v-5h2.3c0.4,0,0.7-0.1,1-0.4c0.3-0.3,0.4-0.6,0.4-1V8.9h5
			L8.8,17.5z M12.5,7.7V1.9l0,0L18,7.5c0.1,0.1,0.1,0.1,0.1,0.2C18.2,7.7,12.5,7.7,12.5,7.7z"/>
		<path class="st3" d="M1.1,3H7c0.3,0,0.6-0.2,0.6-0.6S7.3,1.9,7,1.9H1.1c-0.3,0-0.6,0.2-0.6,0.6C0.6,2.8,0.8,3,1.1,3z"/>
		<path class="st3" d="M1.1,5.2h3.7c0.3,0,0.6-0.2,0.6-0.6C5.4,4.3,5.2,4,4.8,4H1.1C0.8,4,0.5,4.2,0.5,4.6C0.6,5,0.8,5.2,1.1,5.2z"
			/>
		<path class="st3" d="M1.1,7.3h2.4c0.3,0,0.6-0.2,0.6-0.6S3.8,6.2,3.5,6.2H1.1c-0.3,0-0.6,0.2-0.6,0.6C0.6,7.1,0.8,7.3,1.1,7.3z"/>
		<path class="st3" d="M3.5,17.5H1.1c-0.3,0-0.6,0.3-0.6,0.6c0,0.3,0.2,0.6,0.6,0.6h2.4c0.3,0,0.6-0.2,0.6-0.6
			C4.1,17.8,3.8,17.5,3.5,17.5z"/>
	</g>
</g>
<g id="Layer_11" class="st0">
	<path class="st6" d="M10.6,17.4h2v-1h-2V17.4z M7.6,13.4h2v-1h-2C7.6,12.4,7.6,13.4,7.6,13.4z M7.6,15.4h2v-1h-2
		C7.6,14.4,7.6,15.4,7.6,15.4z M7.6,17.4h2v-1h-2C7.6,16.4,7.6,17.4,7.6,17.4z M10.6,13.4h2v-1h-2V13.4z M12.6,1.4h-4v-1h-1v1
		c-1.1,0-2,0.9-2,2v14c0,1.1,0.9,2,2,2h5c1.1,0,2-0.9,2-2v-14C14.6,2.3,13.7,1.4,12.6,1.4z M13.6,17.4c0,0.6-0.4,1-1,1h-5
		c-0.6,0-1-0.4-1-1v-14c0-0.6,0.4-1,1-1h5c0.6,0,1,0.4,1,1V17.4z M7.6,4.4h5v-1h-5C7.6,3.4,7.6,4.4,7.6,4.4z M10.6,15.4h2v-1h-2
		V15.4z"/>
</g>
<g id="Layer_12" class="st0">
	<path class="st5" d="M10.6,17.4h2v-1h-2V17.4z M7.6,13.4h2v-1h-2C7.6,12.4,7.6,13.4,7.6,13.4z M7.6,15.4h2v-1h-2
		C7.6,14.4,7.6,15.4,7.6,15.4z M7.6,17.4h2v-1h-2C7.6,16.4,7.6,17.4,7.6,17.4z M10.6,13.4h2v-1h-2V13.4z M12.6,1.4h-4v-1h-1v1
		c-1.1,0-2,0.9-2,2v14c0,1.1,0.9,2,2,2h5c1.1,0,2-0.9,2-2v-14C14.6,2.3,13.7,1.4,12.6,1.4z M13.6,17.4c0,0.6-0.4,1-1,1h-5
		c-0.6,0-1-0.4-1-1v-14c0-0.6,0.4-1,1-1h5c0.6,0,1,0.4,1,1V17.4z M7.6,4.4h5v-1h-5C7.6,3.4,7.6,4.4,7.6,4.4z M10.6,15.4h2v-1h-2
		V15.4z"/>
</g>
<g id="Layer_13" class="st0">
	<path class="st4" d="M13.6,8.1c-0.2-0.6-0.8-1-1.5-1H7.3c-0.9,0-1.6,0.7-1.6,1.6v4.7c0,0.9,0.7,1.6,1.6,1.6H12
		c0.9,0,1.6-0.7,1.6-1.6v-2.6l-1,1v1.6c0,0.3-0.3,0.6-0.6,0.6H7.3c-0.3,0-0.6-0.3-0.6-0.6V8.7c0-0.3,0.3-0.6,0.6-0.6H12
		c0.3,0,0.6,0.3,0.6,0.6V9l-2.5,2.5L8.3,9.6l-0.7,0.7l1.9,1.9c0.2,0.2,0.5,0.3,0.7,0.3s0.5-0.1,0.7-0.3l1.8-1.8l0,0l1-1l0,0l1.6-1.6
		l-0.7-0.7L13.6,8.1z"/>
</g>
<g id="Layer_14" class="st0">
	<g class="st1">
		<path d="M17.8,9.2c0,0-0.1-0.1-0.2-0.1l-4.2-4.2l0,0l0,0c-0.3-0.3-0.7-0.3-1,0s-0.3,0.7,0,1l0,0l0,0l3.9,3.9l-3.9,3.9l0,0l0,0l0,0
			l0,0c-0.3,0.3-0.2,0.7,0,1c0.3,0.3,0.7,0.3,1,0l0,0l0,0l0,0l0,0l4.2-4.2c0.1,0,0.1-0.1,0.2-0.1c0.1-0.1,0.2-0.3,0.2-0.5
			C18,9.6,17.9,9.4,17.8,9.2z"/>
	</g>
	<g class="st1">
		<path d="M13.1,10H2.3c-0.4,0-0.8,0-0.8-0.5S1.8,9,2.3,9h10.8c0.4,0,0.8,0,0.8,0.5S13.5,10,13.1,10z"/>
	</g>
</g>
<path class="st0" d="M16.9,13.4c0.1-0.2,0.1-0.5,0-0.8l-3.4-9.4c-0.1-0.4-0.5-0.7-0.9-0.7c-0.1,0-0.2,0-0.3,0.1L11.4,3
	c-0.3,0.1-0.5,0.3-0.6,0.5s-0.1,0.5,0,0.8l3.4,9.4c0.1,0.4,0.5,0.7,0.9,0.7c0.1,0,0.2,0,0.3-0.1l0.9-0.3
	C16.6,13.8,16.8,13.7,16.9,13.4z M15,13.3l-3.4-9.4l0.9-0.3L16,13L15,13.3z M18.3,14.5l-0.4-0.4l-0.4,0.4c-0.1,0.1-1.7,1.7-1.7,3.5
	c0,1.5,1.2,2.1,2.1,2.1c0.8,0,2.1-0.5,2.1-2.1C20,16.3,18.3,14.6,18.3,14.5z M17.9,19.1c-0.1,0-1.1,0-1.1-1.1c0-0.9,0.6-1.8,1.1-2.4
	c0.4,0.5,1.1,1.5,1.1,2.4C19,19,18.2,19.1,17.9,19.1z M4.4,16c-0.1,0.1-0.3,0.1-0.4,0.1c-0.6,0-0.9-0.7-0.9-0.7s-1.3-3.8-2-5.7
	C0.8,8.8,1.7,8.5,1.7,8.5l6.5-2.3v2.1c-0.1,0-0.1,0-0.2,0c-1,0.4-1.6,1.5-1.2,2.6c0.3,0.8,1,1.3,1.9,1.3c0.2,0,0.5,0,0.7-0.1
	c0.5-0.2,0.9-0.5,1.1-1c0.2-0.5,0.3-1,0.1-1.5C10.4,9,9.8,8.5,9.2,8.4V5.8l1-0.3l-0.4-1L9.2,4.8V0.6c0-0.3-0.2-0.5-0.5-0.5h-2
	c-0.3,0-0.5,0.2-0.5,0.5v5.2L1.4,7.5C1.3,7.5,0.9,7.7,0.6,8c-0.5,0.5-0.7,1.3-0.4,2l2,5.7C2.4,16.2,3,17,4,17c0.2,0,0.5,0,0.7-0.1
	l8.5-3L12.8,13C12.6,13.1,6.2,15.4,4.4,16z M8.7,9.2c0.4,0,0.8,0.3,0.9,0.7C9.8,10.4,9.5,11,9,11.2c-0.1,0-0.2,0.1-0.3,0.1
	c-0.4,0-0.8-0.3-0.9-0.7c-0.2-0.5,0.1-1.1,0.6-1.3C8.5,9.3,8.6,9.2,8.7,9.2z M7.2,1.1h1v4l-1,0.4V1.1z"/>
<image style="display:none;overflow:visible;" width="50" height="50" xlink:href="Y:\Picture1.png"  transform="matrix(0.3868 0 0 0.3868 -0.3389 -2.642643e-02)">
</image>
<image style="display:none;overflow:visible;" width="50" height="50" xlink:href="Y:\Picture1.png"  transform="matrix(0.3868 0 0 0.3868 0.3305 0.3305)">
</image>
<image style="display:none;overflow:visible;" width="69" height="85" xlink:href="Y:\Picture2.png"  transform="matrix(0.2343 0 0 0.2343 2.7912 -8.333334e-02)">
</image>
<image style="overflow:visible;" width="50" height="50" xlink:href="Pic2.png"  transform="matrix(0.9266 0 0 0.9266 -12.7472 -13.6667)">
</image>
</svg>
