<?xml version="1.0" encoding="utf-8"?>
<!-- Generator: Adobe Illustrator 23.0.2, SVG Export Plug-In . SVG Version: 6.00 Build 0)  -->
<svg version="1.1" id="Capa_1" xmlns="http://www.w3.org/2000/svg" xmlns:xlink="http://www.w3.org/1999/xlink" x="0px" y="0px"
	 viewBox="0 0 344.3 344.3" style="enable-background:new 0 0 344.3 344.3;" xml:space="preserve">
<style type="text/css">
	.st0{fill:#FFCC33;}
</style>
<g>
	<g>
		<path class="st0" d="M59.2,150.3c7.1-3.6,15.7-0.9,19.5,6.1l27,49.9c2.1,3.8,6.5,5.8,10.7,4.7c4.2-1.1,7.2-4.9,7.2-9.3v-72.9
			c0-5.3-4.3-9.5-9.6-9.5c-5.3,0-9.5,4.3-9.5,9.5V164l-9-16.7C86.7,131.2,67,125,50.6,133.3C36.5,140.3,29.3,156,33,171.3l17.5,72.5
			c4.1,16.9,11.4,32.7,21.7,46.7l34.2,46.9c1.9,2.6,4.8,3.9,7.7,3.9c2,0,3.9-0.6,5.6-1.8c4.3-3.1,5.2-9.1,2.1-13.3l-34.2-46.9
			c-8.8-12-15-25.5-18.5-39.9l-17.5-72.5C49.9,160.2,53.1,153.4,59.2,150.3z"/>
	</g>
</g>
<g>
	<g>
		<path class="st0" d="M274.8,109.6c-5.6,0-10.9,1.4-15.6,4c-4.7-12.2-16.5-20.9-30.4-20.9c-6,0-11.6,1.6-16.4,4.4
			c-5.1-11.2-16.5-19-29.6-19c-4.8,0-9.3,1-13.4,2.9V35.4c0-17.9-14.6-32.5-32.5-32.5s-32.5,14.6-32.5,32.5v16.6
			c0,5.3,4.3,9.5,9.5,9.5c5.3,0,9.5-4.3,9.5-9.5V35.4c0-7.4,6-13.4,13.4-13.4c7.4,0,13.4,6,13.4,13.4v134.8c0,5.3,4.3,9.5,9.5,9.5
			s9.5-4.3,9.5-9.5v-59.5c0-7.4,6-13.4,13.4-13.4c7.4,0,13.4,6,13.4,13.4v59.5c0,5.3,4.3,9.5,9.5,9.5c5.3,0,9.5-4.3,9.5-9.5v-44.9
			c0-7.4,6-13.4,13.4-13.4c7.4,0,13.4,6,13.4,13.4v44.9c0,5.3,4.3,9.5,9.5,9.5s9.5-4.3,9.5-9.5v-28c0-7.4,6-13.4,13.4-13.4
			c7.4,0,13.4,6,13.4,13.4v80.6c0,21.5-3.3,42.7-9.7,63.2l-13.5,43c-1.6,5,1.2,10.4,6.3,12c1,0.3,1.9,0.4,2.9,0.4
			c4.1,0,7.8-2.6,9.1-6.7l13.5-43c7-22.3,10.6-45.5,10.6-69v-80.6C307.3,124.2,292.7,109.6,274.8,109.6z"/>
	</g>
</g>
<g>
	<g>
		<path class="st0" d="M120.8,84.5c-1.8-1.8-4.2-2.8-6.8-2.8c-2.5,0-5,1-6.8,2.8s-2.8,4.2-2.8,6.8c0,2.5,1,5,2.8,6.8
			c1.8,1.8,4.2,2.8,6.8,2.8c2.5,0,5-1,6.8-2.8c1.8-1.8,2.8-4.2,2.8-6.8C123.6,88.8,122.6,86.3,120.8,84.5z"/>
	</g>
</g>
</svg>
