<?xml version="1.0" encoding="utf-8"?>
<!-- Generator: Adobe Illustrator 16.0.0, SVG Export Plug-In . SVG Version: 6.00 Build 0)  -->
<!DOCTYPE svg PUBLIC "-//W3C//DTD SVG 1.1//EN" "http://www.w3.org/Graphics/SVG/1.1/DTD/svg11.dtd">
<svg version="1.1" id="Layer_1" xmlns="http://www.w3.org/2000/svg" xmlns:xlink="http://www.w3.org/1999/xlink" x="0px" y="0px"
	 width="20px" height="20px" viewBox="-1 -1 20 20" enable-background="new -1 -1 20 20" xml:space="preserve">
<path fill="#FFCC33" d="M9-0.918c5.469,0,9.918,4.449,9.918,9.918S14.469,18.918,9,18.918S-0.918,14.469-0.918,9
	S3.531-0.918,9-0.918z M9,17.114c4.475,0,8.114-3.64,8.114-8.114c0-4.474-3.64-8.115-8.114-8.115S0.885,4.526,0.885,9
	C0.885,13.475,4.526,17.114,9,17.114z"/>
<path fill="#FFCC33" d="M9,3.292c0.663,0,1.202,0.54,1.202,1.203c0,0.663-0.539,1.202-1.202,1.202c-0.663,0-1.202-0.539-1.202-1.202
	C7.798,3.832,8.337,3.292,9,3.292z"/>
<path fill="#FFCC33" d="M9,7.498c0.498,0,0.901,0.404,0.901,0.902v5.41c0,0.498-0.403,0.9-0.901,0.9c-0.498,0-0.901-0.402-0.901-0.9
	v-5.41C8.099,7.901,8.502,7.498,9,7.498z"/>
</svg>
