<?xml version="1.0" encoding="utf-8"?>
<!-- Generator: Adobe Illustrator 16.0.0, SVG Export Plug-In . SVG Version: 6.00 Build 0)  -->
<!DOCTYPE svg PUBLIC "-//W3C//DTD SVG 1.1//EN" "http://www.w3.org/Graphics/SVG/1.1/DTD/svg11.dtd">
<svg version="1.1" id="Layer_1" xmlns="http://www.w3.org/2000/svg" xmlns:xlink="http://www.w3.org/1999/xlink" x="0px" y="0px"
	 width="20px" height="20px" viewBox="0 0 20 20" enable-background="new 0 0 20 20" xml:space="preserve">
<path fill="#4F4F4F" d="M17.618,4.444V20H3.004V0h10.424C15.052,1.444,16.519,2.944,17.618,4.444z M16.571,18.889V5.5h-4.19V1.055
	h-8.33v17.833H16.571L16.571,18.889z M16.308,4.5c-0.941-1.167-1.938-2.167-2.88-3.056V4.5H16.308z"/>
<g>
	<path fill="#4F4F4F" d="M7.524,8.529v4.243h7.521V8.529H7.524z M14.571,9.678c-0.405-0.059-0.722-0.332-0.783-0.676h0.783V9.678z
		 M13.313,12.298H9.255c-0.063-0.602-0.587-1.079-1.257-1.148v-0.999c0.669-0.069,1.195-0.547,1.257-1.148h4.059
		c0.063,0.602,0.589,1.08,1.258,1.148v0.999C13.902,11.219,13.376,11.696,13.313,12.298z M8.781,9.002
		C8.721,9.346,8.405,9.619,7.998,9.678V9.002H8.781z M7.998,11.622c0.406,0.06,0.723,0.333,0.783,0.676H7.998V11.622z
		 M13.788,12.298c0.061-0.344,0.377-0.617,0.783-0.676v0.676H13.788z"/>
	<path fill="#4F4F4F" d="M11.285,9.371c-0.706,0-1.278,0.574-1.278,1.279s0.572,1.279,1.278,1.279c0.705,0,1.277-0.574,1.277-1.279
		S11.99,9.371,11.285,9.371z M11.285,11.455c-0.444,0-0.806-0.36-0.806-0.805c0-0.444,0.361-0.806,0.806-0.806
		c0.443,0,0.805,0.362,0.805,0.806C12.09,11.095,11.729,11.455,11.285,11.455z"/>
	<polygon fill="#4F4F4F" points="7.026,9.493 6.551,9.493 6.551,13.735 14.071,13.735 14.071,13.263 7.024,13.263 	"/>
	<polygon fill="#4F4F4F" points="6.049,10.469 5.576,10.469 5.576,14.712 13.097,14.712 13.097,14.232 6.049,14.237 	"/>
</g>
</svg>
