<?xml version="1.0" encoding="utf-8"?>
<!-- Generator: Adobe Illustrator 16.0.0, SVG Export Plug-In . SVG Version: 6.00 Build 0)  -->
<!DOCTYPE svg PUBLIC "-//W3C//DTD SVG 1.0//EN" "http://www.w3.org/TR/2001/REC-SVG-20010904/DTD/svg10.dtd">
<svg version="1.0" xmlns="http://www.w3.org/2000/svg" xmlns:xlink="http://www.w3.org/1999/xlink" x="0px" y="0px" width="20px"
	 height="20px" viewBox="0 0 20 20" enable-background="new 0 0 20 20" xml:space="preserve">
<g id="Layer_1">
</g>
<g id="Guides">
</g>
<g id="Layer_3" display="none">
	<g display="inline">
		<g>
			<path fill="#FFCD34" d="M13.68,8.371h-0.432V7.158c0-1.792-1.457-3.252-3.25-3.252s-3.25,1.459-3.25,3.25v1.212H6.32
				c-0.424,0-0.769,0.345-0.769,0.77v5.741c0,0.425,0.345,0.77,0.769,0.77h7.362c0.425,0,0.77-0.345,0.77-0.77V9.138
				C14.449,8.716,14.104,8.371,13.68,8.371z M7.727,7.156c0-1.253,1.019-2.272,2.272-2.272s2.272,1.019,2.272,2.272v1.21H7.727
				V7.156z M13.469,14.671h-6.94V9.348h6.942v5.323H13.469z"/>
			<path fill="#FFCD34" d="M9.999,13.939c0.271,0,0.489-0.218,0.489-0.488V12.19c0-0.271-0.218-0.489-0.489-0.489
				S9.51,11.92,9.51,12.19v1.261C9.51,13.72,9.728,13.939,9.999,13.939z"/>
		</g>
	</g>
</g>
<g id="Layer_7" display="none">
	<g display="inline">
		<g>
			<path fill="#999999" d="M13.68,8.371h-0.432V7.158c0-1.792-1.457-3.252-3.25-3.252s-3.25,1.459-3.25,3.25v1.212H6.32
				c-0.424,0-0.769,0.345-0.769,0.77v5.741c0,0.425,0.345,0.77,0.769,0.77h7.362c0.425,0,0.77-0.345,0.77-0.77V9.138
				C14.449,8.716,14.104,8.371,13.68,8.371z M7.727,7.156c0-1.253,1.019-2.272,2.272-2.272s2.272,1.019,2.272,2.272v1.21H7.727
				V7.156z M13.469,14.671h-6.94V9.348h6.942v5.323H13.469z"/>
			<path fill="#999999" d="M9.999,13.939c0.271,0,0.489-0.218,0.489-0.488V12.19c0-0.271-0.218-0.489-0.489-0.489
				S9.51,11.92,9.51,12.19v1.261C9.51,13.72,9.728,13.939,9.999,13.939z"/>
		</g>
	</g>
</g>
<g id="Layer_8" display="none">
	<polygon display="inline" fill="#050505" points="11.587,10.005 6.649,5.051 8.063,3.636 14.428,10 8.063,16.363 6.646,14.947 	"/>
</g>
<g id="Layer_4">
	<g>
		<path fill="#999999" d="M10,4.22C5.724,4.22,1.999,6.548,0,10c1.999,3.452,5.724,5.78,10,5.78c4.275,0,8.001-2.328,10-5.78
			C18.001,6.548,14.275,4.22,10,4.22z M10,14.779c-3.552,0-6.882-1.818-8.825-4.78C3.119,7.037,6.448,5.22,10,5.22
			s6.881,1.817,8.825,4.78C16.881,12.961,13.552,14.779,10,14.779z"/>
		<path fill="#999999" d="M12.727,8.244c0.327,0.507,0.522,1.107,0.522,1.755c0,1.792-1.458,3.25-3.25,3.25s-3.25-1.458-3.25-3.25
			s1.458-3.25,3.25-3.25c0.783,0,1.493,0.29,2.055,0.753l0.707-0.707c-0.745-0.643-1.702-1.046-2.762-1.046
			c-2.343,0-4.25,1.907-4.25,4.25c0,2.343,1.907,4.25,4.25,4.25c2.344,0,4.25-1.907,4.25-4.25c0-0.924-0.305-1.773-0.807-2.472
			L12.727,8.244z"/>
	</g>
</g>
<g id="Layer_9" display="none">
	<g display="inline">
		<path fill="#FFCD34" d="M10,4.22C5.724,4.22,1.999,6.548,0,10c1.999,3.452,5.724,5.78,10,5.78c4.275,0,8.001-2.328,10-5.78
			C18.001,6.548,14.275,4.22,10,4.22z M10,14.779c-3.552,0-6.882-1.818-8.825-4.78C3.119,7.037,6.448,5.22,10,5.22
			s6.881,1.817,8.825,4.78C16.881,12.961,13.552,14.779,10,14.779z"/>
		<path fill="#FFCD34" d="M12.727,8.244c0.327,0.507,0.522,1.107,0.522,1.755c0,1.792-1.458,3.25-3.25,3.25s-3.25-1.458-3.25-3.25
			s1.458-3.25,3.25-3.25c0.783,0,1.493,0.29,2.055,0.753l0.707-0.707c-0.745-0.643-1.702-1.046-2.762-1.046
			c-2.343,0-4.25,1.907-4.25,4.25c0,2.343,1.907,4.25,4.25,4.25c2.344,0,4.25-1.907,4.25-4.25c0-0.924-0.305-1.773-0.807-2.472
			L12.727,8.244z"/>
	</g>
</g>
<g id="Layer_5" display="none">
	<g display="inline">
		<path d="M17.775,9.234c-0.048-0.048-0.104-0.085-0.16-0.117l-4.213-4.212L13.4,4.907c-0.007-0.007-0.012-0.016-0.019-0.022
			c-0.273-0.273-0.716-0.273-0.988,0c-0.273,0.273-0.273,0.715,0,0.988c0.007,0.007,0.015,0.012,0.022,0.019l-0.002,0.002
			l3.856,3.857l-3.877,3.877l0,0l0,0l-0.021,0.021l0.003,0.002c-0.253,0.274-0.248,0.7,0.019,0.966
			c0.266,0.267,0.691,0.271,0.966,0.019l0.002,0.002l0.021-0.021l0,0l0,0l4.233-4.232c0.057-0.032,0.112-0.068,0.16-0.116
			c0.142-0.143,0.209-0.33,0.203-0.516C17.984,9.564,17.918,9.376,17.775,9.234z"/>
	</g>
	<g display="inline">
		<path d="M13.089,10H2.272C1.846,10,1.5,9.969,1.5,9.5S1.846,9,2.272,9h10.816c0.427,0,0.772,0.031,0.772,0.5S13.516,10,13.089,10z
			"/>
	</g>
</g>
</svg>
