<?xml version="1.0" encoding="utf-8"?>
<!-- Generator: Adobe Illustrator 16.0.0, SVG Export Plug-In . SVG Version: 6.00 Build 0)  -->
<!DOCTYPE svg PUBLIC "-//W3C//DTD SVG 1.0//EN" "http://www.w3.org/TR/2001/REC-SVG-20010904/DTD/svg10.dtd">
<svg version="1.0" id="Layer_1" xmlns="http://www.w3.org/2000/svg" xmlns:xlink="http://www.w3.org/1999/xlink" x="0px" y="0px"
	 width="20px" height="20px" viewBox="0 0 20 20" enable-background="new 0 0 20 20" xml:space="preserve">
<path fill="#FFCD34" d="M10.551,17.402h2v-1h-2V17.402z M7.551,13.402h2v-1h-2V13.402z M7.551,15.402h2v-1h-2V15.402z M7.551,17.402
	h2v-1h-2V17.402z M10.551,13.402h2v-1h-2V13.402z M12.551,1.402h-4v-1h-1v1c-1.104,0-2,0.896-2,2v14c0,1.104,0.896,2,2,2h5
	c1.104,0,2-0.895,2-2v-14C14.551,2.298,13.655,1.402,12.551,1.402z M13.551,17.402c0,0.553-0.449,1-1,1h-5c-0.552,0-1-0.449-1-1v-14
	c0-0.551,0.449-1,1-1h5c0.552,0,1,0.449,1,1V17.402z M7.551,4.402h5v-1h-5V4.402z M10.551,15.402h2v-1h-2V15.402z"/>
</svg>
