<?xml version="1.0" encoding="utf-8"?>
<!-- Generator: Adobe Illustrator 21.0.2, SVG Export Plug-In . SVG Version: 6.00 Build 0)  -->
<svg version="1.1" id="Layer_1" xmlns="http://www.w3.org/2000/svg" xmlns:xlink="http://www.w3.org/1999/xlink" x="0px" y="0px"
	 viewBox="0 0 20 20" style="enable-background:new 0 0 20 20;" xml:space="preserve">
<style type="text/css">
	.st0{display:none;}
	.st1{display:inline;}
	.st2{fill:#FFCD34;}
	.st3{fill:#999999;}
	.st4{display:inline;fill:#050505;}
</style>
<g id="Layer_1_1_">
</g>
<g id="Guides">
</g>
<g id="Layer_3" class="st0">
	<g class="st1">
		<g>
			<path class="st2" d="M13.7,8.4h-0.4V7.2c0-1.8-1.5-3.3-3.3-3.3S6.7,5.4,6.7,7.2v1.2H6.3c-0.4,0-0.8,0.3-0.8,0.8v5.7
				c0,0.4,0.3,0.8,0.8,0.8h7.4c0.4,0,0.8-0.3,0.8-0.8V9.1C14.4,8.7,14.1,8.4,13.7,8.4z M7.7,7.2c0-1.3,1-2.3,2.3-2.3s2.3,1,2.3,2.3
				v1.2H7.7V7.2z M13.5,14.7H6.5V9.3h6.9L13.5,14.7L13.5,14.7z"/>
			<path class="st2" d="M10,13.9c0.3,0,0.5-0.2,0.5-0.5v-1.3c0-0.3-0.2-0.5-0.5-0.5s-0.5,0.2-0.5,0.5v1.3C9.5,13.7,9.7,13.9,10,13.9
				z"/>
		</g>
	</g>
</g>
<g id="Layer_7">
	<g>
		<g>
			<path class="st3" d="M15.2,7.8h-0.6V6.1c0-2.5-2.1-4.6-4.6-4.6S5.4,3.5,5.4,6v1.7H4.8c-0.6,0-1.1,0.5-1.1,1.1V17
				c0,0.6,0.5,1.1,1.1,1.1h10.5c0.6,0,1.1-0.5,1.1-1.1V8.9C16.3,8.3,15.8,7.8,15.2,7.8z M6.8,6c0-1.8,1.4-3.2,3.2-3.2
				s3.2,1.4,3.2,3.2v1.7H6.8V6z M14.9,16.7H5.1V9.2h9.9L14.9,16.7L14.9,16.7z"/>
			<path class="st3" d="M10,15.7c0.4,0,0.7-0.3,0.7-0.7v-1.8c0-0.4-0.3-0.7-0.7-0.7s-0.7,0.3-0.7,0.7V15C9.3,15.4,9.6,15.7,10,15.7z
				"/>
		</g>
	</g>
</g>
<g id="Layer_8" class="st0">
	<polygon class="st4" points="11.6,10 6.6,5.1 8.1,3.6 14.4,10 8.1,16.4 6.6,14.9 	"/>
</g>
<g id="Layer_4" class="st0">
	<g class="st1">
		<path class="st3" d="M10,4.2C5.7,4.2,2,6.5,0,10c2,3.5,5.7,5.8,10,5.8c4.3,0,8-2.3,10-5.8C18,6.5,14.3,4.2,10,4.2z M10,14.8
			c-3.6,0-6.9-1.8-8.8-4.8C3.1,7,6.4,5.2,10,5.2S16.9,7,18.8,10C16.9,13,13.6,14.8,10,14.8z"/>
		<path class="st3" d="M12.7,8.2c0.3,0.5,0.5,1.1,0.5,1.8c0,1.8-1.5,3.3-3.3,3.3S6.7,11.8,6.7,10S8.2,6.7,10,6.7
			c0.8,0,1.5,0.3,2.1,0.8l0.7-0.7c-0.7-0.6-1.7-1-2.8-1c-2.3,0-4.3,1.9-4.3,4.2s1.9,4.3,4.3,4.3c2.3,0,4.3-1.9,4.3-4.3
			c0-0.9-0.3-1.8-0.8-2.5L12.7,8.2z"/>
	</g>
</g>
<g id="Layer_9" class="st0">
	<g class="st1">
		<path class="st2" d="M10,4.2C5.7,4.2,2,6.5,0,10c2,3.5,5.7,5.8,10,5.8c4.3,0,8-2.3,10-5.8C18,6.5,14.3,4.2,10,4.2z M10,14.8
			c-3.6,0-6.9-1.8-8.8-4.8C3.1,7,6.4,5.2,10,5.2S16.9,7,18.8,10C16.9,13,13.6,14.8,10,14.8z"/>
		<path class="st2" d="M12.7,8.2c0.3,0.5,0.5,1.1,0.5,1.8c0,1.8-1.5,3.3-3.3,3.3S6.7,11.8,6.7,10S8.2,6.7,10,6.7
			c0.8,0,1.5,0.3,2.1,0.8l0.7-0.7c-0.7-0.6-1.7-1-2.8-1c-2.3,0-4.3,1.9-4.3,4.2s1.9,4.3,4.3,4.3c2.3,0,4.3-1.9,4.3-4.3
			c0-0.9-0.3-1.8-0.8-2.5L12.7,8.2z"/>
	</g>
</g>
<g id="Layer_5" class="st0">
	<g class="st1">
		<path d="M17.8,9.2c0,0-0.1-0.1-0.2-0.1l-4.2-4.2l0,0c0,0,0,0,0,0c-0.3-0.3-0.7-0.3-1,0c-0.3,0.3-0.3,0.7,0,1c0,0,0,0,0,0l0,0
			l3.9,3.9l-3.9,3.9l0,0l0,0l0,0l0,0c-0.3,0.3-0.2,0.7,0,1c0.3,0.3,0.7,0.3,1,0l0,0l0,0l0,0l0,0l4.2-4.2c0.1,0,0.1-0.1,0.2-0.1
			c0.1-0.1,0.2-0.3,0.2-0.5C18,9.6,17.9,9.4,17.8,9.2z"/>
	</g>
	<g class="st1">
		<path d="M13.1,10H2.3c-0.4,0-0.8,0-0.8-0.5S1.8,9,2.3,9h10.8c0.4,0,0.8,0,0.8,0.5S13.5,10,13.1,10z"/>
	</g>
</g>
</svg>
