<?xml version="1.0" encoding="utf-8"?>
<!-- Generator: Adobe Illustrator 22.1.0, SVG Export Plug-In . SVG Version: 6.00 Build 0)  -->
<svg version="1.1" id="Layer_5" xmlns="http://www.w3.org/2000/svg" xmlns:xlink="http://www.w3.org/1999/xlink" x="0px" y="0px"
	 viewBox="0 0 20 20" style="enable-background:new 0 0 20 20;" xml:space="preserve">
<style type="text/css">
	.st0{fill:#222221;}
</style>
<path class="st0" d="M15,13.6c-0.9,0-1.8,0.5-2.1,1.2H7.1c-0.4-0.7-1.3-1.2-2.1-1.2c-1.4,0-2.5,1.1-2.5,2.4s1.1,2.4,2.5,2.4
	s2.5-1.1,2.5-2.4h5c0,1.3,1.1,2.4,2.5,2.4s2.5-1.1,2.5-2.4S16.4,13.6,15,13.6z M5,17.2c-0.8,0-1.3-0.5-1.3-1.2
	c0-0.7,0.5-1.2,1.3-1.2s1.3,0.5,1.3,1.2C6.3,16.7,5.8,17.2,5,17.2z M15,17.2c-0.8,0-1.3-0.5-1.3-1.2c0-0.7,0.5-1.2,1.3-1.2
	s1.3,0.5,1.3,1.2C16.3,16.7,15.8,17.2,15,17.2z M5,4v1.2h13.4l-1.8,6H3.8V1.6H0v1.2h2.5v9.6h15L20,4H5z"/>
</svg>
