<?xml version="1.0" encoding="utf-8"?>
<!-- Generator: Adobe Illustrator 16.0.0, SVG Export Plug-In . SVG Version: 6.00 Build 0)  -->
<!DOCTYPE svg PUBLIC "-//W3C//DTD SVG 1.1//EN" "http://www.w3.org/Graphics/SVG/1.1/DTD/svg11.dtd">
<svg version="1.1" id="Layer_1" xmlns="http://www.w3.org/2000/svg" xmlns:xlink="http://www.w3.org/1999/xlink" x="0px" y="0px"
	 width="20px" height="20px" viewBox="0 0 20 20" enable-background="new 0 0 20 20" xml:space="preserve">
<g>
	<path fill="#4F4F4F" d="M17.866,2.829H2.353c-1.249,0-2.262,0.997-2.262,2.226v9.237c0,1.23,1.013,2.227,2.262,2.227h15.514
		c1.249,0,2.261-0.996,2.261-2.227V5.055C20.127,3.825,19.115,2.829,17.866,2.829z M19.014,14.292c0,0.613-0.516,1.113-1.147,1.113
		H2.353c-0.634,0-1.149-0.5-1.149-1.113V9.528h17.81V14.292z M19.014,6.718H1.204V5.055c0-0.614,0.515-1.113,1.149-1.113h15.514
		c0.632,0,1.147,0.499,1.147,1.113V6.718z"/>
	<path fill="#4F4F4F" d="M3.045,12.407h3.926c0.309,0,0.557-0.248,0.557-0.557c0-0.307-0.248-0.557-0.557-0.557H3.045
		c-0.309,0-0.557,0.25-0.557,0.557C2.488,12.159,2.736,12.407,3.045,12.407z"/>
	<path fill="#4F4F4F" d="M3.045,14.336H9.35c0.306,0,0.556-0.248,0.556-0.557c0-0.307-0.25-0.557-0.556-0.557H3.045
		c-0.309,0-0.557,0.25-0.557,0.557C2.488,14.088,2.736,14.336,3.045,14.336z"/>
</g>
</svg>
