<?xml version="1.0" encoding="utf-8"?>
<!-- Generator: Adobe Illustrator 20.0.0, SVG Export Plug-In . SVG Version: 6.00 Build 0)  -->
<svg version="1.1" id="Layer_1" xmlns="http://www.w3.org/2000/svg" xmlns:xlink="http://www.w3.org/1999/xlink" x="0px" y="0px"
	 viewBox="0 0 20 20" style="enable-background:new 0 0 20 20;" xml:space="preserve">
<g>
	<path d="M10,0.2C6.2,0.2,3.2,3.2,3.2,7c0,1.6,0.6,2.8,0.7,2.9l5.7,9.7c0.1,0.2,0.3,0.3,0.4,0.3s0.3-0.1,0.4-0.3l5.8-9.7
		C16.6,9,16.8,8,16.8,7C16.8,3.2,13.8,0.2,10,0.2z M15.3,9.4L10,18.3L4.7,9.4c0,0-0.5-1-0.5-2.4c0-3.2,2.6-5.8,5.8-5.8
		c3.2,0,5.8,2.6,5.8,5.8C15.8,7.8,15.6,8.7,15.3,9.4z"/>
	<path d="M10,4.2C8.5,4.2,7.2,5.5,7.2,7c0,1.5,1.2,2.8,2.8,2.8c1.5,0,2.8-1.2,2.8-2.8C12.8,5.5,11.5,4.2,10,4.2z M10,8.7
		C9,8.7,8.3,8,8.3,7C8.3,6,9,5.3,10,5.3S11.7,6,11.7,7C11.7,8,11,8.7,10,8.7z"/>
</g>
</svg>
