<?xml version="1.0" encoding="utf-8"?>
<!-- Generator: Adobe Illustrator 20.0.0, SVG Export Plug-In . SVG Version: 6.00 Build 0)  -->
<svg version="1.1" id="Layer_1" xmlns="http://www.w3.org/2000/svg" xmlns:xlink="http://www.w3.org/1999/xlink" x="0px" y="0px"
	 viewBox="0 0 20 20" style="enable-background:new 0 0 20 20;" xml:space="preserve">
<style type="text/css">
	.st0{fill:#020303;}
	.st1{fill:#FECB37;}
</style>
<g>
	<g>
		<path class="st1" d="M11.9,15.5h3.3c-1.4,1.7-3.5,2.7-5.7,2.7c-4.1,0-7.4-3.3-7.4-7.4c0-0.5,0.1-1.1,0.2-1.6l-1,0.6L0.6,8.8
			c-0.2,0.7-0.3,1.4-0.3,2.1c0,5,4.1,9.1,9.1,9.1c2.7,0,5.1-1.1,6.8-3.1l0,3.1h1.8v-6.2h-6.2V15.5z"/>
	</g>
	<g>
		<path class="st1" d="M10.6,0C7.9,0,5.5,1.1,3.8,3.1l0-3.1H2v6.2h6.2V4.5H4.9c1.4-1.7,3.5-2.7,5.7-2.7c4.1,0,7.4,3.3,7.4,7.4
			c0,0.5-0.1,1.1-0.2,1.6l1-0.6l0.7,1.1c0.2-0.7,0.3-1.4,0.3-2.1C19.7,4.1,15.6,0,10.6,0z"/>
	</g>
</g>
</svg>
