<?xml version="1.0" encoding="utf-8"?>
<!-- Generator: Adobe Illustrator 16.0.0, SVG Export Plug-In . SVG Version: 6.00 Build 0)  -->
<!DOCTYPE svg PUBLIC "-//W3C//DTD SVG 1.0//EN" "http://www.w3.org/TR/2001/REC-SVG-20010904/DTD/svg10.dtd">
<svg version="1.0" xmlns="http://www.w3.org/2000/svg" xmlns:xlink="http://www.w3.org/1999/xlink" x="0px" y="0px" width="20px"
	 height="20px" viewBox="0 0 20 20" enable-background="new 0 0 20 20" xml:space="preserve">
<g id="Layer_1">
</g>
<g id="Guides">
</g>
<g id="Layer_8">
</g>
<g id="Layer_10" display="none">
	<g display="inline">
		<path fill="#999999" d="M16.228,12.862V7.137c0-0.686-0.557-1.244-1.242-1.244H4.927c-0.686,0-1.244,0.558-1.244,1.244v5.726
			c0,0.686,0.559,1.244,1.244,1.244h10.059C15.671,14.106,16.228,13.548,16.228,12.862z M4.557,13.044
			c-0.026-0.057-0.046-0.115-0.046-0.182V7.137c0-0.001,0.001-0.002,0.001-0.004L7.49,10.11L4.557,13.044L4.557,13.044z
			 M5.275,6.722h9.36l-4.554,4.553c-0.067,0.07-0.185,0.07-0.254,0L5.275,6.722z M5.496,13.276l2.581-2.581l1.165,1.168
			c0.191,0.189,0.445,0.295,0.714,0.295c0.271,0,0.524-0.105,0.717-0.295l1.164-1.168l2.58,2.581H5.496z M12.422,10.11l2.977-2.978
			c0,0.002,0,0.003,0,0.004v5.726c0,0.066-0.016,0.125-0.045,0.182L12.422,10.11z"/>
	</g>
</g>
<g id="Layer_7" display="none">
	<g display="inline">
		<path fill="#FFCD34" d="M16.228,12.862V7.137c0-0.686-0.557-1.244-1.242-1.244H4.927c-0.686,0-1.244,0.558-1.244,1.244v5.726
			c0,0.686,0.559,1.244,1.244,1.244h10.059C15.671,14.106,16.228,13.548,16.228,12.862z M4.557,13.044
			c-0.026-0.057-0.046-0.115-0.046-0.182V7.137c0-0.001,0.001-0.002,0.001-0.004L7.49,10.11L4.557,13.044L4.557,13.044z
			 M5.275,6.722h9.36l-4.554,4.553c-0.067,0.07-0.185,0.07-0.254,0L5.275,6.722z M5.496,13.276l2.581-2.581l1.165,1.168
			c0.191,0.189,0.445,0.295,0.714,0.295c0.271,0,0.524-0.105,0.717-0.295l1.164-1.168l2.58,2.581H5.496z M12.422,10.11l2.977-2.978
			c0,0.002,0,0.003,0,0.004v5.726c0,0.066-0.016,0.125-0.045,0.182L12.422,10.11z"/>
	</g>
</g>
<g id="Layer_4">
	<path fill="#999999" d="M19.813,15.304c-0.151-0.498-0.471-1.533-1.882-2.287c-0.842-0.449-2.315-1.344-3.392-1.998
		c-0.431-0.26-0.803-0.486-1.058-0.637c-0.983-0.583-3.274-1.426-4.846-1.426L5.794,8.958c-0.088-0.007-2.078-0.094-3.722,1.464
		C0.697,11.726,0,13.757,0,16.458v0.984c0,1.374,1.115,2.492,2.487,2.492c1.193,0,2.19-0.848,2.431-1.971h8.118
		c0.239,1.123,1.237,1.971,2.431,1.971s2.191-0.848,2.431-1.971H20v-0.5C20,17.304,19.995,15.892,19.813,15.304z M2.487,18.935
		c-0.821,0-1.489-0.67-1.489-1.492s0.668-1.492,1.489-1.492s1.489,0.67,1.489,1.492S3.309,18.935,2.487,18.935z M15.467,18.935
		c-0.82,0-1.488-0.67-1.488-1.492s0.668-1.492,1.488-1.492c0.821,0,1.489,0.67,1.489,1.492S16.288,18.935,15.467,18.935z
		 M17.906,16.964c-0.225-1.146-1.231-2.014-2.439-2.014s-2.215,0.868-2.439,2.014H4.926c-0.224-1.146-1.23-2.014-2.438-2.014
		c-0.54,0-1.037,0.178-1.445,0.473c0.149-1.887,0.718-3.32,1.705-4.264c1.32-1.263,2.977-1.204,3.02-1.202l2.87-0.001
		c1.322,0,3.453,0.762,4.337,1.285c0.254,0.15,0.622,0.375,1.049,0.633c1.086,0.66,2.573,1.563,3.439,2.025
		c1.048,0.559,1.267,1.272,1.398,1.698c0.076,0.247,0.117,0.849,0.133,1.366H17.906z M16.606,6.946c2.042,0,3.271-1.778,3.28-3.506
		c0-0.011,0-0.022-0.001-0.034c-0.02-1.711-1.246-3.472-3.279-3.472c-1.972,0-3.142,1.644-3.19,1.714
		c-0.059,0.084-0.09,0.184-0.09,0.286v3.012c0,0.103,0.031,0.202,0.09,0.286C13.465,5.302,14.635,6.946,16.606,6.946z M14.326,2.107
		c0.266-0.315,1.098-1.173,2.28-1.173c1.411,0,2.264,1.257,2.28,2.485c-0.001,0.008-0.001,0.017-0.001,0.025
		c-0.006,1.229-0.859,2.502-2.279,2.502c-1.183,0-2.015-0.857-2.28-1.173V2.107z M8.549,4.981h3.732v-1H8.975L8.193,3.167H7.449
		V2.885h4.875v-1H6.449v2.281h1.318L8.549,4.981z"/>
</g>
<g id="Layer_9" display="none">
	<path display="inline" fill="#FFCD34" d="M19.813,15.304c-0.151-0.498-0.471-1.533-1.882-2.287
		c-0.842-0.449-2.315-1.344-3.392-1.998c-0.431-0.26-0.803-0.486-1.058-0.637c-0.983-0.583-3.274-1.426-4.846-1.426L5.794,8.958
		c-0.088-0.007-2.078-0.094-3.722,1.464C0.697,11.726,0,13.757,0,16.458v0.984c0,1.374,1.115,2.492,2.487,2.492
		c1.193,0,2.19-0.848,2.431-1.971h8.118c0.239,1.123,1.237,1.971,2.431,1.971s2.191-0.848,2.431-1.971H20v-0.5
		C20,17.304,19.995,15.892,19.813,15.304z M2.487,18.935c-0.821,0-1.489-0.67-1.489-1.492s0.668-1.492,1.489-1.492
		s1.489,0.67,1.489,1.492S3.309,18.935,2.487,18.935z M15.467,18.935c-0.82,0-1.488-0.67-1.488-1.492s0.668-1.492,1.488-1.492
		c0.821,0,1.489,0.67,1.489,1.492S16.288,18.935,15.467,18.935z M17.906,16.964c-0.225-1.146-1.231-2.014-2.439-2.014
		s-2.215,0.868-2.439,2.014H4.926c-0.224-1.146-1.23-2.014-2.438-2.014c-0.54,0-1.037,0.178-1.445,0.473
		c0.149-1.887,0.718-3.32,1.705-4.264c1.32-1.263,2.977-1.204,3.02-1.202l2.87-0.001c1.322,0,3.453,0.762,4.337,1.285
		c0.254,0.15,0.622,0.375,1.049,0.633c1.086,0.66,2.573,1.563,3.439,2.025c1.048,0.559,1.267,1.272,1.398,1.698
		c0.076,0.247,0.117,0.849,0.133,1.366H17.906z M16.606,6.946c2.042,0,3.271-1.778,3.28-3.506c0-0.011,0-0.022-0.001-0.034
		c-0.02-1.711-1.246-3.472-3.279-3.472c-1.972,0-3.142,1.644-3.19,1.714c-0.059,0.084-0.09,0.184-0.09,0.286v3.012
		c0,0.103,0.031,0.202,0.09,0.286C13.465,5.302,14.635,6.946,16.606,6.946z M14.326,2.107c0.266-0.315,1.098-1.173,2.28-1.173
		c1.411,0,2.264,1.257,2.28,2.485c-0.001,0.008-0.001,0.017-0.001,0.025c-0.006,1.229-0.859,2.502-2.279,2.502
		c-1.183,0-2.015-0.857-2.28-1.173V2.107z M8.549,4.981h3.732v-1H8.975L8.193,3.167H7.449V2.885h4.875v-1H6.449v2.281h1.318
		L8.549,4.981z"/>
</g>
<g id="Layer_5" display="none">
	<g display="inline">
		<path fill="#FFCD34" d="M18.834,6.687l-5.563-5.563c-0.666-0.667-1.751-0.667-2.417,0l-9.772,9.771
			c-0.666,0.666-0.666,1.751,0,2.418l5.562,5.563c0.667,0.664,1.751,0.664,2.418,0l9.771-9.773C19.5,8.437,19.5,7.353,18.834,6.687z
			 M7.67,18.2c-0.08-0.027-0.156-0.067-0.22-0.132l-5.561-5.56c-0.001-0.003-0.002-0.005-0.004-0.006H7.67V18.2L7.67,18.2z
			 M2.228,11.362l9.093-9.093v8.846c0,0.134-0.114,0.247-0.249,0.247H2.228z M8.81,17.516v-5.013h2.263
			c0.371,0,0.72-0.145,0.982-0.406c0.263-0.264,0.407-0.611,0.407-0.981V8.85h5.014L8.81,17.516z M12.462,7.711V1.926
			c0.001,0.001,0.003,0.002,0.005,0.004l5.561,5.562c0.064,0.064,0.104,0.14,0.132,0.219H12.462z"/>
		<path fill="#FFCD34" d="M1.138,3.04h5.836c0.307,0,0.555-0.248,0.555-0.555c0-0.307-0.249-0.555-0.555-0.555H1.138
			c-0.307,0-0.555,0.249-0.555,0.555C0.583,2.792,0.831,3.04,1.138,3.04z"/>
		<path fill="#FFCD34" d="M1.138,5.221h3.66c0.307,0,0.555-0.248,0.555-0.555c0-0.307-0.249-0.556-0.555-0.556h-3.66
			c-0.307,0-0.555,0.249-0.555,0.556C0.583,4.973,0.831,5.221,1.138,5.221z"/>
		<path fill="#FFCD34" d="M1.138,7.337h2.363c0.307,0,0.556-0.249,0.556-0.555S3.808,6.226,3.501,6.226H1.138
			c-0.307,0-0.555,0.249-0.555,0.556C0.583,7.088,0.831,7.337,1.138,7.337z"/>
		<path fill="#FFCD34" d="M3.501,17.547H1.138c-0.307,0-0.555,0.25-0.555,0.556c0,0.307,0.248,0.556,0.555,0.556h2.363
			c0.307,0,0.556-0.249,0.556-0.556C4.057,17.797,3.808,17.547,3.501,17.547z"/>
	</g>
</g>
<g id="Layer_6" display="none">
	<g display="inline">
		<g>
			<g>
				<path fill="#FC0000" d="M19.687,15.841L11.53,2.314C11.208,1.781,10.622,1.45,10,1.45S8.792,1.781,8.47,2.314L0.313,15.841
					c-0.333,0.551-0.342,1.241-0.026,1.801C0.604,18.202,1.2,18.55,1.843,18.55h16.313c0.643,0,1.239-0.348,1.556-0.908
					C20.028,17.082,20.019,16.392,19.687,15.841z M18.584,17.006c-0.087,0.154-0.251,0.25-0.428,0.25H1.843
					c-0.177,0-0.341-0.096-0.428-0.25c-0.087-0.155-0.084-0.345,0.007-0.496L9.579,2.983C9.667,2.836,9.829,2.745,10,2.745
					c0.171,0,0.333,0.091,0.421,0.238l8.157,13.527C18.669,16.661,18.672,16.851,18.584,17.006z"/>
			</g>
		</g>
		<g>
			<g>
				<path fill="#FC0000" d="M10.006,6.777c-0.492,0-0.877,0.264-0.877,0.733c0,1.429,0.168,3.483,0.168,4.912
					c0,0.373,0.324,0.529,0.709,0.529c0.288,0,0.696-0.156,0.696-0.529c0-1.429,0.168-3.483,0.168-4.912
					C10.871,7.041,10.474,6.777,10.006,6.777z"/>
			</g>
		</g>
		<g>
			<g>
				<path fill="#FC0000" d="M10.018,13.779c-0.528,0-0.925,0.42-0.925,0.925c0,0.492,0.396,0.925,0.925,0.925
					c0.493,0,0.913-0.433,0.913-0.925C10.931,14.199,10.51,13.779,10.018,13.779z"/>
			</g>
		</g>
	</g>
</g>
<g id="Layer_11" display="none">
	<path display="inline" fill="#989898" d="M10.551,17.402h2v-1h-2V17.402z M7.551,13.402h2v-1h-2V13.402z M7.551,15.402h2v-1h-2
		V15.402z M7.551,17.402h2v-1h-2V17.402z M10.551,13.402h2v-1h-2V13.402z M12.551,1.402h-4v-1h-1v1c-1.104,0-2,0.896-2,2v14
		c0,1.104,0.896,2,2,2h5c1.104,0,2-0.896,2-2v-14C14.551,2.298,13.654,1.402,12.551,1.402z M13.551,17.402c0,0.553-0.449,1-1,1h-5
		c-0.552,0-1-0.449-1-1v-14c0-0.551,0.449-1,1-1h5c0.553,0,1,0.449,1,1V17.402z M7.551,4.402h5v-1h-5V4.402z M10.551,15.402h2v-1h-2
		V15.402z"/>
</g>
<g id="Layer_12" display="none">
	<path display="inline" fill="#FFCD34" d="M10.551,17.402h2v-1h-2V17.402z M7.551,13.402h2v-1h-2V13.402z M7.551,15.402h2v-1h-2
		V15.402z M7.551,17.402h2v-1h-2V17.402z M10.551,13.402h2v-1h-2V13.402z M12.551,1.402h-4v-1h-1v1c-1.104,0-2,0.896-2,2v14
		c0,1.104,0.896,2,2,2h5c1.104,0,2-0.896,2-2v-14C14.551,2.298,13.654,1.402,12.551,1.402z M13.551,17.402c0,0.553-0.449,1-1,1h-5
		c-0.552,0-1-0.449-1-1v-14c0-0.551,0.449-1,1-1h5c0.553,0,1,0.449,1,1V17.402z M7.551,4.402h5v-1h-5V4.402z M10.551,15.402h2v-1h-2
		V15.402z"/>
</g>
<g id="Layer_13" display="none">
	<path display="inline" fill="#999999" d="M13.553,8.077c-0.242-0.596-0.828-1.018-1.51-1.018H7.346c-0.9,0-1.633,0.732-1.633,1.633
		v4.697c0,0.898,0.732,1.631,1.633,1.631h4.697c0.9,0,1.633-0.732,1.633-1.631v-2.598l-1.002,1.004v1.594
		c0,0.346-0.283,0.629-0.631,0.629H7.346c-0.348,0-0.631-0.283-0.631-0.629V8.692c0-0.348,0.283-0.631,0.631-0.631h4.697
		c0.348,0,0.631,0.283,0.631,0.631V8.95l-2.527,2.51L8.274,9.589l-0.709,0.709l1.875,1.873c0.195,0.193,0.452,0.293,0.708,0.293
		c0.248,0,0.495-0.092,0.685-0.279l1.841-1.826v0.02l1.002-1.002v-0.01l1.611-1.598L14.578,7.06L13.553,8.077z"/>
</g>
<g id="Layer_14" display="none">
	<g display="inline">
		<path d="M17.775,9.234c-0.048-0.048-0.104-0.085-0.16-0.117l-4.213-4.212L13.4,4.907c-0.007-0.007-0.012-0.016-0.019-0.022
			c-0.273-0.273-0.716-0.273-0.988,0c-0.273,0.273-0.273,0.715,0,0.988c0.007,0.007,0.015,0.012,0.022,0.019l-0.002,0.002
			l3.856,3.857l-3.877,3.877l0,0l0,0l-0.021,0.021l0.003,0.002c-0.253,0.274-0.248,0.7,0.019,0.966
			c0.266,0.267,0.691,0.271,0.966,0.019l0.002,0.002l0.021-0.021l0,0l0,0l4.233-4.232c0.057-0.032,0.112-0.068,0.16-0.116
			c0.142-0.143,0.209-0.33,0.203-0.516C17.984,9.564,17.918,9.376,17.775,9.234z"/>
	</g>
	<g display="inline">
		<path d="M13.089,10H2.272C1.846,10,1.5,9.969,1.5,9.5S1.846,9,2.272,9h10.816c0.427,0,0.772,0.031,0.772,0.5S13.516,10,13.089,10z
			"/>
	</g>
</g>
</svg>
