<?xml version="1.0" encoding="utf-8"?>
<!-- Generator: Adobe Illustrator 16.0.0, SVG Export Plug-In . SVG Version: 6.00 Build 0)  -->
<!DOCTYPE svg PUBLIC "-//W3C//DTD SVG 1.1//EN" "http://www.w3.org/Graphics/SVG/1.1/DTD/svg11.dtd">
<svg version="1.1" id="Layer_1" xmlns="http://www.w3.org/2000/svg" xmlns:xlink="http://www.w3.org/1999/xlink" x="0px" y="0px"
	 width="20px" height="20px" viewBox="0 0 20 20" enable-background="new 0 0 20 20" xml:space="preserve">
<path fill="#999999" d="M2.527,0.094v19.951h11.04L18,15.611V0.094H2.527z M16.893,10.955v1.107v3.549h-3.326v3.326h-9.93v-6.875
	v-1.107V1.203h13.256V10.955z"/>
<path fill="#999999" d="M6.239,11.671c0.662,0,1.244-0.42,1.462-1.037h3.918c0.218,0.617,0.8,1.037,1.462,1.037
	c0.66,0,1.243-0.42,1.462-1.037h1.173v-0.509c0-0.14-0.004-0.868-0.11-1.208c-0.082-0.271-0.276-0.903-1.109-1.347
	c-0.426-0.226-1.155-0.67-1.775-1.042l-0.562-0.34C11.602,5.861,10.36,5.404,9.48,5.404H7.914c-0.276,0-1.237,0.061-2.062,0.84
	C5.077,6.981,4.684,8.109,4.684,9.596v0.519C4.684,10.975,5.381,11.671,6.239,11.671z M13.082,10.656
	c-0.299,0-0.541-0.243-0.541-0.542c0-0.298,0.242-0.541,0.541-0.541s0.542,0.243,0.542,0.541
	C13.624,10.414,13.38,10.656,13.082,10.656z M6.543,6.989C7.108,6.448,7.817,6.42,7.968,6.42h1.513c0.652,0,1.732,0.388,2.164,0.647
	c0.135,0.076,0.326,0.192,0.614,0.368c0.569,0.342,1.316,0.794,1.761,1.03C14.479,8.71,14.568,9,14.637,9.217
	c0.014,0.052,0.033,0.195,0.047,0.402h-0.129c-0.213-0.63-0.798-1.059-1.474-1.059c-0.675,0-1.263,0.429-1.472,1.059H7.711
	C7.5,8.99,6.914,8.561,6.239,8.561c-0.155,0-0.308,0.024-0.457,0.071C5.9,7.912,6.156,7.357,6.543,6.989z M6.239,9.574
	c0.297,0,0.54,0.243,0.54,0.541c0,0.299-0.243,0.542-0.54,0.542c-0.298,0-0.541-0.243-0.541-0.542
	C5.699,9.817,5.941,9.574,6.239,9.574z"/>
</svg>
