<?xml version="1.0" encoding="utf-8"?>
<!-- Generator: Adobe Illustrator 21.0.2, SVG Export Plug-In . SVG Version: 6.00 Build 0)  -->
<svg version="1.1" id="Layer_1" xmlns="http://www.w3.org/2000/svg" xmlns:xlink="http://www.w3.org/1999/xlink" x="0px" y="0px"
	 viewBox="0 0 20 20" style="enable-background:new 0 0 20 20;" xml:space="preserve">
<style type="text/css">
	.st0{display:none;}
	.st1{display:inline;fill:#FFCD34;}
	.st2{display:inline;fill:#8B8B8B;}
	.st3{display:inline;}
	.st4{fill:#FFCD34;}
	.st5{display:inline;fill:#999999;}
	.st6{fill:#8B8B8B;}
	.st7{fill:none;stroke:#8B8B8B;stroke-miterlimit:10;}
	.st8{fill:#FFCC33;}
</style>
<g id="Layer_1_1_">
</g>
<g id="Guides">
</g>
<g id="Layer_8" class="st0">
	<rect x="-10" class="st1" width="8" height="5"/>
	<rect x="-10" y="8" class="st2" width="8" height="5"/>
	<rect x="-10" y="15" class="st3" width="8" height="5"/>
</g>
<g id="Layer_5" class="st0">
	<g class="st3">
		<path d="M20,12.5c0-1.6-0.3-3.2-2-4c-3-1-5-4-10-4H6c-3.7,0-5.6,2.6-5.9,6C0,11.6,0,13,0,13c0,1.4,1.1,2.5,2.5,2.5
			c1.2,0,2.2-0.9,2.4-2H13c0.2,1.1,1.2,2,2.4,2s2.2-0.9,2.4-2H19h1V12.5L20,12.5z M2.5,14.5C1.7,14.5,1,13.8,1,13s0.7-1.5,1.5-1.5
			S4,12.2,4,13S3.3,14.5,2.5,14.5z M15.5,14.5c-0.8,0-1.5-0.7-1.5-1.5s0.7-1.5,1.5-1.5c0.8,0,1.5,0.7,1.5,1.5S16.3,14.5,15.5,14.5z
			 M18,12.5c-0.2-1.1-1.2-2-2.4-2s-2.2,0.9-2.4,2H5c-0.2-1.1-1.2-2-2.4-2c-0.5,0-1,0.2-1.5,0.5l0.1-1.2C1.5,7.9,2.6,5.5,6,5.5h2
			c3,0,4.8,1.1,6.5,2.3c1,0.6,2,1.1,3.1,1.6c0.8,0.3,1.3,0.9,1.4,3.1H18z"/>
		<path d="M14.3,8.7H7.9c-2.6,0-3.3-1.5-3.3-1.6C4.5,6.8,4.2,6.7,3.9,6.8C3.7,6.9,3.6,7.2,3.7,7.5c0,0.1,0.9,2.2,4.2,2.2h6.4
			c0.3,0,0.5-0.2,0.5-0.5S14.6,8.7,14.3,8.7z"/>
	</g>
</g>
<g id="Layer_6" class="st0">
	<g class="st3">
		<path class="st4" d="M20,12.5c0-1.6-0.3-3.2-2-4c-3-1-5-4-10-4H6c-3.7,0-5.6,2.6-5.9,6C0,11.6,0,13,0,13c0,1.4,1.1,2.5,2.5,2.5
			c1.2,0,2.2-0.9,2.4-2H13c0.2,1.1,1.2,2,2.4,2s2.2-0.9,2.4-2H19h1V12.5L20,12.5z M2.5,14.5C1.7,14.5,1,13.8,1,13s0.7-1.5,1.5-1.5
			S4,12.2,4,13S3.3,14.5,2.5,14.5z M15.5,14.5c-0.8,0-1.5-0.7-1.5-1.5s0.7-1.5,1.5-1.5c0.8,0,1.5,0.7,1.5,1.5S16.3,14.5,15.5,14.5z
			 M18,12.5c-0.2-1.1-1.2-2-2.4-2s-2.2,0.9-2.4,2H5c-0.2-1.1-1.2-2-2.4-2c-0.5,0-1,0.2-1.5,0.5l0.1-1.2C1.5,7.9,2.6,5.5,6,5.5h2
			c3,0,4.8,1.1,6.5,2.3c1,0.6,2,1.1,3.1,1.6c0.8,0.3,1.3,0.9,1.4,3.1H18z"/>
		<path class="st4" d="M14.3,8.7H7.9c-2.6,0-3.3-1.5-3.3-1.6C4.5,6.8,4.2,6.7,3.9,6.8C3.7,6.9,3.6,7.2,3.7,7.5
			c0,0.1,0.9,2.2,4.2,2.2h6.4c0.3,0,0.5-0.2,0.5-0.5S14.6,8.7,14.3,8.7z"/>
	</g>
</g>
<g id="Layer_7" class="st0">
	<path class="st3" d="M16.9,2.7H19v-1h-4v4h1V3.3c1.8,1.6,3,4,3,6.7c0,5-4,9-9,9s-9-4-9-9s4-9,9-9V0C4.5,0,0,4.5,0,10s4.5,10,10,10
		s10-4.5,10-10C20,7.1,18.8,4.6,16.9,2.7z M7.2,6.2c-0.1,0-1.4-0.1-2.6,1c-0.9,0.9-1.4,2.3-1.4,4.1V12c0,1,0.8,1.8,1.8,1.8
		c0.8,0,1.5-0.6,1.7-1.3h5.1c0.2,0.8,0.9,1.3,1.7,1.3s1.5-0.6,1.7-1.3h1.4V12c0-0.2,0-1.1-0.1-1.5s-0.3-1.1-1.3-1.6
		C14.6,8.6,13.7,8,13,7.6l-0.7-0.4c-0.7-0.4-2.2-1-3.3-1L7.2,6.2z M5,12.8c-0.4,0-0.8-0.4-0.8-0.8s0.4-0.8,0.8-0.8
		c0.5,0,0.8,0.4,0.8,0.8S5.5,12.8,5,12.8z M13.6,12.8c-0.5,0-0.8-0.4-0.8-0.8s0.4-0.8,0.8-0.8s0.8,0.4,0.8,0.8S14.1,12.8,13.6,12.8z
		 M12.6,8.4c0.7,0.4,1.7,1,2.3,1.3s0.8,0.8,0.8,1c0,0.1,0.1,0.4,0.1,0.7h-0.4c-0.2-0.8-0.9-1.3-1.7-1.3s-1.5,0.6-1.7,1.3H6.8
		c-0.2-0.8-0.9-1.3-1.7-1.3c-0.3,0-0.5,0.1-0.8,0.2c0.1-1,0.5-1.8,1-2.4c0.8-0.8,1.9-0.8,1.9-0.8h1.9c0.8,0,2.2,0.5,2.8,0.8
		L12.6,8.4z"/>
</g>
<g id="Layer_9" class="st0">
	<path class="st1" d="M16.9,2.7H19v-1h-4v4h1V3.3c1.8,1.6,3,4,3,6.7c0,5-4,9-9,9s-9-4-9-9s4-9,9-9V0C4.5,0,0,4.5,0,10s4.5,10,10,10
		s10-4.5,10-10C20,7.1,18.8,4.6,16.9,2.7z M7.2,6.2c-0.1,0-1.4-0.1-2.6,1c-0.9,0.9-1.4,2.3-1.4,4.1V12c0,1,0.8,1.8,1.8,1.8
		c0.8,0,1.5-0.6,1.7-1.3h5.1c0.2,0.8,0.9,1.3,1.7,1.3s1.5-0.6,1.7-1.3h1.4V12c0-0.2,0-1.1-0.1-1.5s-0.3-1.1-1.3-1.6
		C14.6,8.6,13.7,8,13,7.6l-0.7-0.4c-0.7-0.4-2.2-1-3.3-1L7.2,6.2z M5,12.8c-0.4,0-0.8-0.4-0.8-0.8s0.4-0.8,0.8-0.8
		c0.5,0,0.8,0.4,0.8,0.8S5.5,12.8,5,12.8z M13.6,12.8c-0.5,0-0.8-0.4-0.8-0.8s0.4-0.8,0.8-0.8s0.8,0.4,0.8,0.8S14.1,12.8,13.6,12.8z
		 M12.6,8.4c0.7,0.4,1.7,1,2.3,1.3s0.8,0.8,0.8,1c0,0.1,0.1,0.4,0.1,0.7h-0.4c-0.2-0.8-0.9-1.3-1.7-1.3s-1.5,0.6-1.7,1.3H6.8
		c-0.2-0.8-0.9-1.3-1.7-1.3c-0.3,0-0.5,0.1-0.8,0.2c0.1-1,0.5-1.8,1-2.4c0.8-0.8,1.9-0.8,1.9-0.8h1.9c0.8,0,2.2,0.5,2.8,0.8
		L12.6,8.4z"/>
</g>
<g id="Layer_10" class="st0">
	<path class="st3" d="M12.5,5c-1.1,0-2,0.9-2,2s0.9,2,2,2v4c0,0.6-0.4,1-1,1h-1v1h1c1.1,0,2-0.9,2-2V8.7c0.6-0.3,1-1,1-1.7
		C14.5,5.9,13.6,5,12.5,5z M12.5,8c-0.6,0-1-0.4-1-1s0.4-1,1-1s1,0.4,1,1S13.1,8,12.5,8z M13.5,2h-7c-1.7,0-3,1.3-3,3v7h2v4
		c0,1.1,0.9,2,2,2h4v-1h-4c-0.6,0-1-0.4-1-1v-1c1.7,0,3-1.3,3-3h-1c0,1.1-0.9,2-2,2v-3h-2V5c0-1.1,0.9-2,2-2h7c1.1,0,2,0.9,2,2v13h1
		V5C16.5,3.3,15.2,2,13.5,2z M6.5,8h1V6h-1V8z"/>
</g>
<g id="Layer_11" class="st0">
	<path class="st3" d="M8.4,7.8H6.2v1.1h2.2V7.8z M8.4,4.6H6.2v1.1h2.2V4.6z M10.5,1.3H3v17.3h14V7.8L10.5,1.3z M11.6,4l2.8,2.8h-2.8
		V4z M16,17.6H4V2.4h6.5v5.4H16V17.6z M6.2,15.4h7.6v-1.1H6.2V15.4z M6.2,12.2h7.6v-1.1H6.2V12.2z"/>
</g>
<g id="Layer_12" class="st0">
	<path class="st1" d="M8.4,7.8H6.2v1.1h2.2V7.8z M8.4,4.6H6.2v1.1h2.2V4.6z M10.5,1.3H3v17.3h14V7.8L10.5,1.3z M11.6,4l2.8,2.8h-2.8
		V4z M16,17.6H4V2.4h6.5v5.4H16V17.6z M6.2,15.4h7.6v-1.1H6.2V15.4z M6.2,12.2h7.6v-1.1H6.2V12.2z"/>
</g>
<g id="Layer_13" class="st0">
	<g class="st3">
		<rect y="3.6" width="20" height="2.4"/>
	</g>
	<g class="st3">
		<rect y="8.8" width="20" height="2.4"/>
	</g>
	<g class="st3">
		<rect y="14" width="20" height="2.4"/>
	</g>
</g>
<g id="Layer_14" class="st0">
	<g class="st3">
		<path d="M6,4h4.5C13.1,4,14,5.8,14,7.6c0,2.5-1.6,3.6-4,3.6H8.6V16H6V4z M8.6,9.4h1.1c1,0,2-0.6,2-1.8s-0.7-1.8-2-1.8H8.6V9.4
			L8.6,9.4z"/>
	</g>
	<polygon class="st3" points="5,0 1,0 0,0 0,1 0,5 1,5 1,1 5,1 	"/>
	<polygon class="st3" points="0,15 0,19 0,20 1,20 5,20 5,19 1,19 1,15 	"/>
	<polygon class="st3" points="15,20 19,20 20,20 20,19 20,15 19,15 19,19 15,19 	"/>
	<polygon class="st3" points="20,5 20,1 20,0 19,0 15,0 15,1 19,1 19,5 	"/>
</g>
<g id="Layer_15" class="st0">
	<g class="st3">
		<path class="st4" d="M6,4h4.5C13.1,4,14,5.8,14,7.6c0,2.5-1.6,3.6-4,3.6H8.6V16H6V4z M8.6,9.4h1.1c1,0,2-0.6,2-1.8s-0.7-1.8-2-1.8
			H8.6V9.4L8.6,9.4z"/>
	</g>
	<polygon class="st1" points="5,0 1,0 0,0 0,1 0,5 1,5 1,1 5,1 	"/>
	<polygon class="st1" points="0,15 0,19 0,20 1,20 5,20 5,19 1,19 1,15 	"/>
	<polygon class="st1" points="15,20 19,20 20,20 20,19 20,15 19,15 19,19 15,19 	"/>
	<polygon class="st1" points="20,5 20,1 20,0 19,0 15,0 15,1 19,1 19,5 	"/>
</g>
<g id="Layer_16" class="st0">
	<path class="st3" d="M3.5,19.3h1.1l1.1-2.2c-0.3-0.2-0.6-0.4-0.8-0.6L3.5,19.3z M14,0.8c-0.8,0-1.6,0.3-2.2,0.7
		c0.5,0.1,1,0.3,1.4,0.4c0.3-0.1,0.5-0.1,0.8-0.1c1.7,0,3,1.3,3,3c0,0.1,0,0.1,0,0.2c0.3,0.4,0.5,0.8,0.7,1.3c0.2-0.5,0.3-1,0.3-1.5
		C18,2.5,16.2,0.8,14,0.8z M14.3,17.1l1.1,2.2h1.1l-1.3-2.8C14.9,16.7,14.6,16.9,14.3,17.1z M3,4.8c0-1.7,1.3-3,3-3
		c0.3,0,0.6,0.1,0.8,0.1c0.5-0.2,0.9-0.3,1.4-0.4C7.6,1,6.8,0.8,6,0.8c-2.2,0-4,1.8-4,4c0,0.5,0.1,1,0.3,1.5C2.5,5.8,2.7,5.3,3,4.8
		L3,4.8z M9.5,9.5v4.7c0.2,0,0.3,0.1,0.5,0.1s0.3,0,0.5-0.1V9.9l3.7-3.7C14,6,13.7,5.7,13.5,5.5L9.5,9.5z M10,2.3
		c-4.1,0-7.5,3.4-7.5,7.5s3.4,7.5,7.5,7.5s7.5-3.4,7.5-7.5S14.1,2.3,10,2.3z M10,16.3c-3.6,0-6.5-2.9-6.5-6.5S6.4,3.3,10,3.3
		s6.5,2.9,6.5,6.5S13.6,16.3,10,16.3z"/>
</g>
<g id="Layer_17" class="st0">
	<path class="st3" d="M17.4,14.4l-2.3-3.6V7.2c0-3.2-1.8-5-5.1-5c-3.2,0-5,1.8-5,5v3.6l-2.3,3.6H17.4z M6.1,11.2v-4
		c0-2.6,1.3-3.9,4-3.9c2.6,0,3.9,1.3,3.9,3.9v3.9l1.4,2.1H4.7L6.1,11.2z M10,16.7c-1.6,0-1.7-0.9-1.7-1.1H7.2c0,0.8,0.6,2.2,2.8,2.2
		s2.8-1.5,2.8-2.2h-1.1C11.7,15.7,11.6,16.7,10,16.7z"/>
</g>
<g id="Layer_18" class="st0">
	<g class="st3">
		<path d="M10.1,5.1c-1.3,0-2.3,1-2.3,2.3s1,2.3,2.3,2.3s2.3-1,2.3-2.3S11.3,5.1,10.1,5.1z M10.1,9C9.2,9,8.4,8.2,8.4,7.3
			S9.1,5.7,10,5.7s1.6,0.7,1.6,1.6S10.9,9,10.1,9z"/>
		<path d="M14.4,3c-1.2-1.2-2.7-1.8-4.4-1.8S6.8,1.8,5.6,3C3.4,5.2,3.2,9.3,5,11.8l5,7.2l5-7.2C16.8,9.3,16.6,5.2,14.4,3z
			 M14.4,11.4L10,17.8l-4.5-6.4c-1.6-2.3-1.4-6,0.6-7.9c1-1.1,2.4-1.7,3.9-1.7s2.9,0.6,3.9,1.6C15.9,5.4,16.1,9.1,14.4,11.4z"/>
	</g>
</g>
<g id="Layer_19" class="st0">
	<g class="st3">
		<path class="st4" d="M10.1,5.1c-1.3,0-2.3,1-2.3,2.3s1,2.3,2.3,2.3s2.3-1,2.3-2.3S11.3,5.1,10.1,5.1z M10.1,9
			C9.2,9,8.4,8.2,8.4,7.3S9.1,5.7,10,5.7s1.6,0.7,1.6,1.6S10.9,9,10.1,9z"/>
		<path class="st4" d="M14.4,3c-1.2-1.2-2.7-1.8-4.4-1.8S6.8,1.8,5.6,3C3.4,5.2,3.2,9.3,5,11.8l5,7.2l5-7.2
			C16.8,9.3,16.6,5.2,14.4,3z M14.4,11.4L10,17.8l-4.5-6.4c-1.6-2.3-1.4-6,0.6-7.9c1-1.1,2.4-1.7,3.9-1.7s2.9,0.6,3.9,1.6
			C15.9,5.4,16.1,9.1,14.4,11.4z"/>
	</g>
</g>
<g id="Layer_20" class="st0">
	<polygon class="st5" points="18,9 11,9 11,2 10,2 10,9 3,9 3,10 10,10 10,17 11,17 11,10 18,10 	"/>
</g>
<g id="Layer_22" class="st0">
	<g class="st3">
		<path d="M14.2,13.3c0.8,0,1.5-0.6,1.7-1.3h1.4v-0.5c0-0.2,0-1.1-0.1-1.5s-0.3-1.1-1.3-1.6c-0.6-0.3-1.5-0.9-2.2-1.3L13,6.7
			c-0.7-0.4-2.2-1-3.3-1H7.8c-0.1,0-1.4-0.1-2.6,1c-1,0.9-1.4,2.3-1.4,4.1v0.6c0,1,0.8,1.8,1.8,1.8c0.8,0,1.5-0.6,1.7-1.3h5.1
			C12.7,12.7,13.4,13.3,14.2,13.3z M14.2,12.3c-0.5,0-0.8-0.4-0.8-0.8c0-0.5,0.4-0.8,0.8-0.8S15,11,15,11.5
			C15,11.9,14.6,12.3,14.2,12.3z M5.6,12.3c-0.4,0-0.8-0.4-0.8-0.8c0-0.5,0.4-0.8,0.8-0.8c0.5,0,0.8,0.4,0.8,0.8
			C6.4,11.9,6,12.3,5.6,12.3z M7.3,11c-0.2-0.8-0.9-1.3-1.7-1.3c-0.3,0-0.5,0.1-0.8,0.2c0.1-1,0.5-1.8,1-2.4
			c0.8-0.8,1.9-0.8,1.9-0.8h1.9c0.8,0,2.2,0.5,2.8,0.8l0.7,0.4c0.7,0.4,1.7,1,2.3,1.3c0.6,0.3,0.8,0.8,0.8,1c0,0.1,0.1,0.4,0.1,0.7
			h-0.4c-0.2-0.8-0.9-1.3-1.7-1.3s-1.5,0.6-1.7,1.3H7.3V11z"/>
		<path d="M4.8,17.3C2.5,15.7,1,13,1,10c0-5,4-9,9-9V0C4.5,0,0,4.5,0,10c0,3.3,1.6,6.2,4,8H1.8v1h4v-4h-1V17.3L4.8,17.3z"/>
		<path d="M15.9,2h2.4V1h-4l0,0v1.1V5h1V2.8C17.6,4.5,19,7.1,19,10c0,5-4,9-9,9v1c5.5,0,10-4.5,10-10C20,6.7,18.4,3.8,15.9,2z"/>
	</g>
</g>
<g id="Layer_23" class="st0">
	<g class="st3">
		<path class="st4" d="M14.2,13.3c0.8,0,1.5-0.6,1.7-1.3h1.4v-0.5c0-0.2,0-1.1-0.1-1.5s-0.3-1.1-1.3-1.6c-0.6-0.3-1.5-0.9-2.2-1.3
			L13,6.7c-0.7-0.4-2.2-1-3.3-1H7.8c-0.1,0-1.4-0.1-2.6,1c-1,0.9-1.4,2.3-1.4,4.1v0.6c0,1,0.8,1.8,1.8,1.8c0.8,0,1.5-0.6,1.7-1.3
			h5.1C12.7,12.7,13.4,13.3,14.2,13.3z M14.2,12.3c-0.5,0-0.8-0.4-0.8-0.8c0-0.5,0.4-0.8,0.8-0.8S15,11,15,11.5
			C15,11.9,14.6,12.3,14.2,12.3z M5.6,12.3c-0.4,0-0.8-0.4-0.8-0.8c0-0.5,0.4-0.8,0.8-0.8c0.5,0,0.8,0.4,0.8,0.8
			C6.4,11.9,6,12.3,5.6,12.3z M7.3,11c-0.2-0.8-0.9-1.3-1.7-1.3c-0.3,0-0.5,0.1-0.8,0.2c0.1-1,0.5-1.8,1-2.4
			c0.8-0.8,1.9-0.8,1.9-0.8h1.9c0.8,0,2.2,0.5,2.8,0.8l0.7,0.4c0.7,0.4,1.7,1,2.3,1.3c0.6,0.3,0.8,0.8,0.8,1c0,0.1,0.1,0.4,0.1,0.7
			h-0.4c-0.2-0.8-0.9-1.3-1.7-1.3s-1.5,0.6-1.7,1.3H7.3V11z"/>
		<path class="st4" d="M4.8,17.3C2.5,15.7,1,13,1,10c0-5,4-9,9-9V0C4.5,0,0,4.5,0,10c0,3.3,1.6,6.2,4,8H1.8v1h4v-4h-1V17.3L4.8,17.3
			z"/>
		<path class="st4" d="M15.9,2h2.4V1h-4l0,0v1.1V5h1V2.8C17.6,4.5,19,7.1,19,10c0,5-4,9-9,9v1c5.5,0,10-4.5,10-10
			C20,6.7,18.4,3.8,15.9,2z"/>
	</g>
</g>
<g id="Layer_24" class="st0">
	<path class="st3" d="M18.1,11.5H1.9L0,12.6v1.1l2.1-1.2H8v5h1v-5h2v5h1v-5h5.9l2.1,1v-1.1L18.1,11.5z M4.1,11.5c1,0,1.8-0.7,2-1.6
		h6.4c0.2,0.9,1,1.6,2,1.6s1.8-0.7,2-1.6h1.7V9.4c0-0.2,0-1.3-0.2-1.8c-0.1-0.4-0.4-1.3-1.6-1.9c-0.7-0.4-1.8-1.1-2.7-1.6
		C13.5,4,13.2,3.8,13,3.7c-0.8-0.5-2.7-1.2-4-1.2H6.7C6.6,2.5,5,2.4,3.6,3.7C2.6,4.8,2,6.4,2,8.6v0.8C2,10.5,3,11.5,4.1,11.5z
		 M14.5,10.5c-0.6,0-1.1-0.5-1.1-1.1s0.5-1.1,1.1-1.1s1.1,0.5,1.1,1.1S15.1,10.5,14.5,10.5z M4.4,4.4c1-1,2.3-0.9,2.4-0.9H9
		c1,0,2.7,0.6,3.4,1C12.7,4.6,13,4.8,13.3,5c0.9,0.5,2.1,1.2,2.8,1.6c0.8,0.4,1,1,1.1,1.3c0.1,0.2,0.1,0.6,0.1,1h-0.7
		c-0.2-0.9-1-1.6-2-1.6s-1.8,0.7-2,1.6H6.1c-0.2-0.9-1-1.6-2-1.6c-0.4,0-0.7,0.1-1,0.3C3.2,6.2,3.7,5.1,4.4,4.4z M4.1,8.3
		c0.6,0,1.1,0.5,1.1,1.1s-0.5,1.1-1.1,1.1C3.5,10.5,3,10,3,9.4C3,8.8,3.5,8.3,4.1,8.3z"/>
</g>
<g id="Layer_25" class="st0">
	<path class="st1" d="M18.1,11.5H1.9L0,12.6v1.1l2.1-1.2H8v5h1v-5h2v5h1v-5h5.9l2.1,1v-1.1L18.1,11.5z M4.1,11.5c1,0,1.8-0.7,2-1.6
		h6.4c0.2,0.9,1,1.6,2,1.6s1.8-0.7,2-1.6h1.7V9.4c0-0.2,0-1.3-0.2-1.8c-0.1-0.4-0.4-1.3-1.6-1.9c-0.7-0.4-1.8-1.1-2.7-1.6
		C13.5,4,13.2,3.8,13,3.7c-0.8-0.5-2.7-1.2-4-1.2H6.7C6.6,2.5,5,2.4,3.6,3.7C2.6,4.8,2,6.4,2,8.6v0.8C2,10.5,3,11.5,4.1,11.5z
		 M14.5,10.5c-0.6,0-1.1-0.5-1.1-1.1s0.5-1.1,1.1-1.1s1.1,0.5,1.1,1.1S15.1,10.5,14.5,10.5z M4.4,4.4c1-1,2.3-0.9,2.4-0.9H9
		c1,0,2.7,0.6,3.4,1C12.7,4.6,13,4.8,13.3,5c0.9,0.5,2.1,1.2,2.8,1.6c0.8,0.4,1,1,1.1,1.3c0.1,0.2,0.1,0.6,0.1,1h-0.7
		c-0.2-0.9-1-1.6-2-1.6s-1.8,0.7-2,1.6H6.1c-0.2-0.9-1-1.6-2-1.6c-0.4,0-0.7,0.1-1,0.3C3.2,6.2,3.7,5.1,4.4,4.4z M4.1,8.3
		c0.6,0,1.1,0.5,1.1,1.1s-0.5,1.1-1.1,1.1C3.5,10.5,3,10,3,9.4C3,8.8,3.5,8.3,4.1,8.3z"/>
</g>
<g id="Layer_26" class="st0">
	<path class="st3" d="M16,19V0H4v19H0v1h20v-1H16z M15,19H5V1h10V19z M11,10.3l2-3.7L11.1,3H8.9L7,6.6l1.9,3.6H11V10.3z M9.5,4h1
		l1.3,2.6l-1.4,2.6h-1L8.1,6.6L9.5,4z"/>
</g>
<g id="Layer_27" class="st0">
	<path class="st1" d="M16,19V0H4v19H0v1h20v-1H16z M15,19H5V1h10V19z M11,10.3l2-3.7L11.1,3H8.9L7,6.6l1.9,3.6H11V10.3z M9.5,4h1
		l1.3,2.6l-1.4,2.6h-1L8.1,6.6L9.5,4z"/>
</g>
<g id="Layer_28" class="st0">
	<path class="st2" d="M15,16.7h-3v-5H8v5H5v-6H4v7h5v-5h2v5h5v-7h-1C15,10.7,15,16.7,15,16.7z M10.1,2.5L10.1,2.5L10.1,2.5l-8,8
		l0.7,0.7L10,4l7.3,7.3l0.7-0.7L10.1,2.5z"/>
</g>
<g id="Layer_29" class="st0">
	<g class="st3">
		<path class="st6" d="M5.8,7.5c1.3,2.7,3.2,4.8,5.8,6.3c0.3,0.2,0.5,0.3,0.8,0.5c0.1,0.1,0.2,0.1,0.3,0c0.4-0.4,0.9-0.9,1.3-1.3
			c0.6-0.6,1.3-0.7,2-0.3c0.1,0.1,0.3,0.2,0.4,0.3c1,0.9,1.9,1.9,2.8,2.8c0.7,0.7,0.7,1.5,0.1,2.3c-0.5,0.6-1.2,1.1-1.9,1.5
			c-1,0.4-2,0.5-3,0.3c-1.9-0.3-3.5-1.1-5.1-2.1c-2.1-1.4-3.9-3.1-5.6-5c-0.9-1.1-1.8-2.2-2.4-3.5c-0.8-1.6-1.2-3.2-1-5
			C0.4,3.5,0.7,2.7,1.2,2c0.3-0.6,0.6-1,1-1.3c0.6-0.6,1.5-0.5,2.1,0.1c1,1,2,2,3,3C7.9,4.4,8,5.2,7.4,5.9C7,6.3,6.5,6.8,6.1,7.2
			C6,7.3,5.9,7.4,5.8,7.5z M4.6,7.3C4.6,7.3,4.7,7.3,4.6,7.3c0.8-0.7,1.4-1.3,2-2c0.3-0.3,0.3-0.7,0-0.9c-1-1-2-2-3-3
			C3.4,1.2,3,1.1,2.8,1.4c-0.5,0.4-1,0.9-1.3,1.5C1.1,4,1.1,5.2,1.2,6.3c0.2,1.2,0.7,2.3,1.4,3.3c1.9,2.8,4.3,5.3,7.1,7.2
			c1.5,1,3,1.6,4.8,1.9c0.7,0.1,1.3,0.2,2,0c0.8-0.2,1.5-0.7,2.1-1.4c0.3-0.4,0.4-0.7,0-1c-0.9-0.9-1.9-1.9-2.8-2.8
			c-0.4-0.4-0.7-0.4-1.1,0c-0.6,0.6-1.2,1.2-1.8,1.8c-0.1,0.1-0.1,0.1-0.1,0.1C9,13.7,6.3,11,4.6,7.3z"/>
	</g>
</g>
<g id="Layer_30" class="st0">
	<path class="st2" d="M9.5,12.6h1v-1h-1V12.6z M18,0.1H2c-1.1,0-2,0.9-2,2v12c0,1.1,0.9,2,2,2h5.4V20h1.4l3-3.9H18c1.1,0,2-0.9,2-2
		v-12C20,1,19.1,0.1,18,0.1z M19,14.2c0,0.6-0.4,1-1,1h-6.7l-3,3.9v-3.9H2c-0.6,0-1-0.4-1-1v-12c0-0.6,0.4-1,1-1h16c0.6,0,1,0.4,1,1
		V14.2z M10,3.6c-2,0-2.5,1.6-2.5,2.5v0.5h1V6.1c0-0.3,0.1-1.5,1.5-1.5s1.5,1.3,1.5,1.5c0,0,0,0.8-0.9,1.7c-1.1,1.1-1.1,2.3-1.1,2.4
		v0.5h1v-0.5c0,0,0-0.8,0.9-1.7c1.1-1.1,1.1-2.3,1.1-2.4C12.5,5.2,12,3.6,10,3.6z"/>
</g>
<g id="Layer_31" class="st0">
	<g class="st3">
		<path class="st7" d="M2.1,18.4c-0.2,0.1-0.3,0-0.2-0.2l8-15.4c0.1-0.2,0.3-0.2,0.5,0l8,15.4c0.1,0.2,0,0.3-0.2,0.2l-7.7-3.7
			c-0.2-0.1-0.7-0.1-0.9,0L2.1,18.4z"/>
	</g>
</g>
<path class="st8" d="M13.4,6.1l0.1,0.7L12.9,7c1.3,0.9,2.1,2.4,2.1,4c0,2.7-2.2,4.9-4.9,4.9S5.2,13.7,5.2,11c0-2.5,1.9-4.6,4.4-4.8
	L8.2,7.8L9,8.4l2.4-2.9L8.5,3.2L7.8,3.9l1.5,1.2C6.4,5.5,4.2,8,4.2,11c0,3.2,2.6,5.9,5.9,5.9c3.2,0,5.9-2.6,5.9-5.9
	C16,9,15,7.2,13.4,6.1z"/>
</svg>
