<?xml version="1.0" encoding="utf-8"?>
<!-- Generator: Adobe Illustrator 22.1.0, SVG Export Plug-In . SVG Version: 6.00 Build 0)  -->
<svg version="1.1" id="Capa_1" xmlns="http://www.w3.org/2000/svg" xmlns:xlink="http://www.w3.org/1999/xlink" x="0px" y="0px"
	 viewBox="0 0 344.3 344.3" style="enable-background:new 0 0 344.3 344.3;" xml:space="preserve">
<style type="text/css">
	.st0{fill:#FFCC33;}
</style>
<path class="st0" d="M306,104.8c-57.4-19.3-95.7-77.3-191.4-77.3H-0.3v19.3h114.9c57.4,0,91.9,21.3,124.4,44.4
	c19.1,11.6,38.3,21.3,59.3,30.9c17.2,7.7,26.8,21.3,26.8,79.2h19.1C344.3,162.7,344.3,124.1,306,104.8z M267.7,143.4
	C210.3,124.1,172,66.1,76.3,66.1H-0.3v19.3h76.6c57.4,0,91.9,21.3,124.4,44.4c19.1,11.6,38.3,21.3,59.3,30.9
	c17.2,7.7,26.8,21.3,26.8,79.2H306C306,201.4,306,162.7,267.7,143.4z M229.4,182.1C172,162.7,133.7,104.8,38,104.8H-0.3v19.3H38
	c57.4,0,91.9,21.3,124.4,44.4c19.1,11.6,38.3,21.3,59.3,30.9c15.3,5.8,24.9,17.4,26.8,59.9h-19.1c-3.8-21.3-23-38.6-45.9-38.6
	c-23,0-42.1,17.4-45.9,38.6H-0.3v19.3h135.9c3.8,21.3,23,38.6,45.9,38.6c23,0,42.1-17.4,45.9-38.6h40.2v-19.3
	C265.8,226.5,262,197.5,229.4,182.1z M181.6,298c-15.3,0-28.7-13.5-28.7-29s13.4-29,28.7-29s28.7,13.5,28.7,29
	C210.3,284.4,196.9,298,181.6,298z"/>
</svg>
