<svg width="76" height="76" viewBox="0 0 76 76" fill="none" xmlns="http://www.w3.org/2000/svg">
<g filter="url(#filter0_d)">
<circle cx="34" cy="34" r="34" transform="translate(4)" fill="#FF0000"/>
<circle cx="34" cy="34" r="33.5" transform="translate(4)" stroke="white"/>
</g>
<path d="M28.5358 0H6.46421C2.9002 0 0 2.97934 0 6.64059V20.4413C0 24.1026 2.9002 27.0819 6.46421 27.0819H21.7002L27.2082 32.7402C27.3741 32.9107 27.5954 33 27.8167 33C27.9273 33 28.0379 32.9756 28.1486 32.9351C28.4726 32.797 28.678 32.4723 28.678 32.1151V27.0819C32.1788 27.0007 35 24.0539 35 20.4413V6.64059C34.9921 2.97934 32.0998 0 28.5358 0ZM33.2694 20.4413C33.2694 23.1284 31.1436 25.3122 28.5279 25.3122H27.8167C27.3425 25.3122 26.9553 25.71 26.9553 26.197V29.9801L22.6643 25.572C22.5062 25.4096 22.2849 25.3122 22.0558 25.3122H6.46421C3.8485 25.3122 1.72274 23.1284 1.72274 20.4413V6.64059C1.72274 3.95351 3.8485 1.76974 6.46421 1.76974H28.5358C31.1515 1.76974 33.2773 3.95351 33.2773 6.64059L33.2694 20.4413Z" transform="translate(20 21)" fill="white"/>
<path d="M4.65959 4.49742C3.19763 4.0428 2.51012 3.73432 2.51012 2.93063C2.51012 2.05387 3.82193 1.98081 4.22495 1.98081C4.94408 1.98081 5.73432 2.19188 6.40603 2.56531C6.59569 2.67085 6.82486 2.6952 7.03033 2.62214C7.23579 2.54908 7.40174 2.39483 7.49657 2.19188L7.65462 1.83469C7.82057 1.45314 7.67833 1.00664 7.32272 0.80369C6.43764 0.292251 5.3392 1.23872e-07 4.29607 1.23872e-07C2.01226 1.23872e-07 0.479186 1.21771 0.479186 3.02804C0.479186 5.29299 2.35207 5.86125 3.86144 6.32398C5.39452 6.79483 6.03462 7.11956 6.03462 7.92325C6.03462 9.00295 4.55686 9.08413 4.10642 9.08413C3.19763 9.08413 2.21773 8.7107 1.41958 8.06125C1.23782 7.90701 0.992846 7.85018 0.763674 7.90701C0.534503 7.95572 0.336941 8.11808 0.234209 8.32915L0.0840627 8.62952C-0.081889 8.96236 0.0050381 9.36826 0.281624 9.60369C1.33265 10.521 2.75509 11.0568 4.09851 11.0568C6.46925 11.0568 8.06555 9.77417 8.06555 7.86642C8.08135 5.569 6.18476 4.97638 4.65959 4.49742Z" transform="translate(24.1191 28.7852)" fill="white"/>
<path d="M5.57914 -1.23872e-07C2.44976 -1.23872e-07 -4.82328e-07 2.41919 -4.82328e-07 5.51218C-4.82328e-07 8.6214 2.44976 11.0568 5.57914 11.0568C8.70061 11.0568 11.1425 8.6214 11.1425 5.51218C11.1504 2.41919 8.70851 -1.23872e-07 5.57914 -1.23872e-07ZM5.57914 9.13284C3.56401 9.13284 1.9282 7.50922 1.9282 5.51218C1.9282 3.52325 3.56401 1.90775 5.57914 1.90775C7.57846 1.90775 9.20637 3.52325 9.20637 5.51218C9.20637 7.50922 7.57846 9.13284 5.57914 9.13284Z" transform="translate(32.082 28.8008)" fill="white"/>
<path d="M4.65169 4.49742C3.18973 4.0428 2.50221 3.73432 2.50221 2.93063C2.50221 2.05387 3.81402 1.98081 4.21705 1.98081C4.93617 1.98081 5.72642 2.19188 6.39813 2.56531C6.58779 2.67085 6.81696 2.6952 7.02242 2.62214C7.22789 2.54908 7.39384 2.39483 7.48867 2.19188L7.64672 1.83469C7.81267 1.45314 7.67043 1.00664 7.31482 0.80369C6.42974 0.292251 5.3313 1.23872e-07 4.29607 1.23872e-07C2.01226 1.23872e-07 0.479187 1.21771 0.479187 3.02804C0.479187 5.29299 2.35207 5.86125 3.86144 6.32399C5.39452 6.79483 6.03462 7.11956 6.03462 7.92325C6.03462 9.00295 4.55686 9.08413 4.10642 9.08413C3.19763 9.08413 2.21773 8.7107 1.41958 8.06125C1.23782 7.90701 0.992845 7.85018 0.763673 7.90701C0.534502 7.95572 0.336942 8.11808 0.23421 8.32915L0.0840636 8.62952C-0.0818881 8.96236 0.00503901 9.36827 0.281625 9.60369C1.32475 10.5048 2.74719 11.0406 4.09061 11.0406C6.46135 11.0406 8.05765 9.75793 8.05765 7.85018C8.07345 5.569 6.17686 4.97638 4.65169 4.49742Z" transform="translate(42.8477 28.7852)" fill="white"/>
<defs>
<filter id="filter0_d" x="0" y="0" width="76" height="76" filterUnits="userSpaceOnUse" color-interpolation-filters="sRGB">
<feFlood flood-opacity="0" result="BackgroundImageFix"/>
<feColorMatrix in="SourceAlpha" type="matrix" values="0 0 0 0 0 0 0 0 0 0 0 0 0 0 0 0 0 0 255 0"/>
<feOffset dy="4"/>
<feGaussianBlur stdDeviation="2"/>
<feColorMatrix type="matrix" values="0 0 0 0 0 0 0 0 0 0 0 0 0 0 0 0 0 0 0.25 0"/>
<feBlend mode="normal" in2="BackgroundImageFix" result="effect1_dropShadow"/>
<feBlend mode="normal" in="SourceGraphic" in2="effect1_dropShadow" result="shape"/>
</filter>
</defs>
</svg>
