<?xml version="1.0" encoding="utf-8"?>
<!-- Generator: Adobe Illustrator 16.0.0, SVG Export Plug-In . SVG Version: 6.00 Build 0)  -->
<!DOCTYPE svg PUBLIC "-//W3C//DTD SVG 1.1//EN" "http://www.w3.org/Graphics/SVG/1.1/DTD/svg11.dtd">
<svg version="1.1" id="Layer_5" xmlns="http://www.w3.org/2000/svg" xmlns:xlink="http://www.w3.org/1999/xlink" x="0px" y="0px"
	 width="595.279px" height="841.89px" viewBox="0 0 595.279 841.89" enable-background="new 0 0 595.279 841.89"
	 xml:space="preserve">
<path fill="#FFCC33" d="M482.177,548.931l-98.222-47.623c-8.929-5.953-14.882-14.883-14.882-23.811v-32.742
	c2.977-2.975,5.953-5.951,5.953-8.928c11.905-17.859,23.811-35.717,29.764-56.552c14.882-5.953,23.812-20.835,23.812-35.717v-41.669
	c0-8.929-2.977-17.858-8.93-26.788v-50.599c0-5.953,2.977-38.693-20.835-65.481c-20.834-23.811-56.551-35.717-101.197-35.717
	c-44.646,0-80.362,11.906-101.197,35.717c-23.812,26.788-20.835,59.528-20.835,65.481v53.575c-5.953,5.953-8.93,14.882-8.93,23.812
	v38.693c0,11.906,5.953,23.812,14.883,29.764c8.929,35.717,29.764,62.505,35.717,71.435v32.74c0,8.928-5.953,17.857-14.882,23.811
	l-89.293,47.623c-29.764,14.881-47.622,44.645-47.622,77.387v35.717c0,47.621,151.797,59.527,235.136,59.527
	c80.362,0,235.136-11.906,235.136-59.527v-29.766C532.776,593.576,511.941,563.812,482.177,548.931z M511.941,659.058
	c0,14.881-74.41,38.691-214.301,38.691c-136.914,0-214.301-26.787-214.301-38.691v-32.742c0-26.787,14.882-47.621,35.717-62.504
	l89.292-47.623c17.858-5.951,29.765-20.834,29.765-38.691v-38.693l-2.977-2.977c0,0-23.812-29.765-35.717-71.434v-2.977
	l-2.977-2.977c-5.953-2.976-11.905-8.929-11.905-17.858v-38.693c0-5.953,2.976-11.906,5.952-14.882l2.977-2.976v-62.504l0,0
	c0,0-2.977-26.788,14.882-50.599c20.835-17.858,50.599-26.788,89.292-26.788s68.457,8.929,86.315,26.788
	c20.835,20.835,17.858,50.599,17.858,50.599v62.504l2.977,2.976c2.977,2.977,5.953,8.929,5.953,14.882v38.693
	c0,8.929-5.953,14.882-14.882,17.858l-5.953,2.977l-2.977,5.953c-5.953,20.835-17.858,38.693-29.764,56.552
	c-2.977,2.977-5.953,8.93-8.93,11.906l-2.977,2.977v41.668c0,17.859,8.93,32.742,26.788,41.67l98.221,47.623
	c23.812,11.906,38.693,35.717,38.693,62.504v26.789H511.941z"/>
</svg>
