<?xml version="1.0" encoding="utf-8"?>
<!-- Generator: Adobe Illustrator 22.1.0, SVG Export Plug-In . SVG Version: 6.00 Build 0)  -->
<svg version="1.1" id="Layer_5" xmlns="http://www.w3.org/2000/svg" xmlns:xlink="http://www.w3.org/1999/xlink" x="0px" y="0px"
	 viewBox="0 0 20 20" style="enable-background:new 0 0 20 20;" xml:space="preserve">
<style type="text/css">
	.st0{fill:#989898;}
</style>
<path class="st0" d="M16.2,14.3l-3.3-1.6c-0.3-0.2-0.5-0.5-0.5-0.8v-1.1c0.1-0.1,0.2-0.2,0.2-0.3c0.4-0.6,0.8-1.2,1-1.9
	c0.5-0.2,0.8-0.7,0.8-1.2V6c0-0.3-0.1-0.6-0.3-0.9V3.4c0-0.2,0.1-1.3-0.7-2.2C12.7,0.4,11.5,0,10,0C8.5,0,7.3,0.4,6.6,1.2
	c-0.8,0.9-0.7,2-0.7,2.2v1.8C5.7,5.4,5.6,5.7,5.6,6v1.3c0,0.4,0.2,0.8,0.5,1c0.3,1.2,1,2.1,1.2,2.4v1.1c0,0.3-0.2,0.6-0.5,0.8
	l-3,1.6c-1,0.5-1.6,1.5-1.6,2.6V18c0,1.6,5.1,2,7.9,2c2.7,0,7.9-0.4,7.9-2v-1C17.9,15.8,17.2,14.8,16.2,14.3z M17.2,18
	c0,0.5-2.5,1.3-7.2,1.3c-4.6,0-7.2-0.9-7.2-1.3v-1.1c0-0.9,0.5-1.6,1.2-2.1l3-1.6C7.6,13,8,12.5,8,11.9v-1.3l-0.1-0.1
	c0,0-0.8-1-1.2-2.4l0-0.1L6.6,7.9C6.4,7.8,6.2,7.6,6.2,7.3V6c0-0.2,0.1-0.4,0.2-0.5l0.1-0.1V3.3l0,0c0,0-0.1-0.9,0.5-1.7
	C7.7,1,8.7,0.7,10,0.7c1.3,0,2.3,0.3,2.9,0.9c0.7,0.7,0.6,1.7,0.6,1.7l0,2.1l0.1,0.1c0.1,0.1,0.2,0.3,0.2,0.5v1.3
	c0,0.3-0.2,0.5-0.5,0.6L13.1,8L13,8.2c-0.2,0.7-0.6,1.3-1,1.9c-0.1,0.1-0.2,0.3-0.3,0.4l-0.1,0.1v1.4c0,0.6,0.3,1.1,0.9,1.4l3.3,1.6
	c0.8,0.4,1.3,1.2,1.3,2.1V18z"/>
</svg>
