<?xml version="1.0" encoding="utf-8"?>
<!-- Generator: Adobe Illustrator 16.0.0, SVG Export Plug-In . SVG Version: 6.00 Build 0)  -->
<!DOCTYPE svg PUBLIC "-//W3C//DTD SVG 1.1//EN" "http://www.w3.org/Graphics/SVG/1.1/DTD/svg11.dtd">
<svg version="1.1" id="Capa_1" xmlns="http://www.w3.org/2000/svg" xmlns:xlink="http://www.w3.org/1999/xlink" x="0px" y="0px"
	 width="595.279px" height="841.89px" viewBox="0 0 595.279 841.89" enable-background="new 0 0 595.279 841.89"
	 xml:space="preserve">
<path fill="#FFCC33" d="M545.813,573.625l-94.779-47.385c-8.938-4.475-14.495-13.463-14.495-23.463v-33.545
	c2.272-2.777,4.663-5.943,7.134-9.436c12.293-17.361,22.145-36.688,29.308-57.533c13.999-6.419,23.087-20.259,23.087-35.885v-39.686
	c0-9.554-3.571-18.811-9.921-26.043v-52.771c0.556-5.457,2.738-37.939-20.756-64.737c-20.379-23.246-53.446-35.032-98.301-35.032
	s-77.922,11.787-98.3,35.022c-14.237,16.241-19.029,34.536-20.479,47.672c-17.005-8.791-37.046-13.245-59.806-13.245
	c-103.072,0-109.075,87.854-109.135,89.292v45.43c-6.429,7.005-9.921,15.091-9.921,23.117v34.269
	c0,10.705,4.792,20.687,13.007,27.433c8.185,30.855,28.315,54.17,36.153,62.355v27.215c0,7.807-4.246,14.971-11.618,18.998
	l-66.007,41.402C15.705,600.859,0,627.318,0,656.111v37.672h138.898h19.843H595.28v-40.113
	C595.28,619.56,576.321,588.884,545.813,573.625z M138.899,651.736v22.203H19.843v-17.828c0-21.529,11.746-41.313,31.162-51.918
	l65.997-41.402c13.226-7.213,21.44-21.043,21.44-36.123v-35.629l-3.155-2.945c-0.258-0.238-26.619-25.141-34.407-59.082l-0.902-3.93
	l-3.394-2.182c-4.563-2.957-7.292-7.908-7.292-13.235v-34.269c0-3.571,2.431-7.818,6.657-11.647l3.264-2.947l-0.02-53.376
	c0.179-2.848,5.348-70.025,89.312-70.025c23.742,0,43.733,5.486,59.528,16.311v46.938c-6.35,7.232-9.921,16.489-9.921,26.043v39.686
	c0,3.016,0.347,5.982,1.002,8.859c0.268,1.151,0.804,2.203,1.17,3.314c0.546,1.667,0.982,3.383,1.747,4.96
	c0.01,0.02,0.02,0.03,0.029,0.05c2.54,5.238,6.24,9.921,10.903,13.662c0.05,0.188,0.109,0.357,0.159,0.536
	c0.595,2.272,1.22,4.534,1.895,6.747l0.804,2.589c0.139,0.457,0.308,0.923,0.457,1.379c0.347,1.071,0.685,2.133,1.041,3.185
	c0.596,1.736,1.221,3.532,1.944,5.486c0.308,0.814,0.646,1.548,0.963,2.352c0.813,2.073,1.627,4.077,2.48,6.062
	c0.208,0.477,0.387,0.992,0.595,1.459l0.556,1.25c0.258,0.576,0.526,1.092,0.784,1.656c0.973,2.123,1.925,4.178,2.917,6.162
	c0.158,0.316,0.308,0.664,0.466,0.982c0.625,1.24,1.25,2.41,1.875,3.602c1.072,2.043,2.124,3.969,3.175,5.834
	c0.517,0.912,1.022,1.805,1.528,2.668c1.429,2.441,2.788,4.684,4.107,6.766c0.288,0.447,0.565,0.914,0.844,1.34
	c2.4,3.721,4.484,6.736,6.21,9.088c0.457,0.625,0.854,1.16,1.24,1.688c0.219,0.287,0.517,0.703,0.705,0.961v32.83
	c0,9.604-5.239,18.414-13.662,23.018l-26.252,14.316l-4.573-0.406l-1.865,3.918l-55.817,30.449
	C156.767,588.853,138.899,618.955,138.899,651.736z M575.438,673.939H158.741v-22.203c0-25.508,13.909-48.953,36.302-61.156
	l88.509-48.277c14.813-8.086,24.009-23.592,24.009-40.449V461.99v-0.01l-1.924-2.303l-0.378-0.445
	c-0.02-0.029-0.635-0.773-1.637-2.084c-0.06-0.08-0.119-0.158-0.188-0.238c-0.525-0.684-1.141-1.508-1.846-2.49
	c-0.01-0.02-0.02-0.029-0.029-0.049c-1.479-2.055-3.334-4.723-5.397-7.938c-0.049-0.07-0.089-0.148-0.139-0.219
	c-0.972-1.518-2.004-3.174-3.056-4.93c-0.079-0.129-0.158-0.258-0.238-0.398c-2.242-3.76-4.623-8.016-6.994-12.729
	c0,0-0.01-0.01-0.01-0.02c-1.261-2.529-2.521-5.189-3.751-7.957l0,0c-0.168-0.387-0.347-0.764-0.516-1.151l0,0
	c-0.546-1.24-1.091-2.54-1.646-3.879c-0.199-0.486-0.397-0.992-0.596-1.488c-0.516-1.299-1.042-2.609-1.598-4.107
	c-1.012-2.698-1.964-5.516-2.877-8.423l-0.546-1.766c-0.06-0.198-0.129-0.397-0.188-0.605c-0.933-3.135-1.825-6.339-2.579-9.633
	l-0.903-3.929l-3.383-2.183c-5.754-3.71-9.188-9.931-9.188-16.638v-39.686c0-5.566,2.361-10.755,6.647-14.634l3.274-2.947v-61.79
	v-3.512l-0.268-0.208c-0.338-7.163,0.089-29.119,16.102-47.384c16.439-18.761,44.497-28.266,83.379-28.266
	c38.743,0,66.741,9.435,83.2,28.057c19.317,21.837,16.122,49.775,16.103,50.014l-0.089,63.09l3.273,2.957
	c4.286,3.869,6.647,9.058,6.647,14.624v39.686c0,8.661-5.675,16.241-14.108,18.84l-4.94,1.518l-1.588,4.911
	c-6.637,20.646-16.092,39.715-28.116,56.68c-2.947,4.178-5.814,7.877-8.305,10.705l-2.471,2.818v40.926
	c0,17.561,9.753,33.346,25.459,41.203l94.778,47.385c23.751,11.875,38.505,35.746,38.505,62.305V673.939z"/>
</svg>
