<?xml version="1.0" encoding="utf-8"?>
<!-- Generator: Adobe Illustrator 20.0.0, SVG Export Plug-In . SVG Version: 6.00 Build 0)  -->
<svg version="1.1" id="Capa_1" xmlns="http://www.w3.org/2000/svg" xmlns:xlink="http://www.w3.org/1999/xlink" x="0px" y="0px"
	 viewBox="0 0 512 512" style="enable-background:new 0 0 512 512;" xml:space="preserve">
<style type="text/css">
	.st0{fill:#8F8F8F;}
</style>
<g>
	<path class="st0" d="M311.9,284l-0.8-0.4c-2-0.9-4-1.7-6-2.5c-2.2-0.9-4.4-1.7-6.7-2.5c-1.8-0.6-3.6-1.1-5.4-1.7
		c-2.8-0.8-5.6-1.5-8.5-2.2c-1-0.2-2-0.4-3-0.6l-0.7-0.1c-1.7-0.3-3.4-0.6-5.2-0.9l-0.5-0.1c0,0,0,0-0.1,0l-0.5-0.1
		c-1.4-0.2-2.9-0.4-4.4-0.6l-5.1-0.4c-6.2-0.4-12.7-0.4-18.8,0.1l-1.8,0.2l-0.8,0.1l-2.1,0.2c-1.9,0.2-3.8,0.5-5.8,0.8l-0.6,0.1
		c-1.3,0.2-2.6,0.5-3.9,0.7c-1.4,0.3-2.8,0.5-4.3,0.8c-2.7,0.6-5.5,1.3-8.1,2.1c-2.1,0.6-4.2,1.3-6.1,1.9l-1.3,0.5
		c-4.1,1.5-8.2,3.1-12.2,5l-1.1,0.5l0,0C151.9,307,122,354.3,122,405.6c0,1.2,0.1,2.3,0.2,3.5l0.3,8.1h266.9l0.4-8
		c0.1-1.2,0.2-2.4,0.2-3.6C390,353.5,359.3,305.8,311.9,284z M135.1,404.2c0.6-46.1,27.8-88.3,69.3-107.8l1.3-0.5l0.2-0.2
		c3.3-1.5,6.6-2.8,10-4l1.1-0.4c1.9-0.6,3.7-1.2,5.6-1.8c2.4-0.7,4.8-1.3,7.3-1.9c1.3-0.3,2.5-0.5,3.8-0.8c1-0.2,2.1-0.4,3.1-0.5
		l0.5-0.1c1.9-0.3,3.7-0.6,5.6-0.8l4.3-0.4c5.6-0.4,11-0.5,17.4,0l4.2,0.3c1,0.1,2.1,0.3,3.3,0.4l1.5,0.2c1.6,0.2,3.1,0.5,4.7,0.8
		l0.7,0.1c0.9,0.2,1.8,0.3,2.6,0.5c2.6,0.6,5.1,1.2,7.6,2c1.7,0.5,3.3,1,4.9,1.5c2,0.7,4.1,1.4,6.1,2.2c1.9,0.8,3.8,1.6,5.7,2.4
		l0.3,0.2c42.5,19.5,70,61.9,70.6,108.4L135.1,404.2L135.1,404.2z M223.7,255.2c1,0.4,2,0.8,3,1.1l2.1,0.8c0.8,0.3,1.6,0.6,2.5,0.9
		c7.8,2.5,16,3.7,24.3,3.8l0.7,0c2.8,0,5.7-0.2,8.4-0.4c0.9-0.1,1.9-0.2,2.8-0.4l2-0.3c1.2-0.2,2.3-0.3,3.5-0.6
		c0.8-0.2,1.6-0.4,2.4-0.6l2.2-0.6c1.1-0.3,2.2-0.5,3.3-0.9c0.7-0.2,1.3-0.5,2-0.7l1.8-0.6c1.3-0.4,2.6-0.9,3.9-1.4
		c0.5-0.2,1-0.5,1.5-0.7l0.6-0.3c1.8-0.8,3.5-1.6,5.3-2.5l1.1-0.7c2-1.1,3.9-2.3,5.9-3.6c1-0.7,2-1.5,3-2.2l3.4-2.6
		c19.3-15.9,30.3-39.3,30.3-63.6l0-0.7c0-46-37.5-83.5-83.5-83.5c-44,0-80.5,34.4-83.2,78.2l-0.1,1.1c-0.1,1.4-0.2,2.8-0.2,4.2
		C172.7,211.9,192.7,242.1,223.7,255.2z M185.9,175l0.1-1.2c2.3-37,33.1-66,70.2-66c38.8,0,70.4,31.6,70.5,69.8l0,0.7
		c0,20.9-9.4,40.7-25.7,54.2l-3.1,2.4c-0.7,0.6-1.4,1.1-2.3,1.7c-1.6,1.1-3.2,2-4.9,3l-0.9,0.6c-1.4,0.8-2.9,1.4-4.4,2.1l-1.7,0.8
		c-1,0.4-2,0.8-3.1,1.1l-2.2,0.8c-0.4,0.2-0.8,0.3-1.3,0.5c-0.8,0.2-1.6,0.4-2.4,0.6l-2.6,0.7c-0.6,0.2-1.1,0.3-1.6,0.4
		c-0.9,0.2-1.8,0.3-2.6,0.4l-2.5,0.4c-0.6,0.1-1.2,0.2-1.9,0.3c-2.2,0.2-4.4,0.4-6.6,0.4l-0.6,0h0c-7.2,0-14.2-1.1-20.9-3.2
		c-0.6-0.2-1.2-0.4-1.7-0.6L231,244c-0.8-0.3-1.5-0.5-2.3-0.8c-26.1-11-43-36.5-43-64.9C185.7,177.1,185.8,176.1,185.9,175z"/>
</g>
</svg>
